<svg width="55" height="58" fill="none" xmlns="http://www.w3.org/2000/svg"><path d="M0 0h54.508l-.617 6.636L.802 6.513 0 0zm10.123 35.31l17.809 14.075.693 4.063-.693 3.869-22.995-18.21 5.186-3.797z" fill="#7E44FE"/><path d="M9.816 31.946l.34 3.457-2.023 2.412-3.194 1.291-1.512-11.975 6.389 4.815zm35.464 3.549l-17.346 13.89-.34 3.92.34 4.012 22.655-18.365-1.367-5.996-3.942 2.539zm-26.822-6.883h22.254l-2.192 5.772H16.884l1.574-5.772zM.785 6.303l6.53-.47 1.203 15.218-5.587 2.654L.785 6.303z" fill="#7E44FE"/><path d="M2.932 23.705l5.525-2.81 10.463 7.779-2.04 5.71-13.948-10.68z" fill="#7E44FE"/><path d="M2.932 23.705l5.525-2.81 10.463 7.779-2.04 5.71-13.948-10.68zm45.341-17.8l5.679.052-1.543 15.772-5.248-4.383 1.111-11.441zm-31.482 7.737h22.408v5.803H16.791z" fill="#7E44FE"/><path d="M39.204 13.642l12.773 10.556-4.907 3.457-11.657-9.321 3.79-4.692z" fill="#7E44FE"/><path d="M51.977 24.198l-1.39 14.754-5.308-3.457.82-11.605 5.878.308zm-42.47-4.537l7.285-6.019 3.92 3.797-6.606 5.463-4.599-3.24zm27.221 8.92l4.26-3.487 3.642 3.426-6.111 5.864-1.79-5.803z" fill="#7E44FE"/></svg>