<svg width="1920" height="389" viewBox="0 0 1920 389" fill="none" xmlns="http://www.w3.org/2000/svg">
<g opacity="0.5">
<path d="M1542.85 252.774H1354.6V878.882H1542.85V252.774Z" fill="url(#paint0_linear_864_3071)"/>
<path d="M1500.75 300.809H1354.6V309.127H1500.75V300.809Z" fill="#98D7FF"/>
<path d="M1542.89 340.951H1393.76V348.8H1542.89V340.951Z" fill="#98D7FF"/>
<path d="M1476 370.983H1354.6V377.894H1476V370.983Z" fill="#98D7FF"/>
<path d="M1265.74 131.367H1111.87V877.603H1265.74V131.367Z" fill="url(#paint1_linear_864_3071)"/>
<path d="M1190.4 165.153H1130.72V174.325H1190.4V165.153Z" fill="#5830B5"/>
<path d="M1240.7 196.977H1173.34V204.826H1240.7V196.977Z" fill="#5830B5"/>
<path d="M1226.02 237.119H1137.21V244.968H1226.02V237.119Z" fill="#5830B5"/>
<path d="M1250.25 276.791H1190.4V285.11H1250.25V276.791Z" fill="#5830B5"/>
<path d="M871.055 263.014H682.801V878.883H871.055V263.014Z" fill="url(#paint2_linear_864_3071)"/>
<path d="M843.199 186.057H710.614V263.014H843.199V186.057Z" fill="#FAF1B0"/>
<path d="M748.794 162.638H728.275V186.058H748.794V162.638Z" fill="#FAF1B0"/>
<path d="M824.258 162.638H761.848V186.058H824.258V162.638Z" fill="#FAF1B0"/>
<path d="M713.814 292.961H699.225V836.182H713.814V292.961Z" fill="#FAF1B0"/>
<path d="M749.007 292.961H734.418V836.182H749.007V292.961Z" fill="#FAF1B0"/>
<path d="M784.201 292.961H769.611V836.182H784.201V292.961Z" fill="#FAF1B0"/>
<path d="M819.395 292.961H804.806V836.182H819.395V292.961Z" fill="#FAF1B0"/>
<path d="M854.631 292.961H840.042V836.182H854.631V292.961Z" fill="#FAF1B0"/>
<path d="M619.324 13.458H431.069V878.883H619.324V13.458Z" fill="url(#paint3_linear_864_3071)"/>
<path d="M600.811 45.1533H449.499V60.8519H600.811V45.1533Z" fill="#8BFEFF"/>
<path d="M600.811 69.1719H449.499V84.8705H600.811V69.1719Z" fill="#8BFEFF"/>
<path d="M600.811 93.1445H449.499V108.843H600.811V93.1445Z" fill="#8BFEFF"/>
<path d="M600.811 117.162H449.499V132.861H600.811V117.162Z" fill="#8BFEFF"/>
<path d="M600.811 141.138H449.499V156.836H600.811V141.138Z" fill="#8BFEFF"/>
<path d="M600.811 165.153H449.499V180.852H600.811V165.153Z" fill="#8BFEFF"/>
<path d="M600.811 189.129H449.499V204.827H600.811V189.129Z" fill="#8BFEFF"/>
<path d="M600.811 213.146H449.499V228.844H600.811V213.146Z" fill="#8BFEFF"/>
<path d="M600.811 237.119H449.499V252.818H600.811V237.119Z" fill="#8BFEFF"/>
<path d="M600.811 261.137H449.499V276.835H600.811V261.137Z" fill="#8BFEFF"/>
<path d="M600.811 285.11H449.499V300.809H600.811V285.11Z" fill="#8BFEFF"/>
<path d="M600.811 309.129H449.499V324.827H600.811V309.129Z" fill="#8BFEFF"/>
<path d="M600.811 333.103H449.499V348.801H600.811V333.103Z" fill="#8BFEFF"/>
<path d="M600.811 357.119H449.499V372.818H600.811V357.119Z" fill="#8BFEFF"/>
<path d="M600.811 381.095H449.499V396.793H600.811V381.095Z" fill="#8BFEFF"/>
<path d="M900.79 220.439H889.485V877.56H900.79V220.439Z" fill="url(#paint4_linear_864_3071)"/>
<path d="M222.595 0.276367H143.078V877.56H222.595V0.276367Z" fill="url(#paint5_linear_864_3071)"/>
<path d="M1920 323.505H1828.88V877.604H1920V323.505Z" fill="url(#paint6_linear_864_3071)"/>
<path d="M302.282 878.882C275.066 878.882 253.011 856.827 253.011 829.611V235.37C253.011 208.153 275.066 186.099 302.282 186.099C329.499 186.099 351.553 208.153 351.553 235.37V829.611C351.553 856.785 329.499 878.882 302.282 878.882Z" fill="url(#paint7_linear_864_3071)"/>
<path d="M1032.44 878.882H933.851V159.394C933.851 104.961 977.96 60.8086 1032.44 60.8086V878.882Z" fill="url(#paint8_linear_864_3071)"/>
<path d="M1810.66 224.535H1573.61V878.883H1810.66V224.535Z" fill="url(#paint9_linear_864_3071)"/>
<path d="M1773.55 117.759H1610.72V224.492H1773.55V117.759Z" fill="url(#paint10_linear_864_3071)"/>
<path d="M1743.65 117.759H1640.67V96.6429C1640.67 68.1892 1663.7 45.1533 1692.16 45.1533C1720.61 45.1533 1743.65 68.1892 1743.65 96.6429V117.759Z" fill="url(#paint11_linear_864_3071)"/>
<path d="M151.994 878.882H0V359.807C83.9531 359.807 152.037 427.848 152.037 511.844V878.882H151.994Z" fill="url(#paint12_linear_864_3071)"/>
<path d="M1333.22 878.882H1181.19V359.807C1265.14 359.807 1333.22 427.848 1333.22 511.844V878.882Z" fill="url(#paint13_linear_864_3071)"/>
</g>
<defs>
<linearGradient id="paint0_linear_864_3071" x1="1448.73" y1="403.339" x2="1448.73" y2="878.404" gradientUnits="userSpaceOnUse">
<stop stop-color="#8BFEFF"/>
<stop offset="0.999" stop-color="#C859F6" stop-opacity="0"/>
</linearGradient>
<linearGradient id="paint1_linear_864_3071" x1="1188.81" y1="68.4612" x2="1188.81" y2="4091.3" gradientUnits="userSpaceOnUse">
<stop offset="0.00030185" stop-color="#8745F1"/>
<stop offset="0.999" stop-color="#C859F6" stop-opacity="0"/>
</linearGradient>
<linearGradient id="paint2_linear_864_3071" x1="776.923" y1="411.122" x2="776.923" y2="878.413" gradientUnits="userSpaceOnUse">
<stop stop-color="#FAF1B0"/>
<stop offset="0.999" stop-color="#C859F6" stop-opacity="0"/>
</linearGradient>
<linearGradient id="paint3_linear_864_3071" x1="525" y1="13" x2="525.179" y2="878.23" gradientUnits="userSpaceOnUse">
<stop stop-color="#8BFEFF"/>
<stop offset="0.999" stop-color="#C859F6" stop-opacity="0"/>
</linearGradient>
<linearGradient id="paint4_linear_864_3071" x1="895.142" y1="165.058" x2="895.142" y2="3707.64" gradientUnits="userSpaceOnUse">
<stop offset="0.00030185" stop-color="#8745F1"/>
<stop offset="0.999" stop-color="#C859F6" stop-opacity="0"/>
</linearGradient>
<linearGradient id="paint5_linear_864_3071" x1="182.821" y1="-73.6655" x2="182.821" y2="4655.79" gradientUnits="userSpaceOnUse">
<stop offset="0.00030185" stop-color="#8745F1"/>
<stop offset="0.999" stop-color="#C859F6" stop-opacity="0"/>
</linearGradient>
<linearGradient id="paint6_linear_864_3071" x1="1874.44" y1="276.784" x2="1874.44" y2="3263.89" gradientUnits="userSpaceOnUse">
<stop offset="0.00030185" stop-color="#8745F1"/>
<stop offset="0.999" stop-color="#C859F6" stop-opacity="0"/>
</linearGradient>
<linearGradient id="paint7_linear_864_3071" x1="302.269" y1="352.668" x2="302.269" y2="878.356" gradientUnits="userSpaceOnUse">
<stop stop-color="#C859F6"/>
<stop offset="0.999" stop-color="#C859F6" stop-opacity="0"/>
</linearGradient>
<linearGradient id="paint8_linear_864_3071" x1="983.15" y1="257.578" x2="983.15" y2="878.264" gradientUnits="userSpaceOnUse">
<stop stop-color="#C859F6"/>
<stop offset="0.999" stop-color="#C859F6" stop-opacity="0"/>
</linearGradient>
<linearGradient id="paint9_linear_864_3071" x1="1692.13" y1="105.536" x2="1692.13" y2="888.442" gradientUnits="userSpaceOnUse">
<stop stop-color="#C859F6"/>
<stop offset="0.999" stop-color="#C859F6" stop-opacity="0"/>
</linearGradient>
<linearGradient id="paint10_linear_864_3071" x1="1692.13" y1="108.779" x2="1692.13" y2="684.233" gradientUnits="userSpaceOnUse">
<stop stop-color="#C859F6"/>
<stop offset="0.999" stop-color="#C859F6" stop-opacity="0"/>
</linearGradient>
<linearGradient id="paint11_linear_864_3071" x1="1692.13" y1="107.842" x2="1692.13" y2="890.751" gradientUnits="userSpaceOnUse">
<stop stop-color="#C859F6"/>
<stop offset="0.999" stop-color="#C859F6" stop-opacity="0"/>
</linearGradient>
<linearGradient id="paint12_linear_864_3071" x1="76.0057" y1="484.643" x2="76.0057" y2="878.484" gradientUnits="userSpaceOnUse">
<stop stop-color="#FAF1B0"/>
<stop offset="0.999" stop-color="#C859F6" stop-opacity="0"/>
</linearGradient>
<linearGradient id="paint13_linear_864_3071" x1="1257.19" y1="484.643" x2="1257.19" y2="878.484" gradientUnits="userSpaceOnUse">
<stop stop-color="#FAF1B0"/>
<stop offset="0.999" stop-color="#C859F6" stop-opacity="0"/>
</linearGradient>
</defs>
</svg>
