<svg width="713" height="547" viewBox="0 0 713 547" fill="none" xmlns="http://www.w3.org/2000/svg">
<path d="M533.444 57.8193H591.86C594.413 57.8193 596.648 60.0538 596.648 62.6075V532.965C596.648 535.679 594.413 537.754 591.86 537.754H29.4093C26.8556 537.754 24.6211 535.679 24.6211 532.965V62.6075C24.6211 60.0538 26.8556 57.8193 29.4093 57.8193H98.9973" stroke="white" stroke-miterlimit="10" stroke-linecap="round" stroke-linejoin="round"/>
<path d="M197.473 57.8193H342.235" stroke="white" stroke-miterlimit="10" stroke-linecap="round" stroke-linejoin="round"/>
<path d="M121.981 177.843H68.832V177.364C68.832 177.045 68.832 176.726 68.832 176.566C69.1512 154.86 79.2064 134.909 95.3266 120.385C95.8054 120.066 96.1246 119.587 96.6034 119.108C97.5611 118.151 98.5187 117.193 99.4763 116.235C104.105 111.288 108.414 105.223 111.287 97.8807C111.606 97.2423 111.766 96.6039 112.085 95.9654C114 90.5388 115.118 84.3142 115.118 77.4512L116.395 97.0827V97.2423L121.981 177.843Z" fill="#FFAD28" stroke="#262626" stroke-miterlimit="10" stroke-linecap="round" stroke-linejoin="round"/>
<path d="M186.621 77.6113C186.621 97.4024 196.038 111.129 206.412 120.386C222.692 135.069 232.907 155.499 232.907 177.365V177.844H179.758" fill="#FFAD28"/>
<path d="M186.621 77.6113C186.621 97.4024 196.038 111.129 206.412 120.386C222.692 135.069 232.907 155.499 232.907 177.365V177.844H179.758" stroke="#262626" stroke-miterlimit="10" stroke-linecap="round" stroke-linejoin="round"/>
<path opacity="0.5" d="M121.982 177.844H104.106C101.712 168.428 99.637 158.851 98.2005 149.275C96.7641 139.379 96.1256 129.165 96.6045 119.11C97.5621 118.152 98.5197 117.194 99.4774 116.237C104.106 111.289 108.415 105.224 111.288 97.882L116.396 97.084V97.2436L121.982 177.844Z" fill="#D0D2D3"/>
<path opacity="0.5" d="M179.758 177.844H197.634C200.028 168.428 202.103 158.851 203.539 149.275C204.976 139.379 205.614 129.165 205.135 119.11C204.177 118.152 203.22 117.194 202.262 116.237C197.634 111.289 193.324 105.224 190.451 97.882L185.344 97.084V97.2436L179.758 177.844Z" fill="#D0D2D3"/>
<path d="M168.426 203.699C168.426 236.897 160.605 289.248 150.869 289.248C141.133 289.248 133.312 236.418 133.312 203.699" fill="#FFAD28"/>
<path d="M159.489 203.699C159.489 219.819 155.659 245.356 150.871 245.356C146.083 245.356 142.252 219.66 142.252 203.699" fill="#FFAD28"/>
<path d="M170.98 205.136H130.76L126.77 186.143H174.97L170.98 205.136Z" fill="#262626" stroke="#262626" stroke-miterlimit="10" stroke-linecap="round" stroke-linejoin="round"/>
<path d="M178.801 42.4975H122.939C135.069 15.6837 150.392 1.47882 150.87 1C150.87 1 166.512 15.2049 178.801 42.4975Z" fill="#FFAD28" stroke="#262626" stroke-miterlimit="10" stroke-linecap="round" stroke-linejoin="round"/>
<path d="M178.003 193.804H123.737C97.8807 125.972 108.095 74.898 122.939 42.498H178.801C193.644 74.898 203.859 125.972 178.003 193.804Z" fill="white" stroke="#262626" stroke-miterlimit="10" stroke-linecap="round" stroke-linejoin="round"/>
<path d="M150.87 103.787C163.563 103.787 173.853 93.4968 173.853 80.8035C173.853 68.1103 163.563 57.8203 150.87 57.8203C138.177 57.8203 127.887 68.1103 127.887 80.8035C127.887 93.4968 138.177 103.787 150.87 103.787Z" fill="white" stroke="#262626" stroke-miterlimit="10" stroke-linecap="round" stroke-linejoin="round"/>
<path d="M150.87 96.923C159.773 96.923 166.99 89.7057 166.99 80.8028C166.99 71.8999 159.773 64.6826 150.87 64.6826C141.967 64.6826 134.75 71.8999 134.75 80.8028C134.75 89.7057 141.967 96.923 150.87 96.923Z" fill="#262626" stroke="#262626" stroke-miterlimit="10" stroke-linecap="round" stroke-linejoin="round"/>
<path opacity="0.5" d="M152.147 193.804H123.737C97.8807 125.971 108.095 74.8974 122.939 42.4975C135.069 15.6837 150.391 1.47882 150.87 1C150.71 1.47882 145.443 17.7586 141.134 42.4975C134.111 82.0797 129.483 143.368 152.147 193.804Z" fill="#D0D2D3"/>
<path d="M129.163 209.765C128.365 230.833 126.769 251.741 124.534 272.649C122.3 293.079 119.267 313.508 115.437 333.778C111.766 353.25 107.456 372.562 102.189 391.556C97.2415 409.751 91.4957 427.946 84.9518 445.662C78.8868 462.261 71.8642 478.7 64.0435 494.661C63.0859 496.576 62.1282 498.491 61.1706 500.407C60.6918 501.364 62.1282 502.162 62.607 501.205C70.5873 485.563 77.61 469.443 83.8346 453.004C90.538 435.447 96.4434 417.412 101.551 399.376C106.977 380.223 111.606 360.911 115.437 341.439C119.427 321.329 122.619 301.059 125.013 280.789C127.567 259.881 129.322 238.813 130.28 217.745C130.439 215.032 130.439 212.478 130.599 209.765C130.759 208.647 129.163 208.647 129.163 209.765Z" fill="white"/>
<path d="M170.82 210.881C172.097 230.672 173.852 250.463 176.087 270.254C178.321 289.567 180.875 308.879 184.067 328.032C187.1 346.865 190.611 365.699 194.601 384.372C198.432 402.408 202.741 420.443 207.689 438.319C212.317 455.557 217.425 472.634 223.17 489.553C223.809 491.628 224.607 493.543 225.245 495.618C225.564 496.575 227.161 496.096 226.841 495.139C221.096 478.38 215.988 461.622 211.2 444.544C206.252 426.828 201.943 409.111 197.953 391.076C193.803 372.562 190.292 354.047 187.1 335.374C183.907 316.061 181.035 296.589 178.8 277.117C176.406 257.486 174.65 237.854 173.214 218.063C173.054 215.669 172.895 213.116 172.735 210.722C172.256 209.924 170.66 209.924 170.82 210.881Z" fill="white"/>
<path d="M177.843 208.168C179.918 225.086 184.068 241.845 190.931 257.327C192.687 261.157 194.602 264.988 196.677 268.659C197.156 269.616 198.592 268.818 198.113 267.861C189.973 254.134 185.026 238.653 181.833 223.171C180.876 218.223 179.918 213.275 179.28 208.168C179.28 207.051 177.684 207.051 177.843 208.168Z" fill="white"/>
<path d="M124.214 207.848C122.618 214.073 120.543 220.297 118.149 226.203C117.83 227.16 119.267 227.639 119.745 226.682C122.139 220.776 124.214 214.552 125.81 208.327C126.13 207.369 124.534 206.891 124.214 207.848Z" fill="white"/>
<path d="M150.871 499.926C150.871 518.919 139.061 535.039 122.462 541.583C117.354 543.498 111.928 544.615 106.182 544.615C94.5306 544.615 83.9966 540.147 76.0163 532.964C67.0784 524.824 61.4922 513.014 61.4922 499.926C61.4922 476.783 79.2084 457.63 101.713 455.396C103.149 455.236 104.745 455.236 106.182 455.236C111.928 455.236 117.514 456.354 122.462 458.269C139.061 464.653 150.871 480.933 150.871 499.926Z" fill="white" stroke="#262626" stroke-miterlimit="10" stroke-linecap="round" stroke-linejoin="round"/>
<path d="M289.952 396.317C303.041 383.228 303.041 362.006 289.952 348.917C276.862 335.828 255.641 335.828 242.552 348.917C229.462 362.006 229.462 383.228 242.552 396.317C255.641 409.406 276.862 409.406 289.952 396.317Z" fill="white" stroke="#262626" stroke-miterlimit="10" stroke-linecap="round" stroke-linejoin="round"/>
<path opacity="0.5" d="M274.405 405.122C271.851 405.76 269.138 406.079 266.265 406.079C247.751 406.079 232.748 391.076 232.748 372.562C232.748 354.048 247.751 339.045 266.265 339.045C268.979 339.045 271.692 339.364 274.405 340.003C259.881 343.673 249.028 356.761 249.028 372.403C249.028 388.363 259.721 401.451 274.405 405.122Z" fill="#D0D2D3"/>
<path d="M24.6216 477.423C37.6675 477.423 48.2433 466.847 48.2433 453.801C48.2433 440.755 37.6675 430.18 24.6216 430.18C11.5758 430.18 1 440.755 1 453.801C1 466.847 11.5758 477.423 24.6216 477.423Z" fill="white" stroke="#262626" stroke-miterlimit="10" stroke-linecap="round" stroke-linejoin="round"/>
<path opacity="0.5" d="M33.2403 475.827C30.527 476.944 27.6541 477.423 24.6216 477.423C11.534 477.423 1 466.889 1 453.801C1 440.714 11.534 430.18 24.6216 430.18C27.6541 430.18 30.527 430.818 33.2403 431.776C24.462 435.287 18.2374 443.746 18.2374 453.801C18.2374 463.856 24.462 472.316 33.2403 475.827Z" fill="#D0D2D3"/>
<path d="M188.696 518.122C188.696 527.22 184.068 535.2 177.045 539.988C172.736 542.861 167.628 544.617 162.202 544.617C147.518 544.617 135.707 532.806 135.707 518.122C135.707 503.439 147.518 491.628 162.202 491.628C164.117 491.628 165.873 491.788 167.628 492.266C179.599 494.82 188.696 505.354 188.696 518.122Z" fill="white" stroke="#262626" stroke-miterlimit="10" stroke-linecap="round" stroke-linejoin="round"/>
<path opacity="0.5" d="M171.139 543.021C168.267 543.979 165.234 544.617 162.202 544.617C147.677 544.617 135.707 532.806 135.707 518.122C135.707 503.439 147.518 491.628 162.202 491.628C164.117 491.628 165.873 491.788 167.628 492.266C168.905 492.586 170.022 492.905 171.139 493.224C160.925 496.895 153.742 506.631 153.742 518.122C153.742 529.614 160.925 539.35 171.139 543.021Z" fill="#D0D2D3"/>
<path d="M211.999 432.733C220.02 432.733 226.523 426.23 226.523 418.209C226.523 410.187 220.02 403.685 211.999 403.685C203.977 403.685 197.475 410.187 197.475 418.209C197.475 426.23 203.977 432.733 211.999 432.733Z" fill="white" stroke="#262626" stroke-miterlimit="10" stroke-linecap="round" stroke-linejoin="round"/>
<path opacity="0.5" d="M218.543 430.977C216.627 431.935 214.233 432.573 211.999 432.573C204.018 432.573 197.475 426.189 197.475 418.209C197.475 410.228 204.018 403.685 211.999 403.685C214.393 403.685 216.627 404.323 218.543 405.281C213.914 407.675 210.722 412.463 210.722 418.209C210.722 423.954 213.914 428.583 218.543 430.977Z" fill="#D0D2D3"/>
<path d="M100.085 361.61C101.929 353.894 97.1682 346.144 89.4522 344.301C81.7363 342.457 73.9867 347.217 72.143 354.933C70.2993 362.649 75.0597 370.399 82.7756 372.243C90.4915 374.086 98.2411 369.326 100.085 361.61Z" fill="white" stroke="#262626" stroke-miterlimit="10" stroke-linecap="round" stroke-linejoin="round"/>
<path opacity="0.5" d="M93.2538 370.647C91.1789 371.924 88.6252 372.562 86.0715 372.562C78.0913 372.562 71.707 366.178 71.707 358.198C71.707 350.377 78.0913 343.833 86.0715 343.833C88.6252 343.833 91.1789 344.471 93.2538 345.748C88.9444 348.142 86.0715 352.771 86.0715 358.198C86.0715 363.624 88.9444 368.253 93.2538 370.647Z" fill="#D0D2D3"/>
<path d="M70.5893 213.596C70.5893 222.534 57.9805 222.534 57.9805 231.472C57.9805 240.409 70.5893 240.409 70.5893 249.347C70.5893 258.285 57.9805 258.285 57.9805 267.223C57.9805 276.161 70.5893 276.161 70.5893 285.099C70.5893 294.037 57.9805 294.037 57.9805 302.975" stroke="white" stroke-miterlimit="10" stroke-linecap="round" stroke-linejoin="round"/>
<path d="M250.146 196.995V246.154" stroke="white" stroke-miterlimit="10" stroke-linecap="round" stroke-linejoin="round"/>
<path d="M274.725 221.574H225.566" stroke="white" stroke-miterlimit="10" stroke-linecap="round" stroke-linejoin="round"/>
<path d="M262.117 209.604L238.176 233.704" stroke="white" stroke-miterlimit="10" stroke-linecap="round" stroke-linejoin="round"/>
<path d="M262.117 233.704L238.176 209.604" stroke="white" stroke-miterlimit="10" stroke-linecap="round" stroke-linejoin="round"/>
<path d="M701.987 234.821L630.963 510.78C630.005 514.291 626.972 516.685 623.301 516.685H612.448C616.119 516.685 619.152 514.291 620.109 510.78L691.134 234.821C692.411 229.874 688.58 224.926 683.473 224.926H694.166C699.433 224.926 703.264 229.874 701.987 234.821Z" fill="white" stroke="#262626" stroke-miterlimit="10" stroke-linecap="round" stroke-linejoin="round"/>
<path d="M691.293 234.821L620.268 510.78C619.311 514.291 616.278 516.685 612.607 516.685H238.172C233.065 516.685 229.234 511.737 230.511 506.789L271.53 347.663L301.536 230.831C302.493 227.32 305.685 224.926 309.197 224.926H683.472C688.739 224.926 692.57 229.874 691.293 234.821Z" fill="white" stroke="#262626" stroke-miterlimit="10" stroke-linecap="round" stroke-linejoin="round"/>
<path d="M681.4 234.503L611.173 507.109H240.409L280.789 350.057L310.476 234.503H681.4Z" fill="#262626" stroke="#262626" stroke-miterlimit="10" stroke-linecap="round" stroke-linejoin="round"/>
<path d="M521.635 75.3762H355.485C352.453 75.3762 350.059 72.9821 350.059 69.9496V6.42658C350.059 3.39408 352.453 1 355.485 1H521.635C524.667 1 527.061 3.39408 527.061 6.42658V69.9496C527.061 72.9821 524.667 75.3762 521.635 75.3762Z" stroke="white" stroke-miterlimit="10" stroke-linecap="round" stroke-linejoin="round"/>
<path d="M388.045 20.6309H438.48" stroke="white" stroke-miterlimit="10" stroke-linecap="round" stroke-linejoin="round"/>
<path d="M388.045 38.1875H489.075" stroke="white" stroke-miterlimit="10" stroke-linecap="round" stroke-linejoin="round"/>
<path d="M388.045 55.7441H489.075" stroke="white" stroke-miterlimit="10" stroke-linecap="round" stroke-linejoin="round"/>
<path d="M641.976 511.259C647.243 516.047 654.425 518.601 661.448 518.441C665.119 518.282 668.63 517.643 671.822 516.207C675.014 514.771 678.845 512.536 679.802 508.865C680.6 505.513 678.525 502.321 675.014 502.321C671.662 502.321 669.268 504.875 668.949 508.067C668.63 511.738 671.184 515.09 674.376 516.845C677.568 518.601 681.239 519.239 684.75 519.08C691.932 518.92 699.753 515.728 702.785 508.706C703.264 507.748 701.828 506.95 701.349 507.907C699.115 513.174 693.848 516.207 688.421 517.165C685.548 517.643 682.675 517.643 679.802 517.005C676.61 516.367 673.099 514.93 671.503 512.057C670.066 509.504 670.066 505.513 673.258 504.237C674.376 503.758 675.812 503.758 676.929 504.237C678.366 505.035 678.845 506.79 678.366 508.386C677.568 511.578 673.897 513.653 671.024 514.771C668.151 516.047 665.119 516.686 662.086 516.845C655.223 517.165 648.2 514.93 643.093 510.142C642.295 509.344 641.178 510.461 641.976 511.259Z" fill="white"/>
<path d="M592.819 494.66H265.308C261.158 494.66 258.764 491.308 259.722 487.159L320.053 254.454C321.17 250.304 325.32 246.952 329.469 246.952H656.821C660.97 246.952 663.365 250.304 662.407 254.454L602.076 487.159C601.118 491.308 596.809 494.66 592.819 494.66Z" fill="white" stroke="#262626" stroke-miterlimit="10" stroke-linecap="round" stroke-linejoin="round"/>
<path d="M657.14 274.724H314.786L320.213 253.975C321.17 250.144 325.16 246.952 329.151 246.952H657.459C661.29 246.952 663.684 250.144 662.726 253.975L657.14 274.724Z" fill="#D0D2D3" stroke="#262626" stroke-miterlimit="10" stroke-linecap="round" stroke-linejoin="round"/>
<path d="M340.271 263.31C342.058 261.739 342.517 259.338 341.295 257.948C340.073 256.557 337.633 256.703 335.846 258.275C334.058 259.846 333.599 262.246 334.821 263.637C336.043 265.028 338.483 264.881 340.271 263.31Z" fill="#262626" stroke="#262626" stroke-miterlimit="10" stroke-linecap="round" stroke-linejoin="round"/>
<path d="M356.762 260.837C356.283 262.912 354.048 264.668 351.973 264.668C349.899 264.668 348.622 262.912 349.101 260.837C349.579 258.762 351.814 257.007 353.889 257.007C356.123 257.007 357.4 258.762 356.762 260.837Z" fill="#262626" stroke="#262626" stroke-miterlimit="10" stroke-linecap="round" stroke-linejoin="round"/>
<path d="M369.991 263.394C371.779 261.823 372.238 259.422 371.016 258.032C369.794 256.641 367.354 256.787 365.566 258.359C363.778 259.93 363.32 262.33 364.542 263.721C365.763 265.111 368.203 264.965 369.991 263.394Z" fill="#262626" stroke="#262626" stroke-miterlimit="10" stroke-linecap="round" stroke-linejoin="round"/>
<path d="M283.662 468.166C283.024 470.719 284.62 472.794 287.174 472.794H582.125C584.679 472.794 587.392 470.719 588.19 468.166L631.922 299.143C632.56 296.59 630.964 294.515 628.41 294.515H333.459C330.906 294.515 328.192 296.59 327.394 299.143L283.662 468.166Z" fill="white"/>
<path d="M283.662 468.166C283.024 470.719 284.62 472.794 287.174 472.794H582.125C584.679 472.794 587.392 470.719 588.19 468.166L631.922 299.143C632.56 296.59 630.964 294.515 628.41 294.515H333.459C330.906 294.515 328.192 296.59 327.394 299.143L283.662 468.166Z" stroke="#262626" stroke-miterlimit="10" stroke-linecap="round" stroke-linejoin="round"/>
<path d="M312.869 422.199C312.231 424.753 313.827 426.827 316.381 426.827H438C440.554 426.827 443.267 424.753 444.065 422.199L471.677 315.742C472.315 313.188 470.719 311.113 468.166 311.113H346.546C343.992 311.113 341.279 313.188 340.481 315.742L312.869 422.199Z" fill="#D0D2D3"/>
<path d="M312.869 422.199C312.231 424.753 313.827 426.827 316.381 426.827H438C440.554 426.827 443.267 424.753 444.065 422.199L471.677 315.742C472.315 313.188 470.719 311.113 468.166 311.113H346.546C343.992 311.113 341.279 313.188 340.481 315.742L312.869 422.199Z" stroke="#262626" stroke-miterlimit="10" stroke-linecap="round" stroke-linejoin="round"/>
<path d="M453.8 452.845C453.162 455.398 454.758 457.473 457.471 457.473H569.195C571.749 457.473 574.462 455.398 575.101 452.845L589.146 398.259C589.784 395.706 588.188 393.631 585.475 393.631H473.751C471.197 393.631 468.484 395.706 467.846 398.259L453.8 452.845Z" fill="#D0D2D3"/>
<path d="M453.8 452.845C453.162 455.398 454.758 457.473 457.471 457.473H569.195C571.749 457.473 574.462 455.398 575.101 452.845L589.146 398.259C589.784 395.706 588.188 393.631 585.475 393.631H473.751C471.197 393.631 468.484 395.706 467.846 398.259L453.8 452.845Z" stroke="#262626" stroke-miterlimit="10" stroke-linecap="round" stroke-linejoin="round"/>
<path d="M475.666 368.572H507.747" stroke="#262626" stroke-miterlimit="10" stroke-linecap="round" stroke-linejoin="round"/>
<path d="M478.857 356.282H494.18" stroke="#262626" stroke-miterlimit="10" stroke-linecap="round" stroke-linejoin="round"/>
<path d="M472.315 380.702H504.396" stroke="#262626" stroke-miterlimit="10" stroke-linecap="round" stroke-linejoin="round"/>
<path d="M303.932 456.196H435.766" stroke="#262626" stroke-miterlimit="10" stroke-linecap="round" stroke-linejoin="round"/>
<path d="M307.124 443.906H372.562" stroke="#262626" stroke-miterlimit="10" stroke-linecap="round" stroke-linejoin="round"/>
<path d="M520.357 368.571H552.279" stroke="#262626" stroke-miterlimit="10" stroke-linecap="round" stroke-linejoin="round"/>
<path d="M523.388 356.281H538.869" stroke="#262626" stroke-miterlimit="10" stroke-linecap="round" stroke-linejoin="round"/>
<path d="M517.004 380.702H549.085" stroke="#262626" stroke-miterlimit="10" stroke-linecap="round" stroke-linejoin="round"/>
<path d="M564.567 368.571H596.648" stroke="#262626" stroke-miterlimit="10" stroke-linecap="round" stroke-linejoin="round"/>
<path d="M567.76 356.281H583.082" stroke="#262626" stroke-miterlimit="10" stroke-linecap="round" stroke-linejoin="round"/>
<path d="M561.216 380.702H593.297" stroke="#262626" stroke-miterlimit="10" stroke-linecap="round" stroke-linejoin="round"/>
<path d="M559.939 338.565C559.3 341.119 556.587 343.194 553.874 343.194H531.21C528.656 343.194 526.9 341.119 527.698 338.565L533.604 315.742C534.242 313.188 536.955 311.113 539.669 311.113H562.333C564.886 311.113 566.642 313.188 565.844 315.742L559.939 338.565Z" fill="#FFAD28"/>
<path d="M559.939 338.565C559.3 341.119 556.587 343.194 553.874 343.194H531.21C528.656 343.194 526.9 341.119 527.698 338.565L533.604 315.742C534.242 313.188 536.955 311.113 539.669 311.113H562.333C564.886 311.113 566.642 313.188 565.844 315.742L559.939 338.565Z" stroke="#262626" stroke-miterlimit="10" stroke-linecap="round" stroke-linejoin="round"/>
<path d="M515.568 338.565C514.93 341.119 512.217 343.194 509.503 343.194H486.839C484.286 343.194 482.53 341.119 483.328 338.565L489.234 315.742C489.872 313.188 492.585 311.113 495.299 311.113H517.963C520.516 311.113 522.272 313.188 521.474 315.742L515.568 338.565Z" fill="#FFAD28"/>
<path d="M515.568 338.565C514.93 341.119 512.217 343.194 509.503 343.194H486.839C484.286 343.194 482.53 341.119 483.328 338.565L489.234 315.742C489.872 313.188 492.585 311.113 495.299 311.113H517.963C520.516 311.113 522.272 313.188 521.474 315.742L515.568 338.565Z" stroke="#262626" stroke-miterlimit="10" stroke-linecap="round" stroke-linejoin="round"/>
<path d="M604.311 338.565C603.673 341.119 600.959 343.194 598.246 343.194H575.742C573.028 343.194 571.432 341.119 572.23 338.565L578.136 315.742C578.774 313.188 581.487 311.113 584.201 311.113H606.865C609.418 311.113 611.174 313.188 610.376 315.742L604.311 338.565Z" fill="#FFAD28"/>
<path d="M604.311 338.565C603.673 341.119 600.959 343.194 598.246 343.194H575.742C573.028 343.194 571.432 341.119 572.23 338.565L578.136 315.742C578.774 313.188 581.487 311.113 584.201 311.113H606.865C609.418 311.113 611.174 313.188 610.376 315.742L604.311 338.565Z" stroke="#262626" stroke-miterlimit="10" stroke-linecap="round" stroke-linejoin="round"/>
<path d="M259.241 128.844C282.863 128.844 282.863 162.042 306.644 162.042C330.266 162.042 330.266 128.844 354.047 128.844C377.669 128.844 377.669 162.042 401.45 162.042C425.231 162.042 425.231 128.844 448.853 128.844C472.634 128.844 472.634 162.042 496.256 162.042" stroke="white" stroke-miterlimit="10" stroke-linecap="round" stroke-linejoin="round"/>
<path d="M689.058 91.1777H538.071V199.71H689.058V91.1777Z" fill="#FFAD28" stroke="#262626" stroke-miterlimit="10" stroke-linecap="round" stroke-linejoin="round"/>
<path d="M538.071 91.1777L613.565 151.189L687.303 92.4546" fill="white"/>
<path d="M689.058 91.1777H538.071V199.71H689.058V91.1777Z" stroke="#262626" stroke-miterlimit="10" stroke-linecap="round" stroke-linejoin="round"/>
<path d="M538.071 199.709L599.041 139.697" stroke="#262626" stroke-miterlimit="10" stroke-linecap="round" stroke-linejoin="round"/>
<path d="M689.06 199.709L628.889 140.655" stroke="#262626" stroke-miterlimit="10" stroke-linecap="round" stroke-linejoin="round"/>
<path d="M538.071 91.1777L613.565 151.189L687.303 92.4546" stroke="#262626" stroke-miterlimit="10" stroke-linecap="round" stroke-linejoin="round"/>
<path d="M684.432 85.113C685.549 81.4421 687.624 78.4096 690.497 75.8559C690.018 75.8559 689.699 75.6963 689.22 75.6963C691.455 78.8884 690.337 83.1977 692.253 86.7091C693.051 88.1455 694.327 89.2628 695.923 89.4224C697.679 89.7416 699.435 89.1032 701.031 88.3051C701.989 87.8263 705.819 85.4322 706.617 87.0283C707.096 87.8263 705.819 88.9435 705.181 89.4224C704.542 90.0608 703.744 90.6992 703.265 91.4972C702.627 92.9337 703.265 94.3701 704.542 95.1682C705.181 95.647 705.979 95.647 706.936 95.8066C708.054 95.9662 709.49 95.8066 710.288 96.7642C711.246 97.8815 709.65 98.5199 708.692 98.9987C707.415 99.6371 706.138 100.116 704.702 100.754C702.148 101.872 699.754 102.989 697.2 104.106C696.243 104.585 697.041 105.862 697.998 105.543C700.392 104.425 702.787 103.468 705.181 102.35C706.298 101.872 707.415 101.393 708.532 100.754C709.49 100.276 710.607 99.9563 711.405 99.1583C712.682 97.8815 712.044 95.9662 710.607 95.0086C709.809 94.5297 708.852 94.3701 707.894 94.3701C706.936 94.2105 705.659 94.3701 704.861 93.5721C703.904 92.6145 705.021 91.6568 705.659 91.0184C706.457 90.38 707.096 89.7416 707.575 88.9435C708.373 87.3475 707.894 85.4322 705.979 85.113C702.308 84.4746 698.477 89.9012 694.806 87.5071C693.051 86.3899 692.572 83.9958 692.253 81.9209C691.933 79.5268 691.774 76.9731 690.337 75.0578C690.018 74.579 689.539 74.579 689.06 74.8983C686.028 77.6116 683.793 80.9633 682.517 84.7938C682.676 85.7514 684.113 86.2302 684.432 85.113Z" fill="white"/>
<path d="M174.012 516.367C174.012 483.808 200.347 457.473 232.906 457.473C265.466 457.473 291.801 483.808 291.801 516.367" fill="white"/>
<path d="M174.012 516.367C174.012 483.808 200.347 457.473 232.906 457.473C265.466 457.473 291.801 483.808 291.801 516.367" stroke="#262626" stroke-miterlimit="10" stroke-linecap="round" stroke-linejoin="round"/>
<path opacity="0.5" d="M248.069 459.388C222.373 465.932 203.379 489.394 203.379 517.165H173.533C173.533 484.286 200.187 457.473 233.226 457.473C238.333 457.473 243.281 458.111 248.069 459.388Z" fill="#D0D2D3"/>
<path opacity="0.5" d="M108.416 532.964C112.406 536.635 117.194 539.668 122.301 541.583C117.194 543.498 111.767 544.615 106.022 544.615C94.3704 544.615 83.8364 540.147 75.8562 532.964C66.9182 524.824 61.332 513.014 61.332 499.926C61.332 476.783 79.0483 457.63 101.553 455.396C102.989 455.236 104.585 455.236 106.022 455.236C111.767 455.236 117.354 456.354 122.301 458.269C105.702 464.813 93.8916 480.933 93.8916 499.926C93.8916 513.014 99.4778 524.665 108.416 532.964Z" fill="#D0D2D3"/>
<path d="M88.9423 517.005C88.9423 532.168 76.6527 544.617 61.3305 544.617C48.7217 544.617 38.0281 536.158 34.836 524.507C34.1976 522.113 33.7188 519.719 33.7188 517.005C33.7188 504.556 42.0182 494.022 53.1906 490.67C55.7443 489.872 58.4576 489.394 61.1709 489.394C76.6527 489.553 88.9423 501.843 88.9423 517.005Z" fill="white" stroke="#262626" stroke-miterlimit="10" stroke-linecap="round" stroke-linejoin="round"/>
<path opacity="0.5" d="M72.0241 542.542C68.6724 543.979 65.1611 544.617 61.3305 544.617C48.7217 544.617 38.0281 536.158 34.836 524.507C34.1976 522.113 33.7188 519.719 33.7188 517.005C33.7188 504.556 42.0182 494.022 53.1906 490.67C55.7443 489.872 58.4576 489.394 61.1709 489.394C65.0015 489.394 68.5128 490.192 71.8645 491.628C61.969 495.778 54.9463 505.673 54.9463 517.005C54.9463 519.559 55.2655 522.113 55.9039 524.507C58.4576 532.647 64.363 539.191 72.0241 542.542Z" fill="#D0D2D3"/>
<path d="M311.112 545.735H16.6399C8.65962 545.735 2.27539 539.351 2.27539 531.37C2.27539 523.39 8.65962 517.006 16.6399 517.006H311.112C303.132 517.006 296.748 523.39 296.748 531.37C296.748 539.351 303.292 545.735 311.112 545.735Z" fill="#D0D2D3" stroke="#262626" stroke-miterlimit="10" stroke-linecap="round" stroke-linejoin="round"/>
<path d="M185.503 522.113C185.503 524.986 183.269 527.221 180.396 527.221H107.137C104.264 527.221 102.029 524.986 102.029 522.113C102.029 519.24 104.264 517.006 107.137 517.006H180.396C183.269 517.006 185.503 519.4 185.503 522.113Z" fill="#262626" stroke="#262626" stroke-miterlimit="10" stroke-linecap="round" stroke-linejoin="round"/>
<path d="M619.95 531.37C619.95 539.351 613.565 545.735 605.585 545.735H311.113C303.132 545.735 296.748 539.351 296.748 531.37C296.748 523.39 303.132 517.006 311.113 517.006H605.585C613.565 517.006 619.95 523.55 619.95 531.37Z" fill="white" stroke="#262626" stroke-miterlimit="10" stroke-linecap="round" stroke-linejoin="round"/>
<path d="M612.448 531.371C612.448 534.882 609.576 537.596 606.064 537.596C605.426 537.596 604.787 537.436 604.309 537.276C606.862 536.478 608.778 534.084 608.778 531.211C608.778 528.338 606.862 525.944 604.309 525.146C604.947 524.987 605.426 524.827 606.064 524.827C609.576 525.146 612.448 528.019 612.448 531.371Z" fill="#262626" stroke="#262626" stroke-miterlimit="10" stroke-linecap="round" stroke-linejoin="round"/>
<path d="M608.778 531.371C608.778 534.244 606.862 536.638 604.309 537.436C601.755 536.638 599.84 534.244 599.84 531.371C599.84 528.498 601.755 526.104 604.309 525.306C606.862 526.104 608.778 528.657 608.778 531.371Z" fill="#D0D2D3" stroke="#262626" stroke-miterlimit="10" stroke-linecap="round" stroke-linejoin="round"/>
<path d="M592.498 531.371C592.498 534.882 589.625 537.596 586.114 537.596C585.476 537.596 584.837 537.436 584.358 537.276C586.912 536.478 588.827 534.084 588.827 531.211C588.827 528.338 586.912 525.944 584.358 525.146C584.997 524.987 585.476 524.827 586.114 524.827C589.625 525.146 592.498 528.019 592.498 531.371Z" fill="#262626" stroke="#262626" stroke-miterlimit="10" stroke-linecap="round" stroke-linejoin="round"/>
<path d="M588.827 531.371C588.827 534.244 586.911 536.638 584.358 537.436C581.804 536.638 579.889 534.244 579.889 531.371C579.889 528.498 581.804 526.104 584.358 525.306C586.911 526.104 588.827 528.657 588.827 531.371Z" fill="#D0D2D3" stroke="#262626" stroke-miterlimit="10" stroke-linecap="round" stroke-linejoin="round"/>
<path d="M569.036 531.371C569.036 533.445 567.28 535.201 565.205 535.201H559.938C562.013 535.201 563.769 533.445 563.769 531.371C563.769 529.296 562.013 527.54 559.938 527.54H565.205C567.28 527.54 569.036 529.296 569.036 531.371Z" fill="#262626" stroke="#262626" stroke-miterlimit="10" stroke-linecap="round" stroke-linejoin="round"/>
<path d="M563.769 531.371C563.769 533.445 562.013 535.201 559.938 535.201H533.124C531.05 535.201 529.294 533.445 529.294 531.371C529.294 529.296 531.05 527.54 533.124 527.54H559.938C562.013 527.54 563.769 529.296 563.769 531.371Z" fill="#D0D2D3" stroke="#262626" stroke-miterlimit="10" stroke-linecap="round" stroke-linejoin="round"/>
<path d="M502.32 531.371C502.32 534.243 499.926 536.637 497.053 536.637H489.871C492.744 536.637 495.138 534.243 495.138 531.371C495.138 528.498 492.744 526.104 489.871 526.104H497.053C500.086 526.263 502.32 528.498 502.32 531.371Z" fill="#262626" stroke="#262626" stroke-miterlimit="10" stroke-linecap="round" stroke-linejoin="round"/>
<path d="M495.297 531.371C495.297 534.243 492.903 536.637 490.03 536.637H330.584C327.711 536.637 325.317 534.243 325.317 531.371C325.317 528.498 327.711 526.104 330.584 526.104H490.03C492.903 526.263 495.297 528.498 495.297 531.371Z" fill="#D0D2D3" stroke="#262626" stroke-miterlimit="10" stroke-linecap="round" stroke-linejoin="round"/>
<path d="M702.946 545.733H603.033" stroke="#262626" stroke-miterlimit="10" stroke-linecap="round" stroke-linejoin="round"/>
</svg>
