<svg width="41" height="39" viewBox="0 0 41 39" fill="none" xmlns="http://www.w3.org/2000/svg">
<circle cx="15.5" cy="23.5" r="15.5" fill="#E06AE9"/>
<path d="M19.0418 23.375L14.0834 28.3334M11.2501 31.1667L14.0834 28.3334L11.2501 31.1667ZM24.8643 17.5525C24.1328 16.8308 23.5513 15.9715 23.1533 15.0241C22.7553 14.0767 22.5486 13.0599 22.5451 12.0323C22.5417 11.0047 22.7416 9.98656 23.1332 9.03651C23.5249 8.08647 24.1006 7.22328 24.8272 6.49665C25.5539 5.77002 26.417 5.1943 27.3671 4.80265C28.3171 4.41099 29.3353 4.21113 30.3629 4.21457C31.3905 4.21801 32.4072 4.42469 33.3546 4.8227C34.302 5.22072 35.1614 5.80221 35.8831 6.53369C37.3024 8.00321 38.0878 9.9714 38.07 12.0144C38.0523 14.0573 37.2328 16.0116 35.7882 17.4562C34.3435 18.9008 32.3893 19.7203 30.3463 19.738C28.3034 19.7558 26.3352 18.9704 24.8657 17.5511L24.8643 17.5525ZM24.8643 17.5525L19.0418 23.375L24.8643 17.5525ZM19.0418 23.375L14.7918 19.125L9.83343 24.0834L14.0834 28.3334L19.0418 23.375Z" stroke="white" stroke-width="2" stroke-linecap="round" stroke-linejoin="round"/>
</svg>
