<svg width="93" height="43" viewBox="0 0 93 43" fill="none" xmlns="http://www.w3.org/2000/svg">
<path d="M0 2H38.2097L37.777 6.65181L0.562544 6.56526L0 2Z" fill="#7E44FE"/>
<path d="M7.09577 26.7519L19.5799 36.618L20.0658 39.4662L19.5799 42.1786L3.46084 29.4131L7.09577 26.7519Z" fill="#7E44FE"/>
<path d="M6.88014 24.3936L7.11814 26.8168L5.70058 28.5077L3.4616 29.4132L2.40125 21.0183L6.88014 24.3936Z" fill="#7E44FE"/>
<path d="M31.7403 26.8818L19.5807 36.6181L19.3426 39.3659L19.5807 42.1787L35.4617 29.3051L34.5034 25.1017L31.7403 26.8818Z" fill="#7E44FE"/>
<path d="M12.9394 22.0568H28.5392L27.003 26.1028H11.8359L12.9394 22.0568Z" fill="#7E44FE"/>
<path d="M0.550781 6.41833L5.12754 6.08936L5.97136 16.7561L2.05518 18.6168L0.550781 6.41833Z" fill="#7E44FE"/>
<path d="M2.05469 18.6169L5.92759 16.6479L13.2623 22.1003L11.8326 26.103L2.05469 18.6169Z" fill="#7E44FE"/>
<path d="M2.05469 18.6169L5.92759 16.6479L13.2623 22.1003L11.8326 26.103L2.05469 18.6169Z" fill="#7E44FE"/>
<path d="M33.8385 6.13948L37.8196 6.1759L36.7379 17.2321L33.0597 14.1597L33.8385 6.13948Z" fill="#7E44FE"/>
<rect x="11.7695" y="11.563" width="15.708" height="4.06763" fill="#7E44FE"/>
<path d="M27.4805 11.563L36.4349 18.9627L32.9947 21.3859L24.8236 14.8519L27.4805 11.563Z" fill="#7E44FE"/>
<path d="M36.4355 18.9627L35.4619 29.3048L31.7405 26.8816L32.3152 18.7463L36.4355 18.9627Z" fill="#7E44FE"/>
<path d="M6.66406 15.7822L11.7703 11.5632L14.5181 14.2245L9.88787 18.054L6.66406 15.7822Z" fill="#7E44FE"/>
<path d="M25.7461 22.0354L28.7319 19.5905L31.285 21.9921L27.001 26.103L25.7461 22.0354Z" fill="#7E44FE"/>
<path d="M48.6706 17.9758H44.4012L44.4282 15.1632H48.6706C49.7301 15.1632 50.6233 14.9508 51.3502 14.5261C52.0779 14.0934 52.6258 13.4644 52.9938 12.639C53.3709 11.8137 53.559 10.8161 53.559 9.64613V8.79271C53.559 7.89525 53.4517 7.1059 53.2363 6.4248C53.0293 5.7437 52.7195 5.1707 52.3069 4.70596C51.8935 4.24121 51.3865 3.8926 50.785 3.66026C50.1835 3.41982 49.492 3.29964 48.7107 3.29964H44.3204V0.475006H48.7107C50.0218 0.475006 51.2202 0.675311 52.3069 1.07599C53.4018 1.46864 54.3494 2.03354 55.1482 2.77075C55.9477 3.50797 56.5628 4.38945 56.9935 5.41512C57.4333 6.43283 57.6532 7.56667 57.6532 8.81672V9.64613C57.6532 10.8882 57.4333 12.022 56.9935 13.0477C56.5628 14.0734 55.9477 14.9549 55.1482 15.6921C54.3585 16.4213 53.4109 16.9862 52.3069 17.3869C51.2112 17.7795 49.9991 17.9758 48.6706 17.9758ZM46.6908 0.475006V17.9758H42.6504V0.475006H46.6908ZM67.8524 10.2952H62.8152L62.7887 7.81911H67.0174C67.7625 7.81911 68.3731 7.73494 68.8491 7.56667C69.3245 7.39038 69.6796 7.13801 69.9131 6.80943C70.1549 6.47289 70.2766 6.06418 70.2766 5.58338C70.2766 5.03852 70.1595 4.59778 69.926 4.26124C69.7015 3.9247 69.3471 3.68029 68.862 3.528C68.3867 3.37578 67.7716 3.29964 67.0174 3.29964H64.2162V17.9758H60.1756V0.475006H67.0174C68.1577 0.475006 69.1764 0.571179 70.0741 0.763458C70.9809 0.955805 71.7486 1.24824 72.3773 1.64089C73.0061 2.03354 73.4859 2.53039 73.8184 3.13137C74.1509 3.72433 74.3164 4.42951 74.3164 5.24685C74.3164 5.96808 74.1327 6.63313 73.7647 7.24214C73.405 7.85114 72.8353 8.348 72.0539 8.73262C71.2816 9.11725 70.2721 9.32962 69.0237 9.36968L67.8524 10.2952ZM67.6771 17.9758H61.7111L63.2867 15.1632H67.6771C68.3867 15.1632 68.9655 15.0631 69.4144 14.8627C69.8633 14.6544 70.1957 14.3739 70.4111 14.0213C70.6265 13.6688 70.7345 13.2641 70.7345 12.8073C70.7345 12.2945 70.6355 11.8498 70.4383 11.4732C70.2494 11.0965 69.9441 10.808 69.5224 10.6077C69.1 10.3993 68.5439 10.2952 67.8524 10.2952H63.96L63.9872 7.81911H68.8355L69.7643 8.79271C70.959 8.77666 71.9194 8.96496 72.6464 9.35761C73.3831 9.74224 73.9174 10.2431 74.2491 10.8601C74.5907 11.4771 74.7615 12.1382 74.7615 12.8434C74.7615 13.9652 74.4872 14.9108 73.9393 15.68C73.3922 16.4413 72.5882 17.0142 71.5287 17.3989C70.4784 17.7835 69.1945 17.9758 67.6771 17.9758ZM80.704 0.475006L84.3939 6.58106L88.0846 0.475006H92.704L87.007 9.15333L92.8521 17.9758H88.1919L84.3939 11.7496L80.5967 17.9758H75.9093L81.768 9.15333L76.0574 0.475006H80.704Z" fill="#7E44FE"/>
<path d="M45.7817 28.7236H43.5611L43.575 27.2729H45.7817C46.3325 27.2729 46.7976 27.1634 47.1759 26.9443C47.5542 26.7211 47.8388 26.3967 48.0306 25.971C48.2262 25.5453 48.3243 25.0307 48.3243 24.4273V23.9871C48.3243 23.5242 48.2685 23.1171 48.156 22.7658C48.0487 22.4145 47.8879 22.119 47.6727 21.8793C47.4583 21.6395 47.194 21.4597 46.8814 21.3399C46.5688 21.2159 46.209 21.1539 45.8027 21.1539H43.519V19.697H45.8027C46.4842 19.697 47.1079 19.8003 47.6727 20.007C48.2428 20.2095 48.7351 20.5008 49.1511 20.8811C49.5664 21.2614 49.8866 21.716 50.1108 22.2451C50.3396 22.77 50.4536 23.3547 50.4536 23.9995V24.4273C50.4536 25.0679 50.3396 25.6527 50.1108 26.1818C49.8866 26.7108 49.5664 27.1655 49.1511 27.5457C48.7404 27.9218 48.2473 28.2132 47.6727 28.4198C47.1034 28.6224 46.4729 28.7236 45.7817 28.7236ZM44.7519 19.697V28.7236H42.6504V19.697H44.7519ZM54.0002 19.697V28.7236H51.9056V19.697H54.0002ZM63.8372 24.0057V27.5829C63.6786 27.7523 63.4333 27.9363 63.1018 28.1347C62.7703 28.3289 62.3429 28.4963 61.8204 28.6368C61.2972 28.7773 60.6644 28.8476 59.9214 28.8476C59.263 28.8476 58.6635 28.7526 58.1213 28.5624C57.58 28.3682 57.1126 28.085 56.7207 27.7131C56.3326 27.3411 56.0336 26.8865 55.8237 26.3492C55.6138 25.8078 55.5088 25.1898 55.5088 24.4955V23.9313C55.5088 23.237 55.6092 22.6191 55.8101 22.0777C56.0155 21.5362 56.3069 21.0795 56.6852 20.7075C57.0635 20.3356 57.5143 20.0525 58.0375 19.8582C58.56 19.6639 59.1414 19.5668 59.7817 19.5668C60.6689 19.5668 61.3976 19.6949 61.9669 19.9512C62.537 20.2033 62.9711 20.5546 63.2702 21.0051C63.5737 21.4515 63.7602 21.964 63.8304 22.5426H61.7917C61.7404 22.2368 61.6422 21.9702 61.498 21.7429C61.353 21.5155 61.1454 21.3378 60.8743 21.2097C60.6085 21.0816 60.2627 21.0175 59.8376 21.0175C59.4873 21.0175 59.1747 21.0816 58.8991 21.2097C58.628 21.3337 58.3992 21.5176 58.2127 21.7614C58.0255 22.0054 57.8835 22.307 57.7853 22.6666C57.6872 23.0262 57.6381 23.4436 57.6381 23.919V24.4955C57.6381 24.9666 57.6895 25.3841 57.7921 25.7478C57.8948 26.1074 58.0466 26.4112 58.2474 26.6591C58.4528 26.903 58.705 27.0869 59.004 27.2109C59.303 27.3349 59.6511 27.3969 60.0475 27.3969C60.379 27.3969 60.6546 27.3721 60.8743 27.3225C61.0986 27.2729 61.2783 27.213 61.4134 27.1427C61.5539 27.0683 61.6611 26.9981 61.7359 26.9319V25.3324H59.8165V24.0057H63.8372ZM67.5521 19.697V28.7236H65.4576V19.697H67.5521ZM73.6554 19.697V28.7236H71.5608V19.697H73.6554ZM76.7934 19.697V21.1539H68.4718V19.697H76.7934ZM81.1668 21.2407L78.3927 28.7236H76.1584L79.9481 19.697H81.3699L81.1668 21.2407ZM83.4712 28.7236L80.6903 21.2407L80.4661 19.697H81.9022L85.713 28.7236H83.4712ZM83.3451 25.3634V26.8204H77.9585V25.3634H83.3451ZM93.0002 27.2729V28.7236H87.8657V27.2729H93.0002ZM88.5453 19.697V28.7236H86.4432V19.697H88.5453Z" fill="#7E44FE"/>
<path d="M47.118 35.3475V36.3215H43.5741V35.3475H47.118ZM44.0223 30.2608V36.3215H42.6504V30.2608H44.0223ZM46.6565 32.7292V33.6783H43.5741V32.7292H46.6565ZM47.1134 30.2608V31.239H43.5741V30.2608H47.1134ZM51.4035 34.311H52.7714C52.7435 34.7189 52.6203 35.0811 52.4005 35.3974C52.1838 35.7138 51.8809 35.9608 51.4904 36.1383C51.1037 36.3159 50.6369 36.4048 50.0908 36.4048C49.6641 36.4048 49.2819 36.3381 48.9435 36.205C48.6052 36.069 48.3151 35.8747 48.0742 35.6222C47.837 35.3697 47.655 35.0644 47.5304 34.7064C47.405 34.3485 47.3431 33.9475 47.3431 33.5035V33.0831C47.3431 32.639 47.4065 32.2381 47.5349 31.88C47.6656 31.5193 47.8521 31.2127 48.0931 30.9602C48.3363 30.7076 48.6278 30.5134 48.9662 30.3774C49.3046 30.2414 49.683 30.1734 50.1007 30.1734C50.655 30.1734 51.1233 30.265 51.504 30.4481C51.8885 30.6313 52.186 30.8839 52.396 31.2057C52.6098 31.5276 52.7374 31.8939 52.7805 32.3046H51.4081C51.393 32.0604 51.3394 31.8537 51.248 31.6844C51.1566 31.5124 51.0183 31.3833 50.8318 31.2973C50.649 31.2085 50.405 31.1641 50.1007 31.1641C49.8718 31.1641 49.6716 31.203 49.501 31.2807C49.3303 31.3584 49.1875 31.4763 49.0712 31.6345C48.9556 31.7926 48.8688 31.9924 48.8106 32.2339C48.7555 32.4725 48.7283 32.7528 48.7283 33.0747V33.5035C48.7283 33.817 48.754 34.0931 48.8061 34.3318C48.8582 34.5677 48.9375 34.7675 49.044 34.9312C49.1535 35.0921 49.294 35.2143 49.4647 35.2975C49.6384 35.378 49.8476 35.4182 50.0908 35.4182C50.3779 35.4182 50.6143 35.3766 50.8001 35.2934C50.9859 35.2101 51.1279 35.0866 51.2253 34.9229C51.3258 34.7592 51.3854 34.5552 51.4035 34.311ZM58.767 33.1496V33.4369C58.767 33.8975 58.6982 34.311 58.5608 34.6773C58.4241 35.0436 58.2299 35.3558 57.9799 35.6139C57.7299 35.8692 57.4316 36.0648 57.0842 36.2008C56.739 36.3368 56.3568 36.4048 55.9361 36.4048C55.5184 36.4048 55.1355 36.3368 54.788 36.2008C54.4436 36.0648 54.1445 35.8692 53.8915 35.6139C53.6385 35.3558 53.4421 35.0436 53.3016 34.6773C53.1649 34.311 53.0962 33.8975 53.0962 33.4369V33.1496C53.0962 32.6862 53.1649 32.2727 53.3016 31.9092C53.4391 31.5429 53.6324 31.2307 53.8824 30.9726C54.1355 30.7145 54.4346 30.5175 54.779 30.3816C55.1264 30.2456 55.5094 30.1776 55.927 30.1776C56.3477 30.1776 56.7299 30.2456 57.0743 30.3816C57.4225 30.5175 57.7209 30.7145 57.9709 30.9726C58.2239 31.2307 58.4195 31.5429 58.5562 31.9092C58.6967 32.2727 58.767 32.6862 58.767 33.1496ZM57.381 33.4369V33.1413C57.381 32.8194 57.3493 32.5364 57.2851 32.2922C57.2209 32.048 57.1264 31.8426 57.0018 31.6761C56.8764 31.5096 56.7239 31.3847 56.5441 31.3014C56.3643 31.2154 56.1582 31.1725 55.927 31.1725C55.6952 31.1725 55.489 31.2154 55.3092 31.3014C55.1325 31.3847 54.9814 31.5096 54.8568 31.6761C54.7344 31.8426 54.6415 32.048 54.5781 32.2922C54.5139 32.5364 54.4814 32.8194 54.4814 33.1413V33.4369C54.4814 33.756 54.5139 34.039 54.5781 34.286C54.6415 34.5302 54.7359 34.737 54.8613 34.9062C54.9859 35.0727 55.1385 35.199 55.3183 35.285C55.4988 35.371 55.7042 35.4141 55.9361 35.4141C56.168 35.4141 56.3734 35.371 56.5532 35.285C56.7329 35.199 56.884 35.0727 57.0064 34.9062C57.128 34.737 57.2209 34.5302 57.2851 34.286C57.3493 34.039 57.381 33.756 57.381 33.4369ZM62.8463 34.7356C62.8463 34.6273 62.8282 34.5302 62.7912 34.4442C62.758 34.3554 62.6938 34.2749 62.5993 34.2028C62.5049 34.1278 62.372 34.0543 62.2013 33.9822C62.0306 33.91 61.8101 33.835 61.5382 33.7574C61.2368 33.6685 60.9498 33.5686 60.6786 33.4577C60.4105 33.3467 60.1726 33.2176 59.9649 33.0706C59.7609 32.9207 59.5993 32.7472 59.4807 32.5503C59.3644 32.3532 59.307 32.1243 59.307 31.8634C59.307 31.6109 59.3674 31.3819 59.4898 31.1766C59.6114 30.9685 59.7821 30.7908 60.0019 30.6438C60.2217 30.4939 60.4807 30.3788 60.7791 30.2983C61.0812 30.2178 61.412 30.1776 61.7715 30.1776C62.2625 30.1776 62.6907 30.258 63.0563 30.419C63.4226 30.58 63.7059 30.8006 63.9075 31.0808C64.1115 31.3611 64.2134 31.6816 64.2134 32.0424H62.8509C62.8509 31.8648 62.8101 31.7094 62.7277 31.5762C62.6484 31.4402 62.5261 31.3334 62.3614 31.2556C62.1998 31.178 61.9959 31.1391 61.7489 31.1391C61.511 31.1391 61.3131 31.1725 61.1545 31.239C60.9958 31.3029 60.8765 31.3903 60.7972 31.5013C60.7187 31.6095 60.6786 31.7316 60.6786 31.8676C60.6786 31.9702 60.7058 32.0632 60.7609 32.1464C60.8191 32.2297 60.9045 32.3074 61.017 32.3796C61.1295 32.4517 61.2685 32.5197 61.4332 32.5835C61.5978 32.6473 61.7882 32.7098 62.0049 32.7709C62.3675 32.8708 62.6862 32.9831 62.9604 33.108C63.2383 33.2329 63.4694 33.3731 63.656 33.5284C63.8418 33.6838 63.9823 33.8601 64.0767 34.0571C64.1711 34.2541 64.2179 34.4775 64.2179 34.7273C64.2179 34.9909 64.1621 35.2267 64.0488 35.4349C63.9362 35.643 63.7731 35.8192 63.5593 35.9635C63.3463 36.1078 63.0918 36.2174 62.7957 36.2924C62.5004 36.3673 62.1696 36.4048 61.8033 36.4048C61.4747 36.4048 61.1499 36.3659 60.8297 36.2882C60.5094 36.2077 60.2186 36.087 59.9558 35.9261C59.6967 35.7651 59.4898 35.5598 59.3342 35.31C59.1786 35.0602 59.1008 34.7647 59.1008 34.4234H60.4777C60.4777 34.612 60.5094 34.7716 60.5736 34.9021C60.6378 35.0325 60.7277 35.138 60.8433 35.2184C60.9619 35.2989 61.1023 35.3572 61.264 35.3932C61.4286 35.4293 61.6084 35.4474 61.8033 35.4474C62.0412 35.4474 62.2368 35.4168 62.3886 35.3558C62.5442 35.2947 62.659 35.2101 62.7323 35.1019C62.8078 34.9937 62.8463 34.8716 62.8463 34.7356ZM65.6908 30.2608L67.0813 33.0248L68.4718 30.2608H69.9673L67.7762 34.1153V36.3215H66.3864V34.1153L64.1915 30.2608H65.6908ZM73.5935 34.7356C73.5935 34.6273 73.5753 34.5302 73.5391 34.4442C73.5051 34.3554 73.4417 34.2749 73.3465 34.2028C73.2521 34.1278 73.1199 34.0543 72.9492 33.9822C72.7785 33.91 72.5572 33.835 72.2861 33.7574C71.9839 33.6685 71.6977 33.5686 71.4265 33.4577C71.1576 33.3467 70.9197 33.2176 70.7128 33.0706C70.5088 32.9207 70.3472 32.7472 70.2279 32.5503C70.1123 32.3532 70.0541 32.1243 70.0541 31.8634C70.0541 31.6109 70.1153 31.3819 70.2369 31.1766C70.3593 30.9685 70.53 30.7908 70.749 30.6438C70.9688 30.4939 71.2279 30.3788 71.527 30.2983C71.8283 30.2178 72.1592 30.1776 72.5194 30.1776C73.0096 30.1776 73.4386 30.258 73.8042 30.419C74.1698 30.58 74.4538 30.8006 74.6547 31.0808C74.8594 31.3611 74.9613 31.6816 74.9613 32.0424H73.598C73.598 31.8648 73.5572 31.7094 73.4749 31.5762C73.3956 31.4402 73.274 31.3334 73.1093 31.2556C72.9477 31.178 72.743 31.1391 72.496 31.1391C72.2581 31.1391 72.0602 31.1725 71.9016 31.239C71.743 31.3029 71.6244 31.3903 71.5451 31.5013C71.4658 31.6095 71.4265 31.7316 71.4265 31.8676C71.4265 31.9702 71.4537 32.0632 71.5081 32.1464C71.5663 32.2297 71.6516 32.3074 71.7649 32.3796C71.8774 32.4517 72.0164 32.5197 72.1811 32.5835C72.3457 32.6473 72.5361 32.7098 72.7521 32.7709C73.1154 32.8708 73.4341 32.9831 73.7083 33.108C73.9855 33.2329 74.2173 33.3731 74.4031 33.5284C74.589 33.6838 74.7294 33.8601 74.8239 34.0571C74.9183 34.2541 74.9659 34.4775 74.9659 34.7273C74.9659 34.9909 74.9092 35.2267 74.7967 35.4349C74.6834 35.643 74.521 35.8192 74.3072 35.9635C74.0935 36.1078 73.8389 36.2174 73.5436 36.2924C73.2475 36.3673 72.9167 36.4048 72.5512 36.4048C72.2218 36.4048 71.8971 36.3659 71.5768 36.2882C71.2566 36.2077 70.9658 36.087 70.7037 35.9261C70.4446 35.7651 70.2369 35.5598 70.0813 35.31C69.9265 35.0602 69.8487 34.7647 69.8487 34.4234H71.2249C71.2249 34.612 71.2566 34.7716 71.3208 34.9021C71.385 35.0325 71.4749 35.138 71.5904 35.2184C71.7098 35.2989 71.8502 35.3572 72.0119 35.3932C72.1758 35.4293 72.3563 35.4474 72.5512 35.4474C72.7891 35.4474 72.984 35.4168 73.1365 35.3558C73.2921 35.2947 73.4062 35.2101 73.4794 35.1019C73.5557 34.9937 73.5935 34.8716 73.5935 34.7356ZM78.5014 30.2608V36.3215H77.1336V30.2608H78.5014ZM80.5498 30.2608V31.239H75.1169V30.2608H80.5498ZM85.4252 35.3475V36.3215H81.8806V35.3475H85.4252ZM82.3293 30.2608V36.3215H80.9569V30.2608H82.3293ZM84.963 32.7292V33.6783H81.8806V32.7292H84.963ZM85.4207 30.2608V31.239H81.8806V30.2608H85.4207ZM86.4774 30.2608H87.639L89.349 34.7106L91.0598 30.2608H92.2214L89.8158 36.3215H88.883L86.4774 30.2608ZM85.8505 30.2608H87.0076L87.2183 34.5982V36.3215H85.8505V30.2608ZM91.6904 30.2608H92.8521V36.3215H91.4805V34.5982L91.6904 30.2608Z" fill="#7E44FE"/>
</svg>
