<svg width="133" height="60" viewBox="0 0 133 60" fill="none" xmlns="http://www.w3.org/2000/svg">
<path d="M0 0H54.5082L53.8909 6.63605L0.802499 6.51258L0 0Z" fill="#7E44FE"/>
<path d="M10.1231 35.3098L27.9324 49.3844L28.6255 53.4474L27.9324 57.3168L4.93772 39.1062L10.1231 35.3098Z" fill="#7E44FE"/>
<path d="M9.81591 31.9456L10.1554 35.4025L8.13321 37.8146L4.93919 39.1064L3.42654 27.1306L9.81591 31.9456Z" fill="#7E44FE"/>
<path d="M45.2796 35.4952L27.9333 49.3846L27.5937 53.3045L27.9332 57.317L50.5884 38.9521L49.2214 32.9557L45.2796 35.4952Z" fill="#7E44FE"/>
<path d="M18.4589 28.6121H40.7128L38.5214 34.3839H16.8848L18.4589 28.6121Z" fill="#7E44FE"/>
<path d="M0.785156 6.30298L7.31414 5.83368L8.51789 21.0503L2.93126 23.7047L0.785156 6.30298Z" fill="#7E44FE"/>
<path d="M2.93164 23.7048L8.45654 20.896L18.9199 28.6741L16.8803 34.3842L2.93164 23.7048Z" fill="#7E44FE"/>
<path d="M2.93164 23.7048L8.45654 20.896L18.9199 28.6741L16.8803 34.3842L2.93164 23.7048Z" fill="#7E44FE"/>
<path d="M48.273 5.90529L53.9523 5.95724L52.4091 21.7294L47.162 17.3465L48.273 5.90529Z" fill="#7E44FE"/>
<rect x="16.791" y="13.6422" width="22.4082" height="5.80268" fill="#7E44FE"/>
<path d="M39.2031 13.6422L51.977 24.1982L47.0694 27.6551L35.413 18.3339L39.2031 13.6422Z" fill="#7E44FE"/>
<path d="M51.9766 24.1982L50.5876 38.9518L45.2788 35.4949L46.0986 23.8895L51.9766 24.1982Z" fill="#7E44FE"/>
<path d="M9.50781 19.6611L16.7921 13.6425L20.712 17.4389L14.1067 22.902L9.50781 19.6611Z" fill="#7E44FE"/>
<path d="M36.7285 28.5815L40.9879 25.0938L44.63 28.5198L38.5187 34.3842L36.7285 28.5815Z" fill="#7E44FE"/>
<path d="M69.43 29.2403H63.3394L63.3779 24.6026H69.43C70.9413 24.6026 72.2155 24.2524 73.2525 23.5521C74.2906 22.8386 75.0722 21.8014 75.5972 20.4404C76.1351 19.0795 76.4035 17.4345 76.4035 15.5054V14.0982C76.4035 12.6184 76.2504 11.3169 75.9432 10.1938C75.6478 9.07072 75.2059 8.12591 74.6173 7.35959C74.0276 6.59326 73.3043 6.01844 72.4462 5.63534C71.5881 5.23889 70.6018 5.04072 69.4871 5.04072H63.2242V0.383179H69.4871C71.3574 0.383179 73.0671 0.713461 74.6173 1.37414C76.1793 2.02158 77.5311 2.95304 78.6705 4.16864C79.8111 5.38423 80.6886 6.8377 81.303 8.52892C81.9304 10.207 82.2441 12.0766 82.2441 14.1378V15.5054C82.2441 17.5534 81.9304 19.423 81.303 21.1143C80.6886 22.8056 79.8111 24.259 78.6705 25.4746C77.544 26.677 76.1922 27.6085 74.6173 28.2691C73.0542 28.9166 71.3251 29.2403 69.43 29.2403ZM66.6056 0.383179V29.2403H60.8418V0.383179H66.6056ZM96.7938 16.5757H89.6079L89.5702 12.4929H95.6026C96.6655 12.4929 97.5365 12.3541 98.2157 12.0766C98.8937 11.7859 99.4004 11.3698 99.7335 10.828C100.078 10.2731 100.252 9.59917 100.252 8.80638C100.252 7.90794 100.085 7.18121 99.7518 6.62629C99.4317 6.07137 98.9261 5.66836 98.234 5.41726C97.5559 5.16627 96.6785 5.04072 95.6026 5.04072H91.6065V29.2403H85.8424V0.383179H95.6026C97.2293 0.383179 98.6825 0.541759 99.9631 0.858808C101.257 1.17597 102.352 1.65816 103.249 2.3056C104.146 2.95304 104.83 3.7723 105.305 4.76326C105.779 5.74098 106.015 6.90375 106.015 8.25146C106.015 9.4407 105.753 10.5373 105.228 11.5415C104.715 12.5457 103.902 13.3649 102.787 13.9992C101.686 14.6334 100.246 14.9835 98.4647 15.0496L96.7938 16.5757ZM96.5437 29.2403H88.0329L90.2806 24.6026H96.5437C97.5559 24.6026 98.3817 24.4374 99.022 24.107C99.6624 23.7635 100.137 23.3011 100.444 22.7197C100.751 22.1383 100.905 21.4711 100.905 20.7179C100.905 19.8723 100.764 19.139 100.483 18.518C100.213 17.8969 99.7777 17.4213 99.1762 17.091C98.5736 16.7474 97.7802 16.5757 96.7938 16.5757H91.2411L91.2799 12.4929H98.1963L99.5211 14.0982C101.225 14.0718 102.596 14.3823 103.633 15.0297C104.684 15.6639 105.446 16.4897 105.919 17.5071C106.406 18.5246 106.65 19.6146 106.65 20.7774C106.65 22.6272 106.259 24.1863 105.477 25.4547C104.697 26.71 103.55 27.6547 102.038 28.2889C100.54 28.9231 98.7083 29.2403 96.5437 29.2403ZM115.127 0.383179L120.391 10.4515L125.656 0.383179H132.246L124.119 14.6929L132.457 29.2403H125.809L120.391 18.9738L114.974 29.2403H108.287L116.645 14.6929L108.499 0.383179H115.127Z" fill="#7E44FE"/>
<path d="M65.3087 46.9623H62.1409L62.1609 44.5702H65.3087C66.0945 44.5702 66.758 44.3896 67.2977 44.0285C67.8373 43.6604 68.2434 43.1255 68.517 42.4236C68.796 41.7216 68.936 40.8731 68.936 39.8781V39.1523C68.936 38.389 68.8563 37.7178 68.6958 37.1385C68.5428 36.5593 68.3134 36.0719 68.0064 35.6767C67.7005 35.2814 67.3235 34.9849 66.8776 34.7873C66.4316 34.5828 65.9183 34.4807 65.3387 34.4807H62.0809V32.0784H65.3387C66.311 32.0784 67.2007 32.2487 68.0064 32.5895C68.8197 32.9234 69.522 33.4038 70.1155 34.0309C70.7079 34.6579 71.1646 35.4075 71.4845 36.2798C71.8109 37.1453 71.9735 38.1096 71.9735 39.1728V39.8781C71.9735 40.9345 71.8109 41.8987 71.4845 42.7711C71.1646 43.6435 70.7079 44.3931 70.1155 45.02C69.5295 45.6402 68.8261 46.1207 68.0064 46.4614C67.1943 46.7954 66.2948 46.9623 65.3087 46.9623ZM63.8397 32.0784V46.9623H60.8418V32.0784H63.8397ZM77.0329 32.0784V46.9623H74.0449V32.0784H77.0329ZM91.0659 39.1829V45.0814C90.8397 45.3607 90.4896 45.6641 90.0168 45.9912C89.5439 46.3114 88.9342 46.5875 88.1888 46.8192C87.4424 47.0509 86.5397 47.1667 85.4798 47.1667C84.5406 47.1667 83.6853 47.01 82.9119 46.6965C82.1396 46.3762 81.4729 45.9094 80.9138 45.2961C80.3602 44.6828 79.9336 43.933 79.6342 43.0471C79.3347 42.1544 79.185 41.1355 79.185 39.9906V39.0603C79.185 37.9155 79.3283 36.8965 79.6148 36.0038C79.9078 35.1111 80.3235 34.3579 80.8632 33.7446C81.4028 33.1313 82.0459 32.6644 82.7924 32.3441C83.5377 32.0238 84.3671 31.8637 85.2806 31.8637C86.5462 31.8637 87.5856 32.0749 88.3978 32.4975C89.2111 32.9131 89.8304 33.4925 90.257 34.2353C90.69 34.9713 90.956 35.8164 91.0562 36.7705H88.1479C88.0747 36.2662 87.9346 35.8266 87.7289 35.4518C87.5221 35.0769 87.2259 34.7839 86.8392 34.5727C86.46 34.3613 85.9667 34.2558 85.3603 34.2558C84.8605 34.2558 84.4145 34.3613 84.0214 34.5727C83.6347 34.7771 83.3083 35.0803 83.0423 35.4824C82.7751 35.8846 82.5726 36.382 82.4326 36.9749C82.2926 37.5678 82.2226 38.2561 82.2226 39.0399V39.9906C82.2226 40.7674 82.2958 41.4558 82.4423 42.0555C82.5888 42.6485 82.8053 43.1494 83.0918 43.5582C83.3848 43.9604 83.7446 44.2636 84.1711 44.468C84.5976 44.6725 85.0942 44.7746 85.6597 44.7746C86.1326 44.7746 86.5257 44.7338 86.8392 44.652C87.1591 44.5702 87.4155 44.4714 87.6083 44.3556C87.8086 44.2329 87.9616 44.117 88.0682 44.008V41.3706H85.3301V39.1829H91.0659ZM96.3654 32.0784V46.9623H93.3774V32.0784H96.3654ZM105.072 32.0784V46.9623H102.084V32.0784H105.072ZM109.549 32.0784V34.4807H97.6774V32.0784H109.549ZM115.787 34.6237L111.83 46.9623H108.643L114.049 32.0784H116.077L115.787 34.6237ZM119.075 46.9623L115.108 34.6237L114.788 32.0784H116.837L122.273 46.9623H119.075ZM118.895 41.4217V43.8241H111.211V41.4217H118.895ZM132.668 44.5702V46.9623H125.344V44.5702H132.668ZM126.313 32.0784V46.9623H123.314V32.0784H126.313Z" fill="#7E44FE"/>
<path d="M67.2151 57.8844V59.4905H62.1595V57.8844H67.2151ZM62.7989 49.4971V59.4905H60.8418V49.4971H62.7989ZM66.5567 53.5672V55.1321H62.1595V53.5672H66.5567ZM67.2086 49.4971V51.11H62.1595V49.4971H67.2086ZM73.3286 56.1754H75.2799C75.2401 56.848 75.0644 57.4451 74.7509 57.9668C74.4417 58.4884 74.0096 58.8957 73.4525 59.1885C72.9009 59.4813 72.235 59.6278 71.456 59.6278C70.8472 59.6278 70.302 59.5179 69.8193 59.2984C69.3366 59.0741 68.9228 58.7538 68.5791 58.3374C68.2408 57.921 67.9811 57.4177 67.8033 56.8274C67.6245 56.2372 67.5361 55.5759 67.5361 54.8439V54.1507C67.5361 53.4185 67.6266 52.7573 67.8098 52.167C67.9962 51.5722 68.2624 51.0666 68.6061 50.6502C68.953 50.2337 69.3689 49.9135 69.8516 49.6892C70.3343 49.465 70.8741 49.3529 71.47 49.3529C72.2609 49.3529 72.9289 49.5039 73.4719 49.8059C74.0204 50.1079 74.4449 50.5244 74.7444 51.0551C75.0494 51.5859 75.2315 52.1899 75.2929 52.8671H73.3351C73.3135 52.4644 73.2371 52.1235 73.1067 51.8445C72.9763 51.5607 72.7791 51.3479 72.513 51.2061C72.2522 51.0597 71.9042 50.9864 71.47 50.9864C71.1435 50.9864 70.858 51.0506 70.6145 51.1787C70.371 51.3068 70.1673 51.5012 70.0014 51.762C69.8365 52.0229 69.7126 52.3523 69.6297 52.7504C69.551 53.1439 69.5122 53.6061 69.5122 54.1368V54.8439C69.5122 55.3609 69.5489 55.8162 69.6232 56.2097C69.6975 56.5987 69.8107 56.9281 69.9626 57.198C70.1188 57.4634 70.3193 57.6648 70.5628 57.802C70.8106 57.9347 71.109 58.0011 71.456 58.0011C71.8654 58.0011 72.2027 57.9325 72.4677 57.7952C72.7328 57.6579 72.9354 57.4543 73.0743 57.1843C73.2176 56.9144 73.3028 56.578 73.3286 56.1754ZM83.8329 54.2604V54.734C83.8329 55.4936 83.7349 56.1754 83.5388 56.7794C83.3437 57.3834 83.0668 57.8981 82.7102 58.3237C82.3535 58.7447 81.9279 59.0672 81.4323 59.2914C80.9399 59.5157 80.3947 59.6278 79.7946 59.6278C79.1987 59.6278 78.6524 59.5157 78.1568 59.2914C77.6655 59.0672 77.2388 58.7447 76.8778 58.3237C76.5169 57.8981 76.2367 57.3834 76.0363 56.7794C75.8413 56.1754 75.7433 55.4936 75.7433 54.734V54.2604C75.7433 53.4962 75.8413 52.8145 76.0363 52.215C76.2324 51.611 76.5083 51.0963 76.8649 50.6707C77.2259 50.2452 77.6525 49.9203 78.1439 49.6962C78.6395 49.4719 79.1858 49.3598 79.7816 49.3598C80.3818 49.3598 80.927 49.4719 81.4183 49.6962C81.915 49.9203 82.3406 50.2452 82.6973 50.6707C83.0582 51.0963 83.3373 51.611 83.5323 52.215C83.7327 52.8145 83.8329 53.4962 83.8329 54.2604ZM81.8558 54.734V54.2467C81.8558 53.7159 81.8105 53.2492 81.7189 52.8466C81.6273 52.4439 81.4926 52.1053 81.3149 51.8307C81.136 51.5562 80.9183 51.3502 80.6619 51.2129C80.4055 51.0711 80.1113 51.0003 79.7816 51.0003C79.4508 51.0003 79.1567 51.0711 78.9002 51.2129C78.6481 51.3502 78.4326 51.5562 78.2548 51.8307C78.0803 52.1053 77.9478 52.4439 77.8573 52.8466C77.7657 53.2492 77.7193 53.7159 77.7193 54.2467V54.734C77.7193 55.2602 77.7657 55.7269 77.8573 56.1342C77.9478 56.5369 78.0824 56.8778 78.2613 57.1569C78.4391 57.4314 78.6567 57.6397 78.9132 57.7815C79.1707 57.9233 79.4638 57.9943 79.7946 57.9943C80.1253 57.9943 80.4184 57.9233 80.6748 57.7815C80.9313 57.6397 81.1468 57.4314 81.3213 57.1569C81.4948 56.8778 81.6273 56.5369 81.7189 56.1342C81.8105 55.7269 81.8558 55.2602 81.8558 54.734ZM89.6523 56.8755C89.6523 56.697 89.6265 56.5369 89.5737 56.395C89.5263 56.2486 89.4347 56.1159 89.3 55.997C89.1653 55.8734 88.9757 55.7521 88.7322 55.6332C88.4887 55.5142 88.1741 55.3906 87.7862 55.2625C87.3563 55.116 86.9468 54.9513 86.56 54.7684C86.1775 54.5853 85.8381 54.3725 85.5418 54.13C85.2509 53.8829 85.0203 53.5969 84.8511 53.2721C84.6852 52.9472 84.6033 52.5697 84.6033 52.1395C84.6033 51.7232 84.6895 51.3457 84.8641 51.0071C85.0375 50.6639 85.281 50.371 85.5946 50.1285C85.9081 49.8814 86.2777 49.6915 86.7033 49.5589C87.1343 49.4261 87.6062 49.3598 88.1191 49.3598C88.8195 49.3598 89.4304 49.4925 89.9519 49.7579C90.4745 50.0233 90.8785 50.3871 91.1662 50.8492C91.4571 51.3113 91.6026 51.8398 91.6026 52.4347H89.6588C89.6588 52.1418 89.6006 51.8856 89.4832 51.666C89.3701 51.4418 89.1955 51.2656 88.9606 51.1374C88.73 51.0093 88.4391 50.9453 88.0868 50.9453C87.7474 50.9453 87.4651 51.0003 87.2388 51.11C87.0125 51.2153 86.8423 51.3594 86.7292 51.5425C86.6171 51.7209 86.56 51.9222 86.56 52.1464C86.56 52.3157 86.5988 52.4691 86.6774 52.6062C86.7604 52.7435 86.8822 52.8717 87.0427 52.9906C87.2033 53.1097 87.4015 53.2218 87.6364 53.327C87.8713 53.4322 88.1428 53.5351 88.452 53.6359C88.9692 53.8006 89.4239 53.9858 89.815 54.1918C90.2116 54.3977 90.5413 54.6288 90.8074 54.885C91.0725 55.1412 91.2729 55.4319 91.4076 55.7567C91.5422 56.0815 91.609 56.4499 91.609 56.8618C91.609 57.2964 91.5293 57.6854 91.3677 58.0286C91.2071 58.3718 90.9744 58.6623 90.6695 58.9002C90.3656 59.1382 90.0025 59.3189 89.5802 59.4424C89.1589 59.566 88.6869 59.6278 88.1644 59.6278C87.6957 59.6278 87.2323 59.5637 86.7755 59.4356C86.3186 59.3029 85.9038 59.1038 85.5289 58.8385C85.1593 58.5731 84.8641 58.2345 84.6421 57.8226C84.4201 57.4108 84.3092 56.9235 84.3092 56.3607H86.2734C86.2734 56.6718 86.3187 56.9349 86.4102 57.1501C86.5018 57.3651 86.63 57.539 86.7949 57.6716C86.9641 57.8044 87.1645 57.9004 87.395 57.9599C87.6299 58.0194 87.8864 58.0491 88.1644 58.0491C88.5038 58.0491 88.7828 57.9988 88.9994 57.8981C89.2214 57.7975 89.3851 57.6579 89.4896 57.4795C89.5974 57.3011 89.6523 57.0997 89.6523 56.8755ZM93.7101 49.4971L95.6937 54.0545L97.6774 49.4971H99.8108L96.685 55.8528V59.4905H94.7025V55.8528L91.5713 49.4971H93.7101ZM104.984 56.8755C104.984 56.697 104.958 56.5369 104.906 56.395C104.858 56.2486 104.767 56.1159 104.631 55.997C104.497 55.8734 104.308 55.7521 104.065 55.6332C103.821 55.5142 103.505 55.3906 103.119 55.2625C102.688 55.116 102.279 54.9513 101.892 54.7684C101.509 54.5853 101.169 54.3725 100.874 54.13C100.583 53.8829 100.353 53.5969 100.182 53.2721C100.018 52.9472 99.9347 52.5697 99.9347 52.1395C99.9347 51.7232 100.022 51.3457 100.195 51.0071C100.37 50.6639 100.613 50.371 100.926 50.1285C101.239 49.8814 101.609 49.6915 102.036 49.5589C102.466 49.4261 102.938 49.3598 103.452 49.3598C104.151 49.3598 104.763 49.4925 105.284 49.7579C105.806 50.0233 106.211 50.3871 106.498 50.8492C106.79 51.3113 106.935 51.8398 106.935 52.4347H104.99C104.99 52.1418 104.932 51.8856 104.815 51.666C104.701 51.4418 104.528 51.2656 104.293 51.1374C104.062 51.0093 103.77 50.9453 103.418 50.9453C103.079 50.9453 102.796 51.0003 102.57 51.11C102.344 51.2153 102.175 51.3594 102.062 51.5425C101.948 51.7209 101.892 51.9222 101.892 52.1464C101.892 52.3157 101.931 52.4691 102.009 52.6062C102.092 52.7435 102.214 52.8717 102.375 52.9906C102.536 53.1097 102.734 53.2218 102.969 53.327C103.204 53.4322 103.475 53.5351 103.783 53.6359C104.302 53.8006 104.756 53.9858 105.147 54.1918C105.543 54.3977 105.874 54.6288 106.139 54.885C106.404 55.1412 106.604 55.4319 106.739 55.7567C106.874 56.0815 106.941 56.4499 106.941 56.8618C106.941 57.2964 106.861 57.6854 106.7 58.0286C106.539 58.3718 106.307 58.6623 106.002 58.9002C105.697 59.1382 105.334 59.3189 104.913 59.4424C104.49 59.566 104.018 59.6278 103.497 59.6278C103.027 59.6278 102.564 59.5637 102.107 59.4356C101.65 59.3029 101.235 59.1038 100.861 58.8385C100.492 58.5731 100.195 58.2345 99.9735 57.8226C99.7526 57.4108 99.6416 56.9235 99.6416 56.3607H101.605C101.605 56.6718 101.65 56.9349 101.742 57.1501C101.833 57.3651 101.961 57.539 102.126 57.6716C102.296 57.8044 102.497 57.9004 102.727 57.9599C102.961 58.0194 103.219 58.0491 103.497 58.0491C103.836 58.0491 104.114 57.9988 104.332 57.8981C104.554 57.7975 104.716 57.6579 104.821 57.4795C104.93 57.3011 104.984 57.0997 104.984 56.8755ZM111.985 49.4971V59.4905H110.034V49.4971H111.985ZM114.907 49.4971V51.11H107.157V49.4971H114.907ZM121.862 57.8844V59.4905H116.806V57.8844H121.862ZM117.446 49.4971V59.4905H115.488V49.4971H117.446ZM121.203 53.5672V55.1321H116.806V53.5672H121.203ZM121.856 49.4971V51.11H116.806V49.4971H121.856ZM123.363 49.4971H125.02L127.46 56.8342L129.9 49.4971H131.557L128.126 59.4905H126.795L123.363 49.4971ZM122.469 49.4971H124.12L124.42 56.649V59.4905H122.469V49.4971ZM130.8 49.4971H132.457V59.4905H130.5V56.649L130.8 49.4971Z" fill="#7E44FE"/>
</svg>
