<svg width="39" height="41" viewBox="0 0 39 41" fill="none" xmlns="http://www.w3.org/2000/svg">
<path d="M0 0H38.2097L37.777 4.65181L0.562544 4.56526L0 0Z" fill="#7E44FE"/>
<path d="M7.09626 24.7518L19.5804 34.618L20.0663 37.4661L19.5804 40.1785L3.46133 27.4131L7.09626 24.7518Z" fill="#7E44FE"/>
<path d="M6.88112 22.3935L7.11912 24.8168L5.70156 26.5076L3.46258 27.4131L2.40223 19.0182L6.88112 22.3935Z" fill="#7E44FE"/>
<path d="M31.7408 24.8817L19.5812 34.618L19.3431 37.3658L19.5812 40.1786L35.4622 27.305L34.5039 23.1016L31.7408 24.8817Z" fill="#7E44FE"/>
<path d="M12.9394 20.0569H28.5392L27.003 24.1029H11.8359L12.9394 20.0569Z" fill="#7E44FE"/>
<path d="M0.550293 4.41821L5.12705 4.08924L5.97087 14.7559L2.05469 16.6167L0.550293 4.41821Z" fill="#7E44FE"/>
<path d="M2.05518 16.6169L5.92808 14.648L13.2628 20.1004L11.8331 24.1031L2.05518 16.6169Z" fill="#7E44FE"/>
<path d="M2.05518 16.6169L5.92808 14.648L13.2628 20.1004L11.8331 24.1031L2.05518 16.6169Z" fill="#7E44FE"/>
<path d="M33.8385 4.13945L37.8196 4.17587L36.7379 15.232L33.0597 12.1597L33.8385 4.13945Z" fill="#7E44FE"/>
<rect x="11.77" y="9.56299" width="15.708" height="4.06763" fill="#7E44FE"/>
<path d="M27.481 9.56299L36.4353 16.9626L32.9952 19.3859L24.8241 12.8519L27.481 9.56299Z" fill="#7E44FE"/>
<path d="M36.4351 16.9626L35.4614 27.3048L31.74 24.8815L32.3147 16.7463L36.4351 16.9626Z" fill="#7E44FE"/>
<path d="M6.66357 13.7822L11.7698 9.5632L14.5176 12.2245L9.88739 16.054L6.66357 13.7822Z" fill="#7E44FE"/>
<path d="M25.7461 20.0355L28.7319 17.5906L31.285 19.9922L27.001 24.1031L25.7461 20.0355Z" fill="#7E44FE"/>
</svg>
