<svg width="1920" height="389" fill="none" xmlns="http://www.w3.org/2000/svg"><g opacity=".5"><path d="M1542.85 252.774H1354.6v626.108h188.25V252.774z" fill="url(#paint0_linear_864_3071)"/><path d="M1500.75 300.809H1354.6v8.318h146.15v-8.318zm42.14 40.142h-149.13v7.849h149.13v-7.849zM1476 370.983h-121.4v6.911H1476v-6.911z" fill="#98D7FF"/><path d="M1265.74 131.367h-153.87v746.236h153.87V131.367z" fill="url(#paint1_linear_864_3071)"/><path d="M1190.4 165.153h-59.68v9.172h59.68v-9.172zm50.3 31.824h-67.36v7.849h67.36v-7.849zm-14.68 40.142h-88.81v7.849h88.81v-7.849zm24.23 39.672h-59.85v8.319h59.85v-8.319z" fill="#5830B5"/><path d="M871.055 263.014H682.801v615.869h188.254V263.014z" fill="url(#paint2_linear_864_3071)"/><path d="M843.199 186.057H710.614v76.957h132.585v-76.957z" fill="#FAF1B0"/><path d="M748.794 162.638h-20.519v23.42h20.519v-23.42zm75.464 0h-62.41v23.42h62.41v-23.42zM713.814 292.961h-14.589v543.221h14.589V292.961zm35.193 0h-14.589v543.221h14.589V292.961zm35.194 0h-14.59v543.221h14.59V292.961zm35.194 0h-14.589v543.221h14.589V292.961zm35.236 0h-14.589v543.221h14.589V292.961z" fill="#FAF1B0"/><path d="M619.324 13.458H431.069v865.425h188.255V13.458z" fill="url(#paint3_linear_864_3071)"/><path d="M600.811 45.153H449.499v15.699h151.312V45.153zm0 24.019H449.499V84.87h151.312v-15.7zm0 23.972H449.499v15.699h151.312V93.144zm0 24.018H449.499v15.699h151.312v-15.699zm0 23.976H449.499v15.698h151.312v-15.698zm0 24.015H449.499v15.699h151.312v-15.699zm0 23.976H449.499v15.698h151.312v-15.698zm0 24.017H449.499v15.698h151.312v-15.698zm0 23.973H449.499v15.699h151.312v-15.699zm0 24.018H449.499v15.698h151.312v-15.698zm0 23.973H449.499v15.699h151.312V285.11zm0 24.019H449.499v15.698h151.312v-15.698zm0 23.974H449.499v15.698h151.312v-15.698zm0 24.016H449.499v15.699h151.312v-15.699zm0 23.976H449.499v15.698h151.312v-15.698z" fill="#8BFEFF"/><path d="M900.79 220.439h-11.305V877.56h11.305V220.439z" fill="url(#paint4_linear_864_3071)"/><path d="M222.595.276h-79.517V877.56h79.517V.276z" fill="url(#paint5_linear_864_3071)"/><path d="M1920 323.505h-91.12v554.099H1920V323.505z" fill="url(#paint6_linear_864_3071)"/><path d="M302.282 878.882c-27.216 0-49.271-22.055-49.271-49.271V235.37c0-27.217 22.055-49.271 49.271-49.271 27.217 0 49.271 22.054 49.271 49.271v594.241c0 27.174-22.054 49.271-49.271 49.271z" fill="url(#paint7_linear_864_3071)"/><path d="M1032.44 878.882h-98.589V159.394c0-54.433 44.109-98.585 98.589-98.585v818.073z" fill="url(#paint8_linear_864_3071)"/><path d="M1810.66 224.535h-237.05v654.348h237.05V224.535z" fill="url(#paint9_linear_864_3071)"/><path d="M1773.55 117.759h-162.83v106.733h162.83V117.759z" fill="url(#paint10_linear_864_3071)"/><path d="M1743.65 117.759h-102.98V96.643c0-28.454 23.03-51.49 51.49-51.49 28.45 0 51.49 23.036 51.49 51.49v21.116z" fill="url(#paint11_linear_864_3071)"/><path d="M151.994 878.882H0V359.807c83.953 0 152.037 68.041 152.037 152.037v367.038h-.043z" fill="url(#paint12_linear_864_3071)"/><path d="M1333.22 878.882h-152.03V359.807c83.95 0 152.03 68.041 152.03 152.037v367.038z" fill="url(#paint13_linear_864_3071)"/></g><defs><linearGradient id="paint0_linear_864_3071" x1="1448.73" y1="403.339" x2="1448.73" y2="878.404" gradientUnits="userSpaceOnUse"><stop stop-color="#8BFEFF"/><stop offset=".999" stop-color="#C859F6" stop-opacity="0"/></linearGradient><linearGradient id="paint1_linear_864_3071" x1="1188.81" y1="68.461" x2="1188.81" y2="4091.3" gradientUnits="userSpaceOnUse"><stop offset="0" stop-color="#8745F1"/><stop offset=".999" stop-color="#C859F6" stop-opacity="0"/></linearGradient><linearGradient id="paint2_linear_864_3071" x1="776.923" y1="411.122" x2="776.923" y2="878.413" gradientUnits="userSpaceOnUse"><stop stop-color="#FAF1B0"/><stop offset=".999" stop-color="#C859F6" stop-opacity="0"/></linearGradient><linearGradient id="paint3_linear_864_3071" x1="525" y1="13" x2="525.179" y2="878.23" gradientUnits="userSpaceOnUse"><stop stop-color="#8BFEFF"/><stop offset=".999" stop-color="#C859F6" stop-opacity="0"/></linearGradient><linearGradient id="paint4_linear_864_3071" x1="895.142" y1="165.058" x2="895.142" y2="3707.64" gradientUnits="userSpaceOnUse"><stop offset="0" stop-color="#8745F1"/><stop offset=".999" stop-color="#C859F6" stop-opacity="0"/></linearGradient><linearGradient id="paint5_linear_864_3071" x1="182.821" y1="-73.665" x2="182.821" y2="4655.79" gradientUnits="userSpaceOnUse"><stop offset="0" stop-color="#8745F1"/><stop offset=".999" stop-color="#C859F6" stop-opacity="0"/></linearGradient><linearGradient id="paint6_linear_864_3071" x1="1874.44" y1="276.784" x2="1874.44" y2="3263.89" gradientUnits="userSpaceOnUse"><stop offset="0" stop-color="#8745F1"/><stop offset=".999" stop-color="#C859F6" stop-opacity="0"/></linearGradient><linearGradient id="paint7_linear_864_3071" x1="302.269" y1="352.668" x2="302.269" y2="878.356" gradientUnits="userSpaceOnUse"><stop stop-color="#C859F6"/><stop offset=".999" stop-color="#C859F6" stop-opacity="0"/></linearGradient><linearGradient id="paint8_linear_864_3071" x1="983.15" y1="257.578" x2="983.15" y2="878.264" gradientUnits="userSpaceOnUse"><stop stop-color="#C859F6"/><stop offset=".999" stop-color="#C859F6" stop-opacity="0"/></linearGradient><linearGradient id="paint9_linear_864_3071" x1="1692.13" y1="105.536" x2="1692.13" y2="888.442" gradientUnits="userSpaceOnUse"><stop stop-color="#C859F6"/><stop offset=".999" stop-color="#C859F6" stop-opacity="0"/></linearGradient><linearGradient id="paint10_linear_864_3071" x1="1692.13" y1="108.779" x2="1692.13" y2="684.233" gradientUnits="userSpaceOnUse"><stop stop-color="#C859F6"/><stop offset=".999" stop-color="#C859F6" stop-opacity="0"/></linearGradient><linearGradient id="paint11_linear_864_3071" x1="1692.13" y1="107.842" x2="1692.13" y2="890.751" gradientUnits="userSpaceOnUse"><stop stop-color="#C859F6"/><stop offset=".999" stop-color="#C859F6" stop-opacity="0"/></linearGradient><linearGradient id="paint12_linear_864_3071" x1="76.006" y1="484.643" x2="76.006" y2="878.484" gradientUnits="userSpaceOnUse"><stop stop-color="#FAF1B0"/><stop offset=".999" stop-color="#C859F6" stop-opacity="0"/></linearGradient><linearGradient id="paint13_linear_864_3071" x1="1257.19" y1="484.643" x2="1257.19" y2="878.484" gradientUnits="userSpaceOnUse"><stop stop-color="#FAF1B0"/><stop offset=".999" stop-color="#C859F6" stop-opacity="0"/></linearGradient></defs></svg>