<svg width="905" height="779" fill="none" xmlns="http://www.w3.org/2000/svg"><mask id="a" style="mask-type:alpha" maskUnits="userSpaceOnUse" x="0" y="0" width="905" height="779"><path fill="#C4C4C4" d="M0 0h905v779H0z"/></mask><g mask="url(#a)"><path d="M55.5 125v684.5H173V143l-44-18H55.5z" fill="#FFE9F4" stroke="#FE6BB4"/><path d="M755.5 836V251.5l25-48h101V814l-126 22z" fill="#F3EDFF" stroke="#7E44FE"/><path d="M600.5 2L558 79.5v726h180V2H600.5z" fill="#FFEFDB" stroke="#FDA838"/><path d="M170.5 81v706.5h109v-560H290v-107L259 81h-88.5z" fill="#EDFAE8" stroke="#4BBC24"/><path d="M279 227h112.5l35.5 55v507H279V227z" fill="#FFE9F4" stroke="#FE6BB4"/><path d="M5 794.5V191h103.5l56 55v548.5H5z" fill="#F3EDFF" stroke="#7E44FE"/><path d="M442 1135V351.687L552 320v774.44L442 1135z" fill="#FFD7D7" stroke="#F55151"/><path d="M70.466 144.334h-7.508v6.052h7.508v-6.052zm0 9.23h-7.508v6.052h7.508v-6.052zm0 9.229h-7.508v6.052h7.508v-6.052zm0 18.456h-7.508v6.052h7.508v-6.052zm11.454-36.915h-7.51v6.052h7.51v-6.052zm0 9.23h-7.51v6.052h7.51v-6.052zm0 9.229h-7.51v6.052h7.51v-6.052zm0 9.227h-7.51v6.052h7.51v-6.052zm11.448-36.915H85.86v6.052h7.508v-6.052zm0 9.229H85.86v6.052h7.508v-6.052zm0 9.23H85.86v6.052h7.508v-6.052zm0 9.229H85.86v6.052h7.508v-6.052zm0 9.227H85.86v6.052h7.508v-6.052zm0 9.229H85.86v6.052h7.508v-6.052zm11.449-46.144H97.31v6.052h7.507v-6.052zm0 9.229H97.31v6.052h7.507v-6.052zm0 9.23H97.31v6.052h7.507v-6.052zm0 18.456H97.31v6.052h7.507v-6.052zm0 9.229H97.31v6.052h7.507v-6.052zm11.45-46.144h-7.507v6.052h7.507v-6.052zm0 9.229h-7.507v6.052h7.507v-6.052zm0 9.23h-7.507v6.052h7.507v-6.052zm0 9.229h-7.507v6.052h7.507v-6.052zm0 9.227h-7.507v6.052h7.507v-6.052zm0 9.229h-7.507v6.052h7.507v-6.052zm11.452-46.144h-7.507v6.052h7.507v-6.052zm0 9.229h-7.507v6.052h7.507v-6.052zm0 9.23h-7.507v6.052h7.507v-6.052zm0 9.229h-7.507v6.052h7.507v-6.052zm0 9.227h-7.507v6.052h7.507v-6.052zm0 9.229h-7.507v6.052h7.507v-6.052zm0 9.23h-7.507v6.052h7.507v-6.052zm11.454-46.145h-7.51v6.052h7.51v-6.052zm0 9.23h-7.51v6.052h7.51v-6.052zm0 9.229h-7.51v6.052h7.51v-6.052zm0 18.456h-7.51v6.052h7.51v-6.052zm0 9.23h-7.51v6.052h7.51v-6.052zm0 9.229h-7.51v6.052h7.51v-6.052zm0 9.229h-7.51v6.052h7.51v-6.052zm11.451-64.603h-7.51v6.052h7.51v-6.052zm0 9.23h-7.51v6.052h7.51v-6.052zm0 9.229h-7.51v6.052h7.51v-6.052zm0 9.227h-7.51v6.052h7.51v-6.052zm0 9.229h-7.51v6.052h7.51v-6.052zm0 9.23h-7.51v6.052h7.51v-6.052zm0 9.229h-7.51v6.052h7.51v-6.052zm0 9.229h-7.51v6.052h7.51v-6.052zm11.45-64.603h-7.508v6.052h7.508v-6.052zm0 9.23h-7.508v6.052h7.508v-6.052zm0 9.229h-7.508v6.052h7.508v-6.052zm0 9.227h-7.508v6.052h7.508v-6.052zm0 18.459h-7.508v6.052h7.508v-6.052zm0 9.229h-7.508v6.052h7.508v-6.052zm0 9.229h-7.508v6.052h7.508v-6.052zm0 9.229h-7.508v6.053h7.508v-6.053zm0 9.23h-7.508v6.052h7.508v-6.052z" fill="#FE6BB4"/><path d="M738.179 22h-4.841v36.128h4.841V22zm0 47.145h-4.841v36.128h4.841V69.145zm0 235.734h-4.841v36.128h4.841v-36.128zm0-188.586h-4.841v36.128h4.841v-36.128zm0 235.731h-4.841v36.128h4.841v-36.128zm0-188.586h-4.841v36.128h4.841v-36.128zm0 235.731h-4.841v36.128h4.841v-36.128zm0-188.583h-4.841v36.128h4.841v-36.128zm0 235.731h-4.841v36.128h4.841v-36.128zM724.465 22h-4.841v36.128h4.841V22zm0 47.145h-4.841v36.128h4.841V69.145zm0 235.734h-4.841v36.128h4.841v-36.128zm0-188.586h-4.841v36.128h4.841v-36.128zm0 235.731h-4.841v36.128h4.841v-36.128zm0-188.586h-4.841v36.128h4.841v-36.128zm0 235.731h-4.841v36.128h4.841v-36.128zM710.753 22h-4.841v36.128h4.841V22zm0 235.731h-4.841v36.128h4.841v-36.128zm0-141.438h-4.841v36.128h4.841v-36.128zm0 235.731h-4.841v36.128h4.841v-36.128zm0-188.586h-4.841v36.128h4.841v-36.128zm0 235.731h-4.841v36.128h4.841v-36.128zm0 47.148h-4.841v36.128h4.841v-36.128zm0 47.145h-4.841v36.128h4.841v-36.128zM697.04 22h-4.841v36.128h4.841V22zm0 47.145h-4.841v36.128h4.841V69.145zm0 235.734h-4.841v36.128h4.841v-36.128zm0-188.586h-4.841v36.128h4.841v-36.128zm0 94.293h-4.841v36.128h4.841v-36.128zM683.326 22h-4.841v36.128h4.841V22zm0 47.145h-4.841v36.128h4.841V69.145zm0 235.734h-4.841v36.128h4.841v-36.128zm0-188.586h-4.841v36.128h4.841v-36.128zm0 235.731h-4.841v36.128h4.841v-36.128zm0-188.586h-4.841v36.128h4.841v-36.128zm0 235.731h-4.841v36.128h4.841v-36.128zm0-188.583h-4.841v36.128h4.841v-36.128zm0 235.731h-4.841v36.128h4.841v-36.128zM669.61 22h-4.84v36.128h4.84V22zm0 235.731h-4.84v36.128h4.84v-36.128zm0-188.586h-4.84v36.128h4.84V69.145zm0 47.148h-4.84v36.128h4.84v-36.128zm0 235.731h-4.84v36.128h4.84v-36.128zm0-188.586h-4.84v36.128h4.84v-36.128zm0 235.731h-4.84v36.128h4.84v-36.128zm0-188.583h-4.84v36.128h4.84v-36.128zm0 235.731h-4.84v36.128h4.84v-36.128zM655.898 22h-4.84v36.128h4.84V22zm0 47.145h-4.84v36.128h4.84V69.145zm0 235.734h-4.84v36.128h4.84v-36.128zm0-141.441h-4.84v36.128h4.84v-36.128zm0 235.731h-4.84v36.128h4.84v-36.128zm0 94.293h-4.84v36.128h4.84v-36.128zM642.186 22h-4.841v36.128h4.841V22zm0 47.145h-4.841v36.128h4.841V69.145zm0 235.734h-4.841v36.128h4.841v-36.128zm0-188.586h-4.841v36.128h4.841v-36.128zm0 235.731h-4.841v36.128h4.841v-36.128zm0 94.293h-4.841v36.128h4.841v-36.128zm0 47.145h-4.841v36.128h4.841v-36.128zM628.472 22h-4.841v36.128h4.841V22zm0 94.293h-4.841v36.128h4.841v-36.128zm0 235.731h-4.841v36.128h4.841v-36.128zm0-188.586h-4.841v36.128h4.841v-36.128zm0 235.731h-4.841v36.128h4.841v-36.128zm0-188.583h-4.841v36.128h4.841v-36.128zM614.759 22h-4.841v36.128h4.841V22zm0 235.731h-4.841v36.128h4.841v-36.128zm0-188.586h-4.841v36.128h4.841V69.145zm0 235.734h-4.841v36.128h4.841v-36.128zm0-188.586h-4.841v36.128h4.841v-36.128zm0 235.731h-4.841v36.128h4.841v-36.128zm0-188.586h-4.841v36.128h4.841v-36.128zm0 235.731h-4.841v36.128h4.841v-36.128zm0-188.583h-4.841v36.128h4.841v-36.128zm0 235.731h-4.841v36.128h4.841v-36.128z" fill="#FDA838"/><path fill-rule="evenodd" clip-rule="evenodd" d="M600.757 58.138V22.003c-.487.912-.98 1.828-1.47 2.74V60.73c.49-.861.975-1.726 1.47-2.59zm0 47.159V69.161c-.487.862-.98 1.676-1.47 2.487v35.983c.49-.763.975-1.523 1.47-2.334zm0 235.726v-36.136c-.487.407-.98.803-1.47 1.218v35.989l1.47-1.071zm0-188.573v-36.136c-.487.761-.98 1.523-1.47 2.233v35.988c.49-.714.975-1.373 1.47-2.085zm0 235.729v-36.136c-.487.353-.98.658-1.47.963v35.976c.49-.247.975-.501 1.47-.803zm0-188.573V163.47c-.487.661-.98 1.32-1.47 1.981v35.989c.49-.616.975-1.224 1.47-1.834zm0 235.726v-36.136c-.487.268-.98.509-1.47.712v35.989c.49-.209.975-.362 1.47-.565zm0-188.57v-36.136c-.487.611-.98 1.167-1.47 1.727v35.988c.49-.514.975-1.02 1.47-1.579zm0 235.726v-36.136l-1.47.458v35.988l1.47-.31zM596.588 65.4V29.765c-.487.916-.98 1.778-1.47 2.677v35.445c.49-.864.983-1.675 1.47-2.487zm0 46.393V76.212c-.487.862-.98 1.624-1.47 2.435v35.435c.49-.766.983-1.528 1.47-2.289zm0 232.123v-35.584c-.487.407-.98.803-1.47 1.218v35.381c.49-.356.983-.651 1.47-1.015zm0-185.668v-35.6c-.487.762-.98 1.472-1.47 2.181v35.432c.49-.704.983-1.312 1.47-2.013zm0 232.112v-35.581c-.487.302-.98.607-1.47.963v35.381l1.47-.763zm0-185.676v-35.585c-.487.662-.98 1.269-1.47 1.93v35.379c.49-.557.983-1.117 1.47-1.724zm0 232.12v-35.582c-.487.204-.98.458-1.47.659v35.432c.49-.204.983-.356 1.47-.509zM592.42 72.555V37.49c-.487.912-.977 1.826-1.47 2.741v34.865c.493-.865.983-1.676 1.47-2.54zm0 228.521v-34.975c-.487.458-.977.964-1.47 1.473v34.77c.493-.407.983-.813 1.47-1.268zm0-137.102v-35.025c-.487.712-.977 1.472-1.47 2.235v34.827c.493-.667.983-1.376 1.47-2.037zm0 228.517v-35.022c-.487.302-.977.658-1.47.963v34.873c.493-.255.983-.56 1.47-.814zm0-182.783v-35.065c-.487.66-.977 1.32-1.47 1.981v34.872c.493-.621.983-1.231 1.47-1.788zm0 228.525V403.2c-.487.204-.977.458-1.47.712v34.822c.493-.153.983-.356 1.47-.501zm0 45.727v-35.02c-.487.102-.977.255-1.47.407v34.873c.493-.107.983-.215 1.47-.26z" fill="#FDA838"/><path fill-rule="evenodd" clip-rule="evenodd" d="M592.42 529.593v-34.974c-.487.051-.977.152-1.47.203v34.771h1.47z" fill="#FFD16B"/><path fill-rule="evenodd" clip-rule="evenodd" d="M588.252 79.713v-34.53c-.487.916-.977 1.83-1.47 2.741V82.25c.493-.862.983-1.672 1.47-2.537zm0 45.025V90.222c-.487.803-.977 1.673-1.47 2.486v34.313c.493-.762.983-1.523 1.47-2.283z" fill="#FDA838"/><path fill-rule="evenodd" clip-rule="evenodd" d="M588.252 349.65v-34.466a226.3 226.3 0 01-1.47 1.218v34.262c.493-.302.983-.658 1.47-1.014z" fill="#FFD16B"/><path fill-rule="evenodd" clip-rule="evenodd" d="M588.252 169.71v-34.466c-.487.71-.977 1.472-1.47 2.233v34.262c.493-.659.983-1.371 1.47-2.029zm0 89.986v-34.455c-.487.557-.977 1.116-1.47 1.724v34.262l1.47-1.531zM584.086 86.87V52.914l-1.476 2.742v33.753c.493-.811.983-1.676 1.476-2.537zm0 44.314V97.219c-.493.803-.983 1.675-1.476 2.489v33.754l1.476-2.278zm0 221.359v-33.959l-1.476 1.218v33.756c.493-.353.983-.712 1.476-1.015zm0-177.097v-33.96c-.493.763-.983 1.523-1.476 2.235v33.754c.493-.658.983-1.37 1.476-2.029z" fill="#FDA838"/><path fill-rule="evenodd" clip-rule="evenodd" d="M584.086 396.806V362.9l-1.476.913v33.756l1.476-.763z" fill="#FFD16B"/><path fill-rule="evenodd" clip-rule="evenodd" d="M584.086 219.708V185.8l-1.476 1.98v33.754l1.476-1.826zm0 221.411v-33.957c-.493.252-.983.455-1.476.709v33.756a16.85 16.85 0 011.476-.508zm0-177.1v-33.957c-.493.61-.983 1.167-1.476 1.726v33.754c.493-.493.983-1.015 1.476-1.523zm0 221.362v-33.957l-1.476.455v33.757c.493-.102.983-.153 1.476-.255zm-4.172-391.302v-33.4c-.49.913-.983 1.828-1.473 2.676v33.192c.493-.742.986-1.606 1.473-2.468zm0 217.757v-33.299c-.49.458-.983.964-1.473 1.422v33.146c.493-.41.986-.812 1.473-1.269zm0-174.199V104.28l-1.473 2.438v33.192c.493-.709.984-1.466 1.473-2.273zm0 43.596v-33.4c-.49.76-.983 1.472-1.473 2.181v33.192l1.473-1.973zm0 217.757v-33.4c-.49.305-.983.658-1.473.963v33.192l1.473-.755zm0-174.207v-33.4c-.49.661-.983 1.32-1.473 1.93v33.192c.493-.555.986-1.111 1.473-1.722zm0 217.757v-33.4c-.49.268-.983.509-1.473.712v33.192c.493-.148.986-.351 1.473-.504zm0-174.206v-33.398c-.49.608-.983 1.167-1.473 1.724v33.191l1.473-1.517zm0 217.757v-33.403l-1.473.455v33.191c.495-.056.987-.138 1.473-.243zm-4.169-384.857v-32.84c-.487.914-.98 1.827-1.47 2.74v32.691c.49-.865.983-1.727 1.47-2.591zm0 42.892v-32.841c-.487.803-.98 1.625-1.47 2.487v32.639c.49-.762.983-1.523 1.47-2.285zm0 214.154v-32.841c-.487.407-.98.803-1.47 1.218v32.637c.49-.353.983-.658 1.47-1.014zm0-128.472v-32.841c-.487.661-.98 1.32-1.47 1.981v32.642c.49-.615.983-1.223 1.47-1.782zm0 214.154v-32.841c-.487.254-.98.506-1.47.709v32.64c.49-.152.983-.305 1.47-.508zm0 85.631v-32.79c-.486.093-.976.16-1.47.201v32.589h1.47zm-4.168-421.151V76.11c-.487.912-.977 1.825-1.47 2.74v32.121c.493-.853.972-1.707 1.47-2.529zm0 42.132v-32.335a87.966 87.966 0 01-1.47 2.487v32.12c.493-.753.983-1.51 1.47-2.272zm0 210.599v-32.335l-1.47 1.221v32.121c.493-.346.972-.702 1.47-1.007zm0-168.47v-32.332a72.01 72.01 0 01-1.47 2.232v32.121c.493-.702.972-1.36 1.47-2.021zm0 210.548V370.97c-.487.356-.977.659-1.47.964v32.12c.493-.243.972-.497 1.47-.803zm0 84.261v-32.281l-1.47.455v32.08c.494-.059.985-.144 1.47-.254zm0 42.081V497.36c-.486.093-.976.161-1.47.203v32.03h1.47zM567.408 115.6V83.835c-.487.915-.977 1.83-1.47 2.74v31.586c.493-.886.983-1.748 1.47-2.561zm0 82.799v-31.736a72.26 72.26 0 01-1.47 2.236v31.585c.493-.726.983-1.384 1.47-2.085zm0 207.037v-31.712l-1.47.913v31.586c.493-.27.983-.532 1.47-.787zm0-165.628v-31.725a281.65 281.65 0 01-1.47 1.981v31.521c.493-.559.983-1.162 1.47-1.777zm0 207.047V415.08c-.487.254-.977.508-1.47.709v31.586c.493-.215.983-.367 1.47-.52z" fill="#FDA838"/><path fill-rule="evenodd" clip-rule="evenodd" d="M567.408 281.227v-31.724c-.487.559-.977 1.167-1.47 1.726v31.522c.493-.509.983-1.015 1.47-1.524z" fill="#FFD16B"/><path fill-rule="evenodd" clip-rule="evenodd" d="M563.242 122.808v-31.21c-.493.912-.983 1.825-1.475 2.676v31.013c.492-.803.982-1.617 1.475-2.479zm0 203.391v-31.114c-.493.458-.983.963-1.475 1.421v30.962a31.33 31.33 0 001.475-1.269zm0-162.683V132.3c-.493.803-.983 1.675-1.475 2.436v31.007c.492-.704.982-1.464 1.475-2.227zm0 203.393v-31.216l-1.475 1.218v31.013c.492-.356.982-.659 1.475-1.015zm0-162.734V173.01c-.493.709-.983 1.47-1.475 2.182v31.012c.492-.658.982-1.319 1.475-2.029zm0 203.391v-31.165c-.493.305-.983.659-1.475.964v30.964l1.475-.763zm0-162.683v-31.227l-1.475 1.981v30.962c.492-.554.982-1.157 1.475-1.716zm0 203.394v-31.168c-.493.203-.983.457-1.475.661v31.015c.492-.153.982-.356 1.475-.508zm0-162.735v-31.167c-.493.559-.983 1.169-1.475 1.675v31.015l1.475-1.523zm0 203.442v-31.21l-1.475.457v31.013c.487-.111.979-.198 1.475-.26z" fill="#FDA838"/><path fill-rule="evenodd" clip-rule="evenodd" d="M289.999 138.239c-1.338-1.63-2.696-3.228-4.048-4.858v3.94c1.339 1.606 2.699 3.196 4.048 4.794v-3.876zm0-11.025c-5.129-6.376-10.262-12.72-15.389-19.096-5.128-6.376-10.265-12.738-15.398-19.098v4.326a29932.34 29932.34 0 0015.398 18.873l15.389 18.887v-3.892zm0-8.491c-5.129-6.537-10.257-13.044-15.389-19.58-5.133-6.537-10.265-13.044-15.398-19.567v4.344c5.132 6.456 10.264 12.903 15.398 19.339 5.138 6.47 10.26 12.899 15.389 19.356v-3.892zm-6.682 11.478l-4.051-4.842v4.053a934.605 934.605 0 004.051 4.778v-3.989zm-13.369-16.031c-1.338-1.606-2.698-3.228-4.051-4.858v4.235l4.051 4.794v-4.171zm-6.685-8.006c-1.339-1.63-2.699-3.244-4.051-4.858v4.326c1.339 1.606 2.701 3.196 4.051 4.818v-4.286zm20.054 35.339c-1.339-1.55-2.699-3.116-4.051-4.682v4.053c1.352 1.531 2.701 3.08 4.051 4.614v-3.985zm-6.686-7.718c-1.338-1.582-2.696-3.147-4.048-4.713v4.149a541.914 541.914 0 014.048 4.649v-4.085zm-6.683-7.765c-1.338-1.566-2.698-3.115-4.051-4.697v4.245c1.339 1.55 2.702 3.083 4.051 4.633v-4.181zm-6.685-7.733c-1.339-1.582-2.699-3.132-4.051-4.698v4.326c1.339 1.55 2.701 3.084 4.051 4.633v-4.261zm26.736 41.99c-1.338-1.518-2.696-3.019-4.048-4.537v3.956c1.339 1.502 2.699 2.969 4.048 4.454v-3.873zm-13.368-14.933c-1.338-1.518-2.696-3.02-4.048-4.551v4.149c1.339 1.486 2.699 2.971 4.048 4.473v-4.071zm-6.683-7.49c-1.338-1.502-2.698-3.003-4.051-4.521v4.245l4.051 4.457v-4.181zm-6.685-7.46c-1.339-1.518-2.699-3.017-4.051-4.518v4.325c1.339 1.502 2.701 2.987 4.051 4.473v-4.28zm26.736 40.892c-1.338-1.453-2.696-2.891-4.048-4.357v3.953c1.339 1.437 2.699 2.859 4.048 4.283v-3.879zm-6.682-7.2c-1.35-1.437-2.7-2.884-4.051-4.342v4.053c1.352 1.418 2.701 2.856 4.051 4.283v-3.994zm-6.686-7.176a968.37 968.37 0 00-4.048-4.374v4.149c1.339 1.437 2.699 2.856 4.048 4.309v-4.084zm-6.683-7.206c-1.338-1.454-2.698-2.891-4.051-4.36v4.245c1.339 1.437 2.702 2.859 4.051 4.283v-4.168zm13.369 25.675c-1.35-1.39-2.7-2.784-4.051-4.181v4.053c1.353 1.37 2.703 2.741 4.051 4.114v-3.986zm-6.686-6.9c-1.338-1.422-2.696-2.811-4.048-4.216v4.157a1056.98 1056.98 0 014.048 4.133v-4.074zm-6.683-6.944c-1.338-1.387-2.698-2.792-4.051-4.197v4.245a844.817 844.817 0 004.051 4.133v-4.181zm-6.685-6.909c-1.339-1.405-2.699-2.791-4.051-4.197v4.339c1.339 1.39 2.701 2.763 4.051 4.149v-4.291zm20.054 32.046c-1.35-1.34-2.7-2.678-4.051-4.015v4.053c1.352 1.306 2.701 2.631 4.051 3.953v-3.991zm-6.686-6.635c-1.338-1.358-2.696-2.677-4.048-4.037v4.149l4.048 3.972v-4.084zm-6.683-6.652l-4.051-4.015v4.229l4.051 3.972v-4.186zm13.369 24.57c-1.35-1.275-2.7-2.555-4.051-3.841v4.052l4.051 3.777v-3.988zm-13.369-12.736a1006.846 1006.846 0 00-4.051-3.844v4.232c1.339 1.274 2.702 2.532 4.051 3.793v-4.181zm-6.685-6.36c-1.339-1.293-2.699-2.567-4.051-3.86v4.326c1.351 1.276 2.701 2.546 4.051 3.811v-4.277zm6.685 18.201l-4.051-3.68v4.232l4.051 3.632v-4.184z" fill="#42A91E"/><path fill-rule="evenodd" clip-rule="evenodd" d="M289.999 149.252c-1.338-1.566-2.696-3.116-4.048-4.682v3.937c1.339 1.55 2.699 3.084 4.048 4.634v-3.889z" fill="#FDA838"/><path fill-rule="evenodd" clip-rule="evenodd" d="M755.252 258.357a500.45 500.45 0 013.298-6.314v2.88a1016.05 1016.05 0 00-3.298 6.242v-2.808zm0-7.968c4.177-8.2 8.355-16.374 12.536-24.522 4.182-8.19 8.361-16.363 12.538-24.518v3.249c-4.18 8.123-8.36 16.234-12.538 24.334l-12.536 24.3v-2.843zm5.442-2.439c1.098-2.104 2.199-4.173 3.299-6.277v2.945c-1.1 2.069-2.201 4.173-3.299 6.242v-2.91zm10.889-20.752c1.098-2.142 2.198-4.211 3.299-6.315v3.175c-1.101 2.069-2.201 4.135-3.299 6.242v-3.102zm5.441-10.415c1.098-2.067 2.199-4.173 3.302-6.277v3.249c-1.103 2.104-2.204 4.173-3.302 6.242v-3.214zm-21.772 49.522c1.1-2.069 2.198-4.139 3.298-6.157v2.88c-1.1 2.032-2.198 4.015-3.298 6.093v-2.816zm5.442-10.156c1.098-2.031 2.198-4.062 3.299-6.095v2.945c-1.1 2.031-2.201 4.015-3.299 6.057v-2.907zm5.445-10.104c1.097-2.032 2.198-4.064 3.298-6.13v3.065c-1.101 2.029-2.201 4.06-3.298 6.092v-3.027zm5.444-10.097a384.184 384.184 0 013.299-6.156v3.177a643.145 643.145 0 00-3.299 6.055v-3.076zm5.441-10.156c1.098-2.029 2.199-4.06 3.302-6.129v3.249c-1.103 2.032-2.204 4.064-3.302 6.058v-3.178zm-21.772 48.452a368.744 368.744 0 013.298-5.983v2.843a846.163 846.163 0 00-3.298 5.908v-2.768zm10.887-19.72c1.097-1.993 2.197-3.987 3.298-5.982v3.027c-1.1 1.994-2.201 3.951-3.298 5.908v-2.953zm5.444-9.861c1.098-2.031 2.198-3.988 3.299-5.982v3.14a721.515 721.515 0 00-3.299 5.907v-3.065zm5.441-9.861c1.098-1.993 2.199-3.987 3.302-5.982v3.212c-1.103 1.994-2.204 3.951-3.302 5.907v-3.137zm-21.772 47.378c1.1-1.956 2.198-3.916 3.298-5.835v2.843l-3.298 5.763v-2.771zm5.442-9.636l3.299-5.76v2.918c-1.1 1.919-2.201 3.841-3.299 5.722v-2.88zm5.445-9.564c1.097-1.919 2.198-3.841 3.298-5.835v3.03a374.011 374.011 0 01-3.298 5.76v-2.955zm5.444-9.564a378.92 378.92 0 013.299-5.835v3.102a709.543 709.543 0 00-3.299 5.798v-3.065zm-16.331 36.706a387.655 387.655 0 013.298-5.65v2.808c-1.1 1.873-2.198 3.728-3.298 5.621v-2.779zm5.442-9.342c1.098-1.884 2.198-3.767 3.299-5.65v2.944c-1.1 1.845-2.201 3.691-3.299 5.576v-2.87zm5.445-9.344a421.615 421.615 0 003.298-5.651v3.03c-1.1 1.874-2.201 3.767-3.298 5.622v-3.001zm5.444-9.304c1.098-1.922 2.198-3.769 3.299-5.651v3.102c-1.101 1.874-2.201 3.729-3.299 5.622v-3.073zm5.441-9.345c1.098-1.882 2.199-3.765 3.302-5.648v3.212a1480.455 1480.455 0 01-3.302 5.576v-3.14z" fill="#5826C5"/><path fill-rule="evenodd" clip-rule="evenodd" d="M760.694 288.942c1.098-1.81 2.199-3.657 3.299-5.466v2.944c-1.101 1.81-2.201 3.619-3.299 5.429v-2.907z" fill="#FFD16B"/><path fill-rule="evenodd" clip-rule="evenodd" d="M766.139 279.894c1.097-1.846 2.198-3.656 3.298-5.503v3.065a3933.531 3933.531 0 00-3.298 5.428v-2.99zm5.444-9.047a381.221 381.221 0 013.299-5.503v3.139a657.33 657.33 0 00-3.299 5.464v-3.1zm-10.889 26.291a5118.68 5118.68 0 013.299-5.316v2.99c-1.1 1.734-2.201 3.509-3.299 5.244v-2.918zm5.445-8.788l3.298-5.318v3.027c-1.1 1.809-2.201 3.547-3.298 5.319v-3.028zm5.444-8.79a307.587 307.587 0 013.299-5.316v3.137a612.87 612.87 0 00-3.299 5.281v-3.102zm5.441-8.825a3073.54 3073.54 0 013.302-5.316v3.249c-1.103 1.772-2.204 3.507-3.302 5.279v-3.212zm-21.772 43.17c1.1-1.737 2.198-3.48 3.298-5.171v2.842c-1.1 1.7-2.198 3.4-3.298 5.134v-2.805zm5.442-8.568c1.098-1.7 2.199-3.435 3.299-5.134v2.917l-3.299 5.086v-2.869zm10.889-17.024c1.098-1.772 2.198-3.48 3.299-5.207v3.138a564.64 564.64 0 00-3.299 5.134v-3.065zm5.441-8.569c1.098-1.734 2.199-3.434 3.302-5.168v3.212l-3.302 5.086v-3.13zm-16.33 33.826l3.299-4.984v2.918c-1.1 1.662-2.201 3.287-3.299 4.949v-2.883zm5.445-8.271c1.097-1.662 2.198-3.321 3.298-5.021v3.027a634.663 634.663 0 01-3.298 4.949v-2.955zm5.444-8.271c1.098-1.7 2.198-3.362 3.299-5.021v3.137a512.277 512.277 0 00-3.299 4.949v-3.065zm5.441-8.271c1.098-1.662 2.199-3.324 3.302-5.024v3.212c-1.103 1.659-2.204 3.322-3.302 4.946v-3.134zm-21.772 41.026c1.1-1.625 2.198-3.249 3.298-4.837v2.843a539.338 539.338 0 00-3.298 4.799v-2.805zm5.442-8.014c1.098-1.625 2.199-3.212 3.299-4.837v2.945l-3.299 4.762v-2.87zm10.889-15.988c1.098-1.662 2.198-3.252 3.299-4.877v3.14a440.427 440.427 0 00-3.299 4.802v-3.065zm5.441-8.052c1.098-1.587 2.199-3.212 3.302-4.836v3.212c-1.103 1.624-2.204 3.212-3.302 4.799v-3.175zm-21.772 39.956c1.1-1.55 2.198-3.14 3.298-4.69v2.88c-1.1 1.553-2.198 3.065-3.298 4.653v-2.843zm5.442-7.755l3.299-4.652v2.945c-1.1 1.552-2.201 3.065-3.299 4.617v-2.91z" fill="#5826C5"/><path fill-rule="evenodd" clip-rule="evenodd" d="M766.139 322.214a630.677 630.677 0 003.298-4.728v3.065c-1.1 1.588-2.201 3.103-3.298 4.652v-2.989z" fill="#FFD16B"/><path fill-rule="evenodd" clip-rule="evenodd" d="M771.583 314.456c1.098-1.587 2.198-3.137 3.299-4.689v3.14l-3.299 4.652v-3.103zm-16.331 31.206a263.876 263.876 0 013.298-4.551v2.843c-1.1 1.515-2.198 2.993-3.298 4.508v-2.8zm5.442-7.495l3.299-4.551v2.99l-3.299 4.433v-2.872zm5.445-7.498c1.097-1.515 2.198-2.992 3.298-4.55v3.065c-1.1 1.515-2.201 2.992-3.298 4.505v-3.02zm5.444-7.46c1.098-1.55 2.198-3.027 3.299-4.55v3.137c-1.101 1.515-2.201 2.99-3.299 4.505v-3.092zm5.441-7.495c1.098-1.515 2.199-3.031 3.302-4.55v3.25c-1.103 1.512-2.204 2.989-3.302 4.467v-3.167zm-16.33 30.649c1.098-1.478 2.199-2.918 3.299-4.358v2.945l-3.299 4.32v-2.907zm5.445-7.2c1.097-1.478 2.198-2.918 3.298-4.396v3.065l-3.298 4.32v-2.989zm5.444-7.238a393.19 393.19 0 013.299-4.358v3.14l-3.299 4.32v-3.102zm5.441-7.238c1.098-1.44 2.199-2.88 3.302-4.358v3.25c-1.103 1.44-2.204 2.88-3.302 4.32v-3.212z" fill="#5826C5"/><path fill-rule="evenodd" clip-rule="evenodd" d="M755.252 361.54c1.1-1.44 2.198-2.843 3.298-4.245v2.842c-1.1 1.403-2.198 2.771-3.298 4.173v-2.77z" fill="#FFD16B"/><path fill-rule="evenodd" clip-rule="evenodd" d="M760.694 354.562l3.299-4.211v2.945c-1.1 1.365-2.201 2.77-3.299 4.135v-2.869zm5.445-6.944l3.298-4.208v3.028c-1.1 1.402-2.201 2.767-3.298 4.135v-2.955zm10.885-13.921l3.302-4.211v3.212c-1.103 1.403-2.204 2.768-3.302 4.173v-3.174zm-21.772 35.782c1.1-1.365 2.198-2.73 3.298-4.06v2.842a4671.321 4671.321 0 01-3.298 3.989v-2.771zm5.442-6.729c1.098-1.339 2.199-2.698 3.299-4.015v2.917a1837.426 1837.426 0 00-3.299 3.989v-2.891zm5.445-6.673a649.388 649.388 0 003.298-4.063v3.027a319.686 319.686 0 01-3.298 4.015v-2.979zm5.444-6.687c1.098-1.365 2.198-2.695 3.299-4.06v3.139l-3.299 3.986v-3.065zm-16.331 28.031c1.1-1.338 2.198-2.623 3.298-3.916v2.843c-1.1 1.292-2.198 2.548-3.298 3.841v-2.768zm5.442-6.464c1.098-1.294 2.198-2.586 3.299-3.876v2.944c-1.1 1.256-2.201 2.548-3.299 3.804v-2.872zm5.445-6.387c1.097-1.293 2.198-2.586 3.298-3.916v3.03c-1.1 1.29-2.201 2.583-3.298 3.838v-2.952zm5.444-6.427c1.098-1.338 2.198-2.62 3.299-3.913v3.137a316.094 316.094 0 00-3.299 3.841v-3.065zm-10.889 21.012c1.098-1.255 2.199-2.473 3.299-3.728v2.944c-1.1 1.255-2.201 2.476-3.299 3.694v-2.91z" fill="#5826C5"/><path fill-rule="evenodd" clip-rule="evenodd" d="M766.139 372.988a360.296 360.296 0 003.298-3.729v3.065a1430.875 1430.875 0 00-3.298 3.657v-2.993z" fill="#FFD16B"/><path fill-rule="evenodd" clip-rule="evenodd" d="M771.583 366.821c1.098-1.255 2.198-2.473 3.299-3.729v3.175l-3.299 3.656v-3.102zm-16.331 26.443c1.1-1.218 2.198-2.409 3.298-3.581v2.88c-1.1 1.18-2.198 2.326-3.298 3.507v-2.806zm0 87.296c1.1-.629 2.198-1.22 3.298-1.809v2.88c-1.1.554-2.198 1.143-3.298 1.735v-2.806zm5.442-93.206c1.098-1.183 2.198-2.365 3.299-3.546v2.944c-1.1 1.18-2.201 2.326-3.299 3.509v-2.907z" fill="#5826C5"/><path fill-rule="evenodd" clip-rule="evenodd" d="M760.694 477.581a149.09 149.09 0 013.299-1.809v2.944l-3.299 1.772v-2.907zm5.445-96.137l3.298-3.544v3.028c-1.1 1.217-2.201 2.363-3.298 3.546v-3.03z" fill="#FFD16B"/><path fill-rule="evenodd" clip-rule="evenodd" d="M766.139 474.578a129.222 129.222 0 013.298-1.81v3.028c-1.1.626-2.201 1.18-3.298 1.772v-2.99zm5.444-99.004a223.188 223.188 0 013.299-3.581v3.137a4992.164 4992.164 0 00-3.299 3.546v-3.102zm5.441-5.91c1.098-1.181 2.199-2.364 3.302-3.582v3.25a356.378 356.378 0 01-3.302 3.509v-3.177zm0 98.894c1.098-.591 2.199-1.18 3.302-1.809v3.249l-3.302 1.772v-3.212zm-21.772-67.357c1.1-1.143 2.198-2.289 3.298-3.397v2.843a277.832 277.832 0 00-3.298 3.362v-2.808zm0 87.299l3.298-1.663v2.843c-1.1.554-2.198 1.071-3.298 1.625V488.5zm5.442-92.95a282.635 282.635 0 003.299-3.396v2.944l-3.299 3.322v-2.87zm0 90.217l3.299-1.662v2.944c-1.1.517-2.201 1.071-3.299 1.587v-2.869zm16.33-107.091c1.098-1.145 2.199-2.29 3.302-3.434v3.212c-1.103 1.146-2.204 2.251-3.302 3.359v-3.137zm0 98.905l3.302-1.662v3.212c-1.103.554-2.204 1.071-3.302 1.625v-3.175zm-21.772-68.441c1.1-1.108 2.198-2.179 3.298-3.249v2.842c-1.1 1.071-2.198 2.107-3.298 3.212v-2.805zm0 87.299c1.1-.479 2.198-.999 3.298-1.478v2.843c-1.1.482-2.198.923-3.298 1.44v-2.805zm5.442-92.69l3.299-3.212v2.918c-1.1 1.07-2.201 2.141-3.299 3.174v-2.88zm0 90.216c1.098-.481 2.199-.998 3.299-1.477v2.918l-3.299 1.44v-2.881z" fill="#5826C5"/><path fill-rule="evenodd" clip-rule="evenodd" d="M771.583 393.04c1.098-1.109 2.198-2.179 3.299-3.25v3.102l-3.299 3.213v-3.065z" fill="#FFD16B"/><path fill-rule="evenodd" clip-rule="evenodd" d="M771.583 489.054c1.098-.519 2.198-.999 3.299-1.515v3.14l-3.299 1.44v-3.065zm5.441-101.411c1.098-1.07 2.199-2.141 3.302-3.249v3.212l-3.302 3.212v-3.175zm0 98.935c1.098-.517 2.199-.996 3.302-1.513v3.212l-3.302 1.441v-3.14zm-21.772-69.491l3.298-3.099v2.832c-1.1 1.033-2.198 2.031-3.298 3.064v-2.797z" fill="#5826C5"/><path fill-rule="evenodd" clip-rule="evenodd" d="M755.252 504.378l3.298-1.338v2.845c-1.1.442-2.198.849-3.298 1.29v-2.797z" fill="#FFD16B"/><path fill-rule="evenodd" clip-rule="evenodd" d="M760.694 411.985c1.098-1.035 2.198-2.069 3.299-3.102v2.945c-1.1.998-2.201 1.994-3.299 3.03v-2.873zm0 90.177l3.299-1.338v2.944c-1.1.407-2.201.851-3.299 1.255v-2.861zm5.445-95.273c1.097-1.035 2.197-2.069 3.298-3.102v3.027c-1.1.999-2.201 2.032-3.298 3.027v-2.952zm0 93.094l3.298-1.338v3.027c-1.1.407-2.201.848-3.298 1.255v-2.944zm5.444-98.19a122.284 122.284 0 013.299-3.103v3.103c-1.101.995-2.201 2.031-3.299 3.027v-3.027zm0 95.976l3.299-1.338v3.137c-1.101.407-2.201.851-3.299 1.258v-3.057zm5.441-101.111l3.302-3.102v3.212c-1.103 1.033-2.204 2.029-3.302 3.028v-3.138zm0 98.932c1.098-.444 2.199-.888 3.302-1.367v3.212c-1.103.444-2.204.851-3.302 1.293v-3.138zm-21.772-70.606c1.1-.961 2.198-1.957 3.298-2.918v2.88c-1.1.961-2.198 1.874-3.298 2.881v-2.843zm0 87.296c1.1-.37 2.198-.774 3.298-1.143v2.848c-1.1.369-2.198.776-3.298 1.146v-2.851zm10.887-96.973c1.097-.961 2.198-1.956 3.298-2.944v3.065a123.842 123.842 0 01-3.298 2.88v-3.001zm0 93.097c1.097-.37 2.198-.776 3.298-1.183v3.065c-1.1.406-2.201.776-3.298 1.145v-3.027zm5.444-97.934c1.098-.998 2.198-1.956 3.299-2.944v3.177l-3.299 2.88v-3.113zm0 96.02c1.098-.404 2.198-.773 3.299-1.18v3.14c-1.101.366-2.201.773-3.299 1.142v-3.102zm5.441-100.856c1.098-.999 2.199-1.96 3.302-2.945v3.25l-3.302 2.88v-3.185zm0 98.891c1.098-.369 2.199-.776 3.302-1.18v3.249c-1.103.407-2.204.774-3.302 1.143v-3.212zm-16.33-76.182l3.299-2.768v2.99c-1.1.886-2.201 1.81-3.299 2.696v-2.918zm0 90.216l3.299-.998v2.944c-1.1.332-2.201.627-3.299.959v-2.905zm5.445-94.796c1.097-.921 2.198-1.809 3.298-2.768v3.065c-1.1.924-2.201 1.81-3.298 2.733v-3.03zm0 93.134c1.097-.332 2.198-.701 3.298-1.036v3.068c-1.1.332-2.201.626-3.298.958v-2.99zm5.444-97.668c1.098-.961 2.198-1.874 3.299-2.808v3.177c-1.101.886-2.201 1.81-3.299 2.73v-3.099zm0 95.968l3.299-.996v3.138c-1.101.334-2.201.666-3.299.961v-3.103zm5.441-100.591l3.302-2.771v3.25c-1.103.923-2.204 1.809-3.302 2.733v-3.212zm0 98.929c1.098-.332 2.199-.664 3.302-1.033v3.25c-1.103.331-2.204.663-3.302.96v-3.177zm-21.772-72.625c1.1-.886 2.198-1.772 3.298-2.623v2.846l-3.298 2.545v-2.768zm0 87.286l3.298-.886v2.845a94.12 94.12 0 01-3.298.803v-2.762zm5.442-91.617a196.029 196.029 0 013.299-2.623v2.918l-3.299 2.548v-2.843zm0 90.177c1.098-.268 2.199-.555 3.299-.849v2.944l-3.299.774v-2.869zm5.445-94.5c1.097-.886 2.198-1.734 3.298-2.62v3.027l-3.298 2.548v-2.955zm0 93.097c1.097-.295 2.198-.554 3.298-.849v3.028c-1.1.267-2.201.516-3.298.803v-2.982zm5.444-97.417c1.098-.886 2.198-1.734 3.299-2.62v3.139l-3.299 2.546v-3.065zm0 96.014a105.79 105.79 0 013.299-.851v3.102c-1.101.268-2.201.555-3.299.803v-3.054zm-16.331-75.111c1.1-.849 2.198-1.663 3.298-2.474v2.843c-1.1.803-2.198 1.587-3.298 2.409v-2.778zm0 87.296c1.1-.268 2.198-.48 3.298-.702v2.846c-1.1.219-2.198.404-3.298.626v-2.77zm5.442-91.36l3.299-2.436v2.918c-1.1.803-2.201 1.587-3.299 2.409v-2.891zm0 90.217c1.098-.268 2.199-.482 3.299-.702v2.918c-1.1.22-2.201.442-3.299.626v-2.842zm5.445-94.277l3.298-2.439v3.03c-1.1.803-2.201 1.588-3.298 2.409v-3zm0 93.094l3.298-.664v3.027c-1.1.185-2.201.407-3.298.629v-2.992z" fill="#5826C5"/><path fill-rule="evenodd" clip-rule="evenodd" d="M771.583 436.689a175.951 175.951 0 013.299-2.473v3.137a152.41 152.41 0 00-3.299 2.409v-3.073z" fill="#FFD16B"/><path fill-rule="evenodd" clip-rule="evenodd" d="M771.583 532.666l3.299-.667v3.102a99.606 99.606 0 01-3.299.629v-3.064zm5.441-100.04a167.813 167.813 0 003.302-2.474v3.213c-1.103.803-2.204 1.624-3.302 2.409v-3.148zm0 98.894c1.098-.222 2.199-.444 3.302-.701v3.212l-3.302.664v-3.175zm-21.772-74.742c1.1-.776 2.198-1.55 3.298-2.289v2.806c-1.1.776-2.198 1.515-3.298 2.253v-2.77zm0 87.299l3.298-.554v2.85c-1.1.148-2.198.332-3.298.479v-2.775zm5.442-91.103c1.098-.776 2.199-1.515 3.299-2.288v2.944l-3.299 2.216v-2.872zm0 90.214l3.299-.551v2.944c-1.1.147-2.201.297-3.299.482v-2.875zm5.445-93.98l3.298-2.326v3.027c-1.1.777-2.201 1.515-3.298 2.254v-2.955zm0 93.094l3.298-.554v3.019c-1.1.185-2.201.332-3.298.479v-2.944zm5.444-96.898c1.098-.776 2.198-1.515 3.299-2.288v3.1c-1.101.776-2.201 1.515-3.299 2.253v-3.065zm0 96.012l3.299-.554v3.14c-1.101.147-2.201.331-3.299.479v-3.065zm5.441-99.815c1.098-.739 2.199-1.515 3.302-2.289v3.212c-1.103.774-2.204 1.513-3.302 2.251v-3.174zm0 98.929l3.302-.554v3.212c-1.103.184-2.204.334-3.302.482v-3.14zm-16.33-79.394l3.299-2.104v2.944c-1.1.701-2.201 1.368-3.299 2.069v-2.909zm0 90.213c1.098-.11 2.199-.268 3.299-.369v2.944l-3.299.332v-2.907zm5.445-93.723c1.097-.701 2.198-1.402 3.298-2.141v3.065c-1.1.701-2.201 1.402-3.298 2.069v-2.993zm0 93.097c1.097-.112 2.198-.222 3.298-.369v3.064l-3.298.332v-3.027zm5.444-96.603c1.098-.739 2.198-1.44 3.299-2.141v3.137c-1.102.701-2.201 1.403-3.299 2.106v-3.102zm0 95.974c1.098-.11 2.198-.219 3.299-.369v3.177c-1.101.11-2.201.185-3.299.294v-3.102zm5.441-99.521c1.098-.701 2.199-1.402 3.302-2.141v3.249a1447.73 1447.73 0 00-3.302 2.107v-3.215zm0 98.932c1.098-.15 2.199-.268 3.302-.407v3.25l-3.302.332v-3.175zm-21.772-76.886l3.298-1.994v2.882c-1.1.664-2.198 1.291-3.298 1.92v-2.808zm0 87.298l3.298-.222v2.88c-1.1.038-2.198.113-3.298.148v-2.806zm5.442-90.548l3.299-1.991v2.99l-3.299 1.873v-2.872zm0 90.179l3.299-.222v2.992c-1.1.038-2.201.11-3.299.148v-2.918zm5.445-93.463a157.585 157.585 0 003.298-1.96v3.065c-1.1.629-2.201 1.293-3.298 1.922v-3.027zm5.444-3.25c1.098-.666 2.198-1.338 3.299-1.959v3.14c-1.101.629-2.201 1.293-3.299 1.919v-3.1zm0 96.012l3.299-.222v3.177a90.67 90.67 0 00-3.299.147v-3.102zm5.441-99.264l3.302-1.991v3.249c-1.103.664-2.204 1.29-3.302 1.919v-3.177zm-16.33 108.204c1.098-.037 2.199-.037 3.299-.075v2.918h-3.299v-2.843zm16.33-.3c1.098 0 2.199-.037 3.302-.072v3.212h-3.302v-3.14z" fill="#5826C5"/><path d="M103.531 196.381h-12.44v3.327h12.44v-3.327zm-20.522 0h-12.44v3.327h12.44v-3.327zm-41.05 0H29.522v3.327H41.96v-3.327zm-20.519 0H9v3.327h12.44v-3.327zm82.091 9.43h-12.44v3.327h12.44v-3.327zm-20.522 0h-12.44v3.327h12.44v-3.327zm-20.525 0h-12.44v3.327h12.44v-3.327zm-20.525 0H29.522v3.327H41.96v-3.327zm-20.519 0H9v3.327h12.44v-3.327zm82.091 9.427h-12.44v3.327h12.44v-3.327zm-41.047 0h-12.44v3.327h12.44v-3.327zm-20.525 0H29.522v3.327H41.96v-3.327zm-20.519 0H9v3.327h12.44v-3.327zm82.091 9.43h-12.44v3.328h12.44v-3.328zm-20.522 0h-12.44v3.328h12.44v-3.328zm-20.525 0h-12.44v3.328h12.44v-3.328zm-20.525 0H29.522v3.328H41.96v-3.328zm61.572 9.43h-12.44v3.328h12.44v-3.328zm-20.522 0h-12.44v3.328h12.44v-3.328zm-20.525 0h-12.44v3.328h12.44v-3.328zm-20.525 0H29.522v3.328H41.96v-3.328zm-20.519 0H9v3.328h12.44v-3.328zm61.569 9.43h-12.44v3.328h12.44v-3.328zm-20.525 0h-12.44v3.328h12.44v-3.328zm-20.525 0H29.522v3.328H41.96v-3.328zm41.05 9.431h-12.44v3.327h12.44v-3.327zm-20.525 0h-12.44v3.327h12.44v-3.327zm-20.525 0H29.522v3.327H41.96v-3.327zm-20.519 0H9v3.327h12.44v-3.327zm82.091 9.43h-12.44v3.327h12.44v-3.327zm-20.522 0h-12.44v3.327h12.44v-3.327zm-41.05 0H29.522v3.327H41.96v-3.327zm-20.519 0H9v3.327h12.44v-3.327zm61.569 9.43h-12.44v3.327h12.44v-3.327zm-20.525 0h-12.44v3.327h12.44v-3.327zm-20.525 0H29.522v3.327H41.96v-3.327zm-20.519 0H9v3.327h12.44v-3.327zm82.091 9.43h-12.44v3.327h12.44v-3.327zm-20.522 0h-12.44v3.327h12.44v-3.327zm-41.05 0H29.522v3.327H41.96v-3.327zm-20.519 0H9v3.327h12.44v-3.327zm82.091 9.43h-12.44v3.327h12.44v-3.327zm-20.522 0h-12.44v3.327h12.44v-3.327zm-20.525 0h-12.44v3.327h12.44v-3.327zm-20.525 0H29.522v3.327H41.96v-3.327zm61.572 9.43h-12.44v3.327h12.44v-3.327zm-20.522 0h-12.44v3.327h12.44v-3.327zm-20.525 0h-12.44v3.327h12.44v-3.327zm-20.525 0H29.522v3.327H41.96v-3.327zm-20.519 0H9v3.327h12.44v-3.327zm61.569 9.428h-12.44v3.327h12.44v-3.327zm-20.525 0h-12.44v3.327h12.44v-3.327zm-20.525 0H29.522v3.327H41.96v-3.327zm-20.519 0H9v3.327h12.44v-3.327zm82.091 9.43h-12.44v3.327h12.44v-3.327zm-20.522 0h-12.44v3.327h12.44v-3.327zm-20.525 0h-12.44v3.327h12.44v-3.327zm-41.044 0H9v3.327h12.44v-3.327zm82.091 9.43h-12.44v3.327h12.44v-3.327zm-20.522 0h-12.44v3.327h12.44v-3.327zm-20.525 0h-12.44v3.327h12.44v-3.327zm-20.525 0H29.522v3.327H41.96v-3.327zm61.572 9.43h-12.44v3.327h12.44v-3.327zm-20.522 0h-12.44v3.327h12.44v-3.327zm-20.525 0h-12.44v3.327h12.44v-3.327zm-20.525 0H29.522v3.327H41.96v-3.327zm41.05 9.43h-12.44v3.327h12.44v-3.327zm-20.525 0h-12.44v3.327h12.44v-3.327zm-20.525 0H29.522v3.327H41.96v-3.327zm61.572 9.43h-12.44v3.327h12.44v-3.327zm0 103.729h-12.44v3.327h12.44v-3.327zM83.009 356.687h-12.44v3.327h12.44v-3.327zm0 103.729h-12.44v3.327h12.44v-3.327zM62.484 356.687h-12.44v3.327h12.44v-3.327zm0 103.729h-12.44v3.327h12.44v-3.327zM41.959 356.687H29.522v3.327H41.96v-3.327zm-20.519 0H9v3.327h12.44v-3.327zm0 103.729H9v3.327h12.44v-3.327zm82.091-94.299h-12.44v3.327h12.44v-3.327zm0 103.729h-12.44v3.327h12.44v-3.327zM83.009 366.117h-12.44v3.327h12.44v-3.327zm0 103.729h-12.44v3.327h12.44v-3.327zM21.44 366.117H9v3.327h12.44v-3.327zm0 103.729H9v3.327h12.44v-3.327zm82.091-94.299h-12.44v3.327h12.44v-3.327zm0 103.726h-12.44v3.327h12.44v-3.327zM83.009 375.547h-12.44v3.327h12.44v-3.327zm0 103.726h-12.44v3.327h12.44v-3.327zm-41.05-103.726H29.522v3.327H41.96v-3.327zm0 103.726H29.522v3.327H41.96v-3.327zM21.44 375.547H9v3.327h12.44v-3.327zm0 103.726H9v3.327h12.44v-3.327zm82.091-94.296h-12.44v3.327h12.44v-3.327zm0 103.726h-12.44v3.327h12.44v-3.327zM83.009 384.977h-12.44v3.327h12.44v-3.327zm0 103.726h-12.44v3.327h12.44v-3.327zM62.484 384.977h-12.44v3.327h12.44v-3.327zm0 103.726h-12.44v3.327h12.44v-3.327zM41.959 384.977H29.522v3.327H41.96v-3.327zm0 103.726H29.522v3.327H41.96v-3.327zM21.44 384.977H9v3.327h12.44v-3.327zm0 103.726H9v3.327h12.44v-3.327zm82.091-94.296h-12.44v3.328h12.44v-3.328zm0 103.726h-12.44v3.327h12.44v-3.327zM62.484 394.407h-12.44v3.328h12.44v-3.328zm0 103.726h-12.44v3.327h12.44v-3.327zM41.959 394.407H29.522v3.328H41.96v-3.328zm0 103.726H29.522v3.327H41.96v-3.327zM21.44 394.407H9v3.328h12.44v-3.328zm0 103.726H9v3.327h12.44v-3.327zm61.569-94.298h-12.44v3.327h12.44v-3.327zm0 103.728h-12.44v3.328h12.44v-3.328zM62.484 403.835h-12.44v3.327h12.44v-3.327zm0 103.728h-12.44v3.328h12.44v-3.328zM41.959 403.835H29.522v3.327H41.96v-3.327zm0 103.728H29.522v3.328H41.96v-3.328zM21.44 403.835H9v3.327h12.44v-3.327zm0 103.728H9v3.328h12.44v-3.328zm82.091-94.298h-12.44v3.327h12.44v-3.327zm0 103.728h-12.44v3.328h12.44v-3.328zM83.009 413.265h-12.44v3.327h12.44v-3.327zm0 103.728h-12.44v3.328h12.44v-3.328zM62.484 413.265h-12.44v3.327h12.44v-3.327zm0 103.728h-12.44v3.328h12.44v-3.328zM41.959 413.265H29.522v3.327H41.96v-3.327zm0 103.728H29.522v3.328H41.96v-3.328zm61.572-94.298h-12.44v3.327h12.44v-3.327zm0 103.729h-12.44v3.327h12.44v-3.327zM83.009 422.695h-12.44v3.327h12.44v-3.327zm0 103.729h-12.44v3.327h12.44v-3.327zM62.484 422.695h-12.44v3.327h12.44v-3.327zm0 103.729h-12.44v3.327h12.44v-3.327zM41.959 422.695H29.522v3.327H41.96v-3.327zm0 103.729H29.522v3.327H41.96v-3.327zM21.44 422.695H9v3.327h12.44v-3.327zm0 103.729H9v3.327h12.44v-3.327zm82.091-94.299h-12.44v3.327h12.44v-3.327zm0 103.729h-12.44v3.327h12.44v-3.327zM83.009 432.125h-12.44v3.327h12.44v-3.327zm0 103.729h-12.44v3.327h12.44v-3.327zM62.484 432.125h-12.44v3.327h12.44v-3.327zm0 103.729h-12.44v3.327h12.44v-3.327zM41.959 432.125H29.522v3.327H41.96v-3.327zm0 103.729H29.522v3.327H41.96v-3.327zM21.44 432.125H9v3.327h12.44v-3.327zm0 103.729H9v3.327h12.44v-3.327zm61.569-94.299h-12.44v3.327h12.44v-3.327zm0 103.729h-12.44v3.327h12.44v-3.327zM62.484 441.555h-12.44v3.327h12.44v-3.327zm0 103.729h-12.44v3.327h12.44v-3.327zM41.959 441.555H29.522v3.327H41.96v-3.327zm0 103.729H29.522v3.327H41.96v-3.327zM21.44 441.555H9v3.327h12.44v-3.327zm0 103.729H9v3.327h12.44v-3.327zm82.091-94.299h-12.44v3.328h12.44v-3.328zm0 103.729h-12.44v3.327h12.44v-3.327zM83.009 450.985h-12.44v3.328h12.44v-3.328zm0 103.729h-12.44v3.327h12.44v-3.327zM62.484 450.985h-12.44v3.328h12.44v-3.328zm-20.525 0H29.522v3.328H41.96v-3.328zm0 103.729H29.522v3.327H41.96v-3.327zM21.44 450.985H9v3.328h12.44v-3.328zm61.569 113.159h-12.44v3.327h12.44v-3.327zm-61.569 0H9v3.327h12.44v-3.327z" fill="#7E44FE"/><path fill-rule="evenodd" clip-rule="evenodd" d="M161.234 245.702a487.669 487.669 0 00-6.653-6.507v2.968c2.222 2.142 4.439 4.262 6.653 6.424v-2.885zm-10.981-10.731c-2.217-2.168-4.431-4.299-6.653-6.467v3.043c2.222 2.142 4.436 4.299 6.653 6.425v-3.001zm-21.966-21.384c-2.217-2.206-4.434-4.337-6.653-6.508v3.274c2.219 2.141 4.436 4.261 6.653 6.424v-3.19zm-10.985-10.731a1810.07 1810.07 0 01-6.656-6.467v3.348c2.219 2.168 4.441 4.299 6.656 6.424v-3.305zm43.932 51.029a688.9 688.9 0 00-6.653-6.355v2.969c2.222 2.09 4.439 4.146 6.653 6.277v-2.891zm-10.981-10.466c-2.217-2.09-4.435-4.182-6.653-6.277v3.043c2.222 2.093 4.436 4.149 6.653 6.24v-3.006zm-10.983-10.426a1199.601 1199.601 0 01-6.654-6.317v3.158c2.222 2.094 4.44 4.187 6.654 6.28v-3.121zm-10.983-10.389a507.236 507.236 0 00-6.653-6.354v3.274a907.797 907.797 0 016.653 6.239v-3.159zm-10.985-10.463c-2.215-2.093-4.437-4.186-6.656-6.317v3.349c2.219 2.093 4.441 4.186 6.656 6.239v-3.271z" fill="#5826C5"/><path fill-rule="evenodd" clip-rule="evenodd" d="M161.234 262.065a408.636 408.636 0 00-6.653-6.157v2.945a810.478 810.478 0 016.653 6.086v-2.874z" fill="#FFD16B"/><path fill-rule="evenodd" clip-rule="evenodd" d="M139.27 241.746a4217.027 4217.027 0 00-6.654-6.157v3.121c2.222 2.053 4.437 4.072 6.654 6.087v-3.051zm-10.983-10.156c-2.217-2.093-4.434-4.109-6.653-6.156v3.212a922.362 922.362 0 016.653 6.087v-3.143zm-10.985-10.171a2297.202 2297.202 0 00-6.656-6.157v3.309c2.219 2.055 4.441 4.074 6.656 6.089v-3.241zm43.932 48.828a781.42 781.42 0 00-6.653-6.012v2.929c2.222 1.977 4.44 3.956 6.653 5.937v-2.854zm-10.981-9.933l-6.653-5.934v3.006c2.222 1.978 4.436 3.956 6.653 5.889v-2.961zm-10.983-9.855a505.407 505.407 0 01-6.654-6.012v3.121a531.324 531.324 0 006.654 5.937v-3.046zm-10.983-9.856c-2.217-2.053-4.434-4.031-6.653-6.012v3.196c2.219 1.981 4.436 3.959 6.653 5.974v-3.158zm32.947 37.83a407.892 407.892 0 00-6.653-5.822v2.878c2.222 1.94 4.439 3.843 6.653 5.784v-2.84zm-10.981-9.636l-6.653-5.822v3.046c2.222 1.9 4.436 3.804 6.653 5.744v-2.968zm-10.983-9.623a460.11 460.11 0 01-6.654-5.822v3.132c2.222 1.943 4.437 3.884 6.654 5.784v-3.094zm-10.983-9.591c-2.217-1.978-4.434-3.881-6.653-5.822v3.196c2.219 1.941 4.436 3.844 6.653 5.785v-3.159zm-10.985-9.625c-2.214-1.94-4.432-3.881-6.656-5.822v3.311c2.219 1.938 4.441 3.841 6.656 5.744v-3.233zm32.951 37.252c-2.217-1.874-4.431-3.766-6.653-5.621v3.043c2.222 1.867 4.44 3.731 6.653 5.594v-3.016zm-10.983-9.323c-2.217-1.903-4.432-3.766-6.654-5.67v3.159c2.222 1.866 4.44 3.731 6.654 5.594v-3.083zm-10.983-9.323c-2.217-1.941-4.434-3.804-6.653-5.67v3.236c2.219 1.874 4.436 3.729 6.653 5.622v-3.188zm21.966 27.096l-6.653-5.479v3.07c2.222 1.791 4.436 3.616 6.653 5.404v-2.995zm-10.983-9.058a4826.389 4826.389 0 00-6.654-5.479v3.118c2.222 1.874 4.437 3.654 6.654 5.479v-3.118zm-10.983-9.058a434.504 434.504 0 00-6.653-5.479v3.236c2.219 1.788 4.436 3.614 6.653 5.439v-3.196zm-10.985-9.093a3136.123 3136.123 0 00-6.656-5.479v3.349c2.219 1.825 4.441 3.613 6.656 5.439v-3.309zm43.932 44.482a714.623 714.623 0 00-6.653-5.327v2.931a663.26 663.26 0 016.653 5.287v-2.891zm-10.981-8.828c-2.217-1.75-4.431-3.538-6.653-5.289v3.001c2.222 1.75 4.44 3.501 6.653 5.251v-2.963zm-21.966-17.546c-2.217-1.825-4.434-3.576-6.653-5.353v3.233a797.279 797.279 0 016.653 5.29v-3.17zm-10.985-8.833c-2.215-1.788-4.437-3.539-6.656-5.327v3.311l6.656 5.252v-3.236zm32.951 34.864l-6.653-5.136v3.006c2.222 1.713 4.436 3.386 6.653 5.086v-2.956zm-10.983-8.522a906.635 906.635 0 01-6.654-5.177v3.121c2.222 1.713 4.437 3.426 6.654 5.086v-3.03zm-10.983-8.526c-2.217-1.75-4.434-3.461-6.653-5.174v3.234c2.219 1.675 4.436 3.388 6.653 5.085v-3.145zm-10.985-8.522c-2.215-1.713-4.437-3.424-6.656-5.174v3.308a589.403 589.403 0 006.656 5.086v-3.22zm43.932 42.276a612.454 612.454 0 00-6.653-4.984v2.934a697.13 697.13 0 016.653 4.946v-2.896zm-10.981-8.258c-2.217-1.673-4.431-3.311-6.653-4.984v3.044c2.222 1.636 4.44 3.272 6.653 4.909v-2.969z" fill="#5826C5"/><path fill-rule="evenodd" clip-rule="evenodd" d="M128.287 294.563c-2.217-1.713-4.434-3.349-6.653-5.024v3.233c2.219 1.638 4.436 3.274 6.653 4.947v-3.156z" fill="#FFD16B"/><path fill-rule="evenodd" clip-rule="evenodd" d="M117.302 286.268a823.115 823.115 0 01-6.656-4.987v3.308c2.219 1.676 4.441 3.311 6.656 4.947v-3.268zm43.932 41.17c-2.214-1.606-4.431-3.233-6.653-4.818v2.969c2.222 1.606 4.439 3.158 6.653 4.794v-2.945zm-10.981-7.99a1652.338 1652.338 0 00-6.653-4.794v3.044c2.222 1.606 4.436 3.158 6.653 4.756v-3.006zm-10.983-7.952a1066.78 1066.78 0 01-6.654-4.872v3.159c2.222 1.635 4.437 3.196 6.654 4.794v-3.081zm-10.983-7.993a724.22 724.22 0 00-6.653-4.831v3.233l6.653 4.794v-3.196zm32.947 32.156a277.165 277.165 0 00-6.653-4.682v2.944c2.222 1.561 4.439 3.081 6.653 4.642v-2.904zm-10.981-7.725a9977.479 9977.479 0 00-6.653-4.682v3.094c2.222 1.521 4.44 3.043 6.653 4.567v-2.979zm-10.983-7.725c-2.217-1.561-4.432-3.081-6.654-4.679v3.156c2.222 1.56 4.437 3.083 6.654 4.644v-3.121zm-10.983-7.688c-2.217-1.606-4.434-3.118-6.653-4.679v3.247c2.219 1.56 4.436 3.084 6.653 4.644v-3.212zm-10.985-7.722c-2.214-1.56-4.432-3.12-6.656-4.682v3.349c2.219 1.56 4.441 3.083 6.656 4.604v-3.271z" fill="#5826C5"/><path fill-rule="evenodd" clip-rule="evenodd" d="M150.253 336.381a626.285 626.285 0 00-6.653-4.491v3.046c2.222 1.483 4.44 2.967 6.653 4.451v-3.006z" fill="#FFD16B"/><path fill-rule="evenodd" clip-rule="evenodd" d="M139.27 328.961c-2.217-1.523-4.432-3.006-6.654-4.529v3.159c2.222 1.483 4.44 2.967 6.654 4.451v-3.081z" fill="#5826C5"/><path fill-rule="evenodd" clip-rule="evenodd" d="M128.287 321.502a658.25 658.25 0 00-6.653-4.489v3.233l6.653 4.454v-3.198z" fill="#FFD16B"/><path fill-rule="evenodd" clip-rule="evenodd" d="M117.302 314.033c-2.215-1.482-4.437-2.968-6.656-4.488v3.348l6.656 4.451v-3.311zm43.932 37.989a427 427 0 00-6.653-4.377v2.928c2.222 1.449 4.439 2.857 6.653 4.302v-2.853zm-10.981-7.193l-6.653-4.339v3.044c2.222 1.408 4.436 2.856 6.653 4.264v-2.969zm-10.983-7.155l-6.654-4.336v3.118a671.704 671.704 0 006.654 4.262v-3.044zm-21.968-14.344l-6.656-4.339v3.311c2.219 1.445 4.441 2.853 6.656 4.299v-3.271zm43.932 36.872a578.989 578.989 0 00-6.653-4.187v2.945c2.222 1.37 4.44 2.74 6.653 4.108v-2.866zm-10.981-6.925c-2.217-1.371-4.431-2.778-6.653-4.149v3.006c2.222 1.37 4.44 2.741 6.653 4.111v-2.968zm-10.983-6.887c-2.217-1.371-4.432-2.779-6.654-4.187v3.121c2.222 1.408 4.437 2.776 6.654 4.147v-3.081zm-10.983-6.888c-2.217-1.408-4.434-2.778-6.653-4.186v3.234l6.653 4.111v-3.159zm32.947 28.869a550.427 550.427 0 00-6.653-4.031v2.928c2.222 1.339 4.439 2.626 6.653 3.959v-2.856zm-10.981-6.646l-6.653-3.997v3.044c2.222 1.295 4.436 2.626 6.653 3.918v-2.965zm-10.983-6.585a1576.775 1576.775 0 01-6.654-4.034v3.121a595.842 595.842 0 006.654 3.959v-3.046zm-10.983-6.62a572.488 572.488 0 00-6.653-4.033v3.233a608.76 608.76 0 016.653 3.959v-3.159z" fill="#5826C5"/><path fill-rule="evenodd" clip-rule="evenodd" d="M150.253 370.172c-2.217-1.295-4.431-2.551-6.653-3.843v3.043a642.03 642.03 0 006.653 3.806v-3.006z" fill="#FFD16B"/><path fill-rule="evenodd" clip-rule="evenodd" d="M139.27 363.821c-2.217-1.259-4.432-2.551-6.654-3.844v3.158l6.654 3.766v-3.08z" fill="#5826C5"/><path fill-rule="evenodd" clip-rule="evenodd" d="M128.287 357.463c-2.217-1.295-4.434-2.551-6.653-3.844v3.271l6.653 3.769v-3.196z" fill="#FFD16B"/><path fill-rule="evenodd" clip-rule="evenodd" d="M161.234 384.699a532.505 532.505 0 00-6.653-3.691v2.968c2.222 1.218 4.439 2.409 6.653 3.614v-2.891zm0 89.962c-2.214-.645-4.431-1.255-6.653-1.874v2.969c2.222.57 4.439 1.178 6.653 1.788v-2.883zm-10.981-96.041l-6.653-3.654v3.041c2.222 1.218 4.436 2.409 6.653 3.616v-3.003zm0 92.96c-2.217-.648-4.431-1.255-6.653-1.874v3.057l6.653 1.826v-3.009zm-10.983-99.049l-6.654-3.654v3.121c2.222 1.255 4.437 2.436 6.654 3.654v-3.121zm0 95.968c-2.217-.648-4.432-1.258-6.654-1.874v3.122c2.222.645 4.437 1.217 6.654 1.825v-3.073zm-10.983-102.018a579.015 579.015 0 00-6.653-3.691v3.233l6.653 3.654v-3.196zm-10.985-6.089c-2.215-1.218-4.437-2.436-6.656-3.692v3.349a607.539 607.539 0 006.656 3.616v-3.273z" fill="#5826C5"/><path fill-rule="evenodd" clip-rule="evenodd" d="M117.302 462.295a353.248 353.248 0 01-6.656-1.874v3.349l6.656 1.825v-3.3z" fill="#FFD16B"/><path fill-rule="evenodd" clip-rule="evenodd" d="M161.234 392.887c-2.214-1.178-4.431-2.358-6.653-3.498v2.928c2.222 1.143 4.439 2.283 6.653 3.464v-2.894zm0 89.957l-6.653-1.713v2.931c2.222.57 4.439 1.103 6.653 1.673v-2.891zm-10.981-95.779c-2.217-1.14-4.431-2.321-6.653-3.498v3.043c2.222 1.14 4.44 2.282 6.653 3.424v-2.969zm0 92.963l-6.653-1.713v3.046c2.222.535 4.436 1.103 6.653 1.635v-2.968zm-32.951-110.351a2302.547 2302.547 0 00-6.656-3.538v3.303c2.219 1.177 4.441 2.32 6.656 3.461v-3.226z" fill="#5826C5"/><path fill-rule="evenodd" clip-rule="evenodd" d="M117.302 471.58l-6.656-1.713v3.311c2.219.57 4.441 1.103 6.656 1.676v-3.274z" fill="#FFD16B"/><path fill-rule="evenodd" clip-rule="evenodd" d="M161.234 401.07a470.253 470.253 0 00-6.653-3.349v2.931c2.222 1.103 4.439 2.168 6.653 3.309v-2.891zm0 89.954c-2.214-.493-4.431-1.028-6.653-1.521v2.929c2.222.495 4.439.953 6.653 1.485v-2.893zm-10.981-95.511l-6.653-3.319v3.006c2.222 1.103 4.436 2.205 6.653 3.271v-2.958zm0 92.963c-2.217-.496-4.431-1.028-6.653-1.523v3.005l6.653 1.486v-2.968zm-21.966-103.997c-2.217-1.143-4.434-2.245-6.653-3.348v3.196l6.653 3.311v-3.159zm0 98.935c-2.217-.535-4.434-1.028-6.653-1.561v3.237l6.653 1.482v-3.158zm-10.985-104.491c-2.215-1.103-4.437-2.206-6.656-3.349v3.311l6.656 3.311v-3.273zm0 101.943c-2.215-.536-4.437-1.028-6.656-1.561v3.311l6.656 1.483v-3.233zm43.932-71.616l-6.653-3.196v2.931c2.222 1.071 4.439 2.093 6.653 3.158v-2.893zm0 89.957l-6.653-1.371v2.931c2.222.455 4.439.875 6.653 1.339v-2.899zm-10.981-95.206l-6.653-3.212v3.046a505.123 505.123 0 016.653 3.118v-2.952zm0 92.922l-6.653-1.37v3.043c2.222.421 4.436.876 6.653 1.296v-2.969zm-10.983-98.174l-6.654-3.196v3.119c2.222 1.027 4.437 2.093 6.654 3.121v-3.044zm0 95.929l-6.654-1.371v3.121c2.222.418 4.437.875 6.654 1.293v-3.043zm-10.983-101.181a270.491 270.491 0 00-6.653-3.196v3.196c2.219 1.028 4.436 2.094 6.653 3.121v-3.121zm0 98.897l-6.653-1.37v3.236c2.219.418 4.436.875 6.653 1.293v-3.159z" fill="#5826C5"/><path fill-rule="evenodd" clip-rule="evenodd" d="M117.302 388.208l-6.656-3.196v3.311c2.219 1.071 4.441 2.091 6.656 3.119v-3.234z" fill="#FFD16B"/><path fill-rule="evenodd" clip-rule="evenodd" d="M117.302 490.162a402.769 402.769 0 01-6.656-1.408v3.311c2.219.458 4.441.875 6.656 1.339v-3.242zm43.932-72.767c-2.214-.99-4.431-2.018-6.653-3.006v2.966c2.222.99 4.439 1.941 6.653 2.969v-2.929zm0 89.954c-2.214-.38-4.431-.803-6.653-1.18v2.931c2.222.38 4.439.803 6.653 1.18v-2.931zm-21.964-99.925c-2.217-.99-4.432-2.015-6.654-3.043v3.158a291.72 291.72 0 006.654 2.969v-3.084zm0 95.929c-2.217-.38-4.432-.803-6.654-1.218v3.159c2.222.42 4.437.803 6.654 1.18v-3.121zM128.287 402.44c-2.217-1.028-4.434-2.018-6.653-3.046v3.274l6.653 2.968v-3.196zm0 98.935c-2.217-.418-4.434-.803-6.653-1.218v3.233c2.219.383 4.436.803 6.653 1.181v-3.196zm-10.985-103.922c-2.215-1.025-4.437-2.015-6.656-3.043v3.349l6.656 2.968v-3.274zm0 101.906c-2.215-.383-4.437-.803-6.656-1.218v3.349c2.219.417 4.441.803 6.656 1.178v-3.309zm32.951-78.503c-2.217-.949-4.435-1.9-6.653-2.853v3.081c2.222.915 4.436 1.873 6.653 2.778v-3.006zm0 92.963l-6.653-1.028v3.043c2.222.343 4.436.648 6.653.991v-3.006zm-10.983-97.682c-2.217-.95-4.432-1.874-6.654-2.853v3.158c2.222.953 4.437 1.874 6.654 2.816v-3.121zm0 95.974c-2.217-.342-4.432-.722-6.654-1.07v3.158c2.222.343 4.437.645 6.654.988v-3.076zm-10.983-100.645c-2.217-.99-4.434-1.94-6.653-2.893v3.273c2.219.913 4.436 1.874 6.653 2.816v-3.196zm0 98.889l-6.653-1.028v3.236c2.219.34 4.436.683 6.653.988v-3.196zm-10.985-103.653c-2.214-.953-4.432-1.904-6.656-2.854v3.349c2.219.95 4.441 1.874 6.656 2.816v-3.311zm0 101.929c-2.215-.342-4.437-.685-6.656-1.07v3.348c2.219.343 4.441.685 6.656.991v-3.269zm43.932-74.836a429 429 0 00-6.653-2.703v2.931l6.653 2.626v-2.854zm0 89.954l-6.653-.912v2.925c2.222.305 4.439.573 6.653.838v-2.851zm-10.981-94.408c-2.217-.912-4.431-1.825-6.653-2.7v3.005l6.653 2.626v-2.931zm0 92.925c-2.217-.267-4.431-.572-6.653-.875v3.033l6.653.803v-2.961zM139.27 424.89c-2.217-.913-4.432-1.788-6.654-2.701v3.119l6.654 2.625v-3.043zm0 95.929c-2.217-.303-4.432-.571-6.654-.876v3.121c2.222.268 4.437.536 6.654.838v-3.083zm-10.983-100.38c-2.217-.913-4.434-1.789-6.653-2.704v3.236l6.653 2.626v-3.158zm0 98.934a406.27 406.27 0 00-6.653-.875v3.196c2.219.268 4.436.573 6.653.838v-3.159zm32.947-77.392a420.698 420.698 0 00-6.653-2.548v2.928c2.222.838 4.439 1.636 6.653 2.473v-2.853zm0 89.938c-2.214-.268-4.431-.493-6.653-.723v2.931c2.222.228 4.439.418 6.653.648v-2.856zm-10.981-94.13l-6.653-2.511v3.006c2.222.838 4.436 1.636 6.653 2.474v-2.969z" fill="#5826C5"/><path fill-rule="evenodd" clip-rule="evenodd" d="M150.253 530.752c-2.217-.268-4.431-.495-6.653-.723v3.006c2.222.228 4.436.455 6.653.645v-2.928zm-10.983-97.147l-6.654-2.513v3.126c2.222.838 4.437 1.636 6.654 2.474v-3.087z" fill="#FFD16B"/><path fill-rule="evenodd" clip-rule="evenodd" d="M139.27 529.534l-6.654-.685v3.121c2.222.19 4.437.417 6.654.645v-3.081zm-10.983-100.078a479.917 479.917 0 00-6.653-2.551v3.237c2.219.803 4.436 1.635 6.653 2.473v-3.159zm0 98.897l-6.653-.685v3.196c2.219.23 4.436.458 6.653.648v-3.159zM117.302 425.27a471.29 471.29 0 01-6.656-2.548v3.311c2.219.835 4.441 1.673 6.656 2.473v-3.236zm0 101.903a370.509 370.509 0 01-6.656-.723v3.311l6.656.686v-3.274zm43.932-77.017a333.533 333.533 0 00-6.653-2.359v2.891c2.222.803 4.439 1.561 6.653 2.324v-2.856zm0 89.956l-6.653-.57v2.928c2.222.153 4.439.343 6.653.496v-2.854zm-10.981-93.875c-2.217-.803-4.431-1.561-6.653-2.358v3.043l6.653 2.283v-2.968zm0 92.963l-6.653-.573v3.046c2.222.152 4.436.302 6.653.495V539.2zm-10.983-96.844l-6.654-2.409v3.118c2.222.803 4.437 1.561 6.654 2.321v-3.03zm0 95.931l-6.654-.573v3.121c2.222.19 4.437.343 6.654.495v-3.043zm-10.983-99.85c-2.217-.803-4.434-1.561-6.653-2.358v3.196c2.219.803 4.436 1.56 6.653 2.32v-3.158zm0 98.935l-6.653-.571v3.234c2.219.152 4.436.342 6.653.495v-3.158zm-10.985-102.854a482.235 482.235 0 01-6.656-2.361v3.311c2.219.803 4.441 1.561 6.656 2.321v-3.271zm0 101.951l-6.656-.57v3.311c2.219.19 4.441.343 6.656.493v-3.234zm32.951-81.822l-6.653-2.168v3.043c2.222.723 4.436 1.408 6.653 2.142v-3.017zm0 92.96c-2.217-.112-4.431-.268-6.653-.38v3.044l6.653.342v-3.006zm-10.983-96.576a488.3 488.3 0 01-6.654-2.206v3.159c2.222.722 4.437 1.445 6.654 2.141v-3.094zm0 95.931a427.23 427.23 0 01-6.654-.38v3.156l6.654.343v-3.119zm-10.983-99.545a458.21 458.21 0 00-6.653-2.208v3.236l6.653 2.168v-3.196zm0 98.897c-2.217-.115-4.434-.227-6.653-.38v3.271c2.219.115 4.436.19 6.653.305v-3.196zm-10.985-102.55c-2.215-.723-4.437-1.446-6.656-2.206v3.349l6.656 2.168v-3.311zm0 101.943c-2.215-.153-4.437-.268-6.656-.421v3.349l6.656.343v-3.271zm43.932-79.226l-6.653-2.056v2.969a393.07 393.07 0 006.653 1.978v-2.891zm0 89.954l-6.653-.228v2.969c2.222.037 4.439.115 6.653.152v-2.893zm-10.981-93.308l-6.653-2.056v3.084l6.653 1.941v-2.969zm0 92.928l-6.653-.228v3.081c2.222.04 4.436.115 6.653.153v-3.006zm-10.983-96.309c-2.217-.647-4.432-1.338-6.654-2.018v3.159c2.222.647 4.437 1.338 6.654 1.98v-3.121zm-10.983-3.348a436.16 436.16 0 00-6.653-2.019v3.236c2.219.646 4.436 1.339 6.653 1.979v-3.196zm0 98.934l-6.653-.227v3.271c2.219.04 4.436.077 6.653.152v-3.196zm-10.985-102.283l-6.656-2.056v3.349a382.7 382.7 0 006.656 1.978v-3.271z" fill="#5826C5"/><path fill-rule="evenodd" clip-rule="evenodd" d="M150.253 564.54c-2.217-.037-4.431-.037-6.653-.075v3.006h6.653v-2.931z" fill="#FFD16B"/><path fill-rule="evenodd" clip-rule="evenodd" d="M117.302 564.238c-2.215 0-4.437-.04-6.656-.078v3.311h6.656v-3.233z" fill="#5826C5"/><path d="M793.683 210.498h-13.358v3.231h13.358v-3.231zm88.161-9.152H780.325v3.231h101.519v-3.231zm-66.12 9.152h-13.358v3.231h13.358v-3.231zm44.08 0h-13.358v3.231h13.358v-3.231zm22.041 0h-13.358v3.231h13.358v-3.231zm-88.162 9.151h-13.358v3.231h13.358v-3.231zm22.041 0h-13.358v3.231h13.358v-3.231zm22.04 0h-13.358v3.231h13.358v-3.231zm22.04 0h-13.358v3.231h13.358v-3.231zm22.041 0h-13.358v3.231h13.358v-3.231zm-88.162 9.152h-13.358v3.231h13.358v-3.231zm44.081 0h-13.358v3.231h13.358v-3.231zm22.04 0h-13.358v3.231h13.358v-3.231zm22.041 0h-13.358v3.231h13.358v-3.231zm-88.162 9.152h-13.358v3.231h13.358v-3.231zm22.041 0h-13.358v3.231h13.358v-3.231zm22.04 0h-13.358v3.231h13.358v-3.231zm22.04 0h-13.358v3.231h13.358v-3.231zm-66.121 9.151h-13.358v3.231h13.358v-3.231zm22.041 0h-13.358v3.231h13.358v-3.231zm22.04 0h-13.358v3.231h13.358v-3.231zm22.04 0h-13.358v3.231h13.358v-3.231zm22.041 0h-13.358v3.231h13.358v-3.231zm-66.121 9.15h-13.358v3.23h13.358v-3.23zm22.04 0h-13.358v3.23h13.358v-3.23zm22.04 0h-13.358v3.23h13.358v-3.23zm-44.08 9.151h-13.358v3.231h13.358v-3.231zm22.04 0h-13.358v3.231h13.358v-3.231zm22.04 0h-13.358v3.231h13.358v-3.231zm22.041 0h-13.358v3.231h13.358v-3.231zm-88.162 9.152h-13.358v3.231h13.358v-3.231zm22.041 0h-13.358v3.231h13.358v-3.231zm44.08 0h-13.358v3.231h13.358v-3.231zm22.041 0h-13.358v3.231h13.358v-3.231zm-66.121 9.152h-13.358v3.231h13.358v-3.231zm22.04 0h-13.358v3.231h13.358v-3.231zm22.04 0h-13.358v3.231h13.358v-3.231zm22.041 0h-13.358v3.231h13.358v-3.231zm-88.162 9.152h-13.358v3.23h13.358v-3.23zm22.041 0h-13.358v3.23h13.358v-3.23zm44.08 0h-13.358v3.23h13.358v-3.23zm22.041 0h-13.358v3.23h13.358v-3.23zm-88.162 9.149h-13.358v3.23h13.358v-3.23zm22.041 0h-13.358v3.23h13.358v-3.23zm22.04 0h-13.358v3.23h13.358v-3.23zm22.04 0h-13.358v3.23h13.358v-3.23zm-66.121 9.151h-13.358v3.231h13.358v-3.231zm22.041 0h-13.358v3.231h13.358v-3.231zm22.04 0h-13.358v3.231h13.358v-3.231zm22.04 0h-13.358v3.231h13.358v-3.231zm22.041 0h-13.358v3.231h13.358v-3.231zm-66.121 9.152h-13.358v3.231h13.358v-3.231zm22.04 0h-13.358v3.231h13.358v-3.231zm22.04 0h-13.358v3.231h13.358v-3.231zm22.041 0h-13.358v3.231h13.358v-3.231zm-88.162 9.152h-13.358v3.23h13.358v-3.23zm22.041 0h-13.358v3.23h13.358v-3.23zm22.04 0h-13.358v3.23h13.358v-3.23zm44.081 0h-13.358v3.23h13.358v-3.23zm-88.162 9.151h-13.358v3.231h13.358v-3.231zm22.041 0h-13.358v3.231h13.358v-3.231zm22.04 0h-13.358v3.231h13.358v-3.231zm22.04 0h-13.358v3.231h13.358v-3.231zm-66.121 9.15h-13.358v3.23h13.358v-3.23zm22.041 0h-13.358v3.23h13.358v-3.23zm22.04 0h-13.358v3.23h13.358v-3.23zm22.04 0h-13.358v3.23h13.358v-3.23zm-44.08 9.151h-13.358v3.231h13.358v-3.231zm22.04 0h-13.358v3.231h13.358v-3.231zm22.04 0h-13.358v3.231h13.358v-3.231zm-66.121 9.152h-13.358v3.231h13.358v-3.231zm0 100.664h-13.358v3.23h13.358v-3.23zm22.041-100.664h-13.358v3.231h13.358v-3.231zm0 100.664h-13.358v3.23h13.358v-3.23zm22.04-100.664h-13.358v3.231h13.358v-3.231zm0 100.664h-13.358v3.23h13.358v-3.23zm22.04-100.664h-13.358v3.231h13.358v-3.231zm22.041 0h-13.358v3.231h13.358v-3.231zm0 100.664h-13.358v3.23h13.358v-3.23zm-88.162-91.512h-13.358v3.23h13.358v-3.23zm0 100.663h-13.358v3.231h13.358v-3.231zm22.041-100.663h-13.358v3.23h13.358v-3.23zm0 100.663h-13.358v3.231h13.358v-3.231zm66.121-100.663h-13.358v3.23h13.358v-3.23zm0 100.663h-13.358v3.231h13.358v-3.231zm-88.162-91.512h-13.358v3.231h13.358v-3.231zm0 100.664h-13.358v3.231h13.358v-3.231zm22.041-100.664h-13.358v3.231h13.358v-3.231zm0 100.664h-13.358v3.231h13.358v-3.231zm44.08-100.664h-13.358v3.231h13.358v-3.231zm0 100.664h-13.358v3.231h13.358v-3.231zm22.041-100.664h-13.358v3.231h13.358v-3.231zm0 100.664h-13.358v3.231h13.358v-3.231zm-88.162-91.512h-13.358v3.231h13.358v-3.231zm0 100.664h-13.358v3.231h13.358v-3.231zm22.041-100.664h-13.358v3.231h13.358v-3.231zm0 100.664h-13.358v3.231h13.358v-3.231zm22.04-100.664h-13.358v3.231h13.358v-3.231zm0 100.664h-13.358v3.231h13.358v-3.231zm22.04-100.664h-13.358v3.231h13.358v-3.231zm0 100.664h-13.358v3.231h13.358v-3.231zm22.041-100.664h-13.358v3.231h13.358v-3.231zm0 100.664h-13.358v3.231h13.358v-3.231zm-88.162-91.515h-13.358v3.231h13.358v-3.231zm0 100.664h-13.358v3.231h13.358v-3.231zm44.081-100.664h-13.358v3.231h13.358v-3.231zm0 100.664h-13.358v3.231h13.358v-3.231zm22.04-100.664h-13.358v3.231h13.358v-3.231zm0 100.664h-13.358v3.231h13.358v-3.231zm22.041-100.664h-13.358v3.231h13.358v-3.231zm0 100.664h-13.358v3.231h13.358v-3.231zm-66.121-91.512h-13.358v3.231h13.358v-3.231zm0 100.663h-13.358v3.231h13.358v-3.231zm22.04-100.663h-13.358v3.231h13.358v-3.231zm0 100.663h-13.358v3.231h13.358v-3.231zm22.04-100.663h-13.358v3.231h13.358v-3.231zm0 100.663h-13.358v3.231h13.358v-3.231zm22.041-100.663h-13.358v3.231h13.358v-3.231zm0 100.663h-13.358v3.231h13.358v-3.231zm-88.162-91.511h-13.358v3.23h13.358v-3.23zm0 100.663h-13.358v3.231h13.358v-3.231zm22.041-100.663h-13.358v3.23h13.358v-3.23zm0 100.663h-13.358v3.231h13.358v-3.231zm22.04-100.663h-13.358v3.23h13.358v-3.23zm0 100.663h-13.358v3.231h13.358v-3.231zm22.04-100.663h-13.358v3.23h13.358v-3.23zm0 100.663h-13.358v3.231h13.358v-3.231zm-66.121-91.512h-13.358v3.231h13.358v-3.231zm0 100.664h-13.358v3.231h13.358v-3.231zm22.041-100.664h-13.358v3.231h13.358v-3.231zm0 100.664h-13.358v3.231h13.358v-3.231zm22.04-100.664h-13.358v3.231h13.358v-3.231zm0 100.664h-13.358v3.231h13.358v-3.231zm22.04-100.664h-13.358v3.231h13.358v-3.231zm0 100.664h-13.358v3.231h13.358v-3.231zm22.041-100.664h-13.358v3.231h13.358v-3.231zm0 100.664h-13.358v3.231h13.358v-3.231zm-88.162-91.512h-13.358v3.231h13.358v-3.231zm0 100.664h-13.358v3.23h13.358v-3.23zm22.041-100.664h-13.358v3.231h13.358v-3.231zm0 100.664h-13.358v3.23h13.358v-3.23zm22.04-100.664h-13.358v3.231h13.358v-3.231zm0 100.664h-13.358v3.23h13.358v-3.23zm22.04-100.664h-13.358v3.231h13.358v-3.231zm0 100.664h-13.358v3.23h13.358v-3.23zm22.041-100.664h-13.358v3.231h13.358v-3.231zm0 100.664h-13.358v3.23h13.358v-3.23zm-66.121-91.515h-13.358v3.231h13.358v-3.231zm0 100.664h-13.358v3.231h13.358v-3.231zm22.04-100.664h-13.358v3.231h13.358v-3.231zm0 100.664h-13.358v3.231h13.358v-3.231zm22.04-100.664h-13.358v3.231h13.358v-3.231zm0 100.664h-13.358v3.231h13.358v-3.231zm22.041-100.664h-13.358v3.231h13.358v-3.231zm0 100.664h-13.358v3.231h13.358v-3.231zm-88.162-91.512h-13.358v3.231h13.358v-3.231zm0 100.664h-13.358v3.23h13.358v-3.23zm22.041-100.664h-13.358v3.231h13.358v-3.231zm0 100.664h-13.358v3.23h13.358v-3.23zm22.04-100.664h-13.358v3.231h13.358v-3.231zm22.04 0h-13.358v3.231h13.358v-3.231zm0 100.664h-13.358v3.23h13.358v-3.23zm22.041-100.664h-13.358v3.231h13.358v-3.231zm-66.121 109.815h-13.358v3.231h13.358v-3.231zm66.121 0h-13.358v3.231h13.358v-3.231zm-88.162 36.138h-13.358v3.231h13.358v-3.231zm0-9.737h-13.358v3.23h13.358v-3.23zm66.121-8.841h-13.358v3.231h13.358v-3.231zm0 51.369h-13.358v3.23h13.358v-3.23z" fill="#7E44FE"/><path d="M669.61 643.509h-4.84v36.128h4.84v-36.128z" fill="#FDA838"/><path d="M392.511 225.932H279.174v3.605h113.337v-3.605zm-24.604 10.217h-14.913v3.605h14.913v-3.605zm-49.212 0h-14.913v3.605h14.913v-3.605zm-24.608 0h-14.913v3.605h14.913v-3.605zm98.428 10.217h-14.913v3.605h14.913v-3.605zm-24.608 0h-14.913v3.605h14.913v-3.605zm-24.606 0h-14.913v3.605h14.913v-3.605zm-24.606 0h-14.913v3.605h14.913v-3.605zm-24.608 0h-14.913v3.605h14.913v-3.605zm98.428 10.217h-14.913v3.605h14.913v-3.605zm-49.214 0h-14.913v3.605h14.913v-3.605zm-24.606 0h-14.913v3.605h14.913v-3.605zm-24.608 0h-14.913v3.605h14.913v-3.605zm98.428 10.214h-14.913v3.606h14.913v-3.606zm-24.608 0h-14.913v3.606h14.913v-3.606zm-24.606 0h-14.913v3.606h14.913v-3.606zm-24.606 0h-14.913v3.606h14.913v-3.606zm73.82 10.217h-14.913v3.606h14.913v-3.606zm-24.608 0h-14.913v3.606h14.913v-3.606zm-24.606 0h-14.913v3.606h14.913v-3.606zm-24.606 0h-14.913v3.606h14.913v-3.606zm-24.608 0h-14.913v3.606h14.913v-3.606zm73.82 10.217h-14.913v3.606h14.913v-3.606zm-24.606 0h-14.913v3.606h14.913v-3.606zm-24.606 0h-14.913v3.606h14.913v-3.606zm49.212 10.217h-14.913v3.606h14.913v-3.606zm-24.606 0h-14.913v3.606h14.913v-3.606zm-24.606 0h-14.913v3.606h14.913v-3.606zm-24.608 0h-14.913v3.606h14.913v-3.606zm98.428 10.217h-14.913v3.606h14.913v-3.606zm-24.608 0h-14.913v3.606h14.913v-3.606zm-49.212 0h-14.913v3.606h14.913v-3.606zm-24.608 0h-14.913v3.606h14.913v-3.606zm73.82 10.215h-14.913v3.605h14.913v-3.605zm-24.606 0h-14.913v3.605h14.913v-3.605zm-24.606 0h-14.913v3.605h14.913v-3.605zm-24.608 0h-14.913v3.605h14.913v-3.605zm98.428 10.217h-14.913v3.605h14.913v-3.605zm-24.608 0h-14.913v3.605h14.913v-3.605zm-49.212 0h-14.913v3.605h14.913v-3.605zm-24.608 0h-14.913v3.605h14.913v-3.605zm98.428 10.217h-14.913v3.605h14.913v-3.605zm-24.608 0h-14.913v3.605h14.913v-3.605zm-24.606 0h-14.913v3.605h14.913v-3.605zm-24.606 0h-14.913v3.605h14.913v-3.605zm73.82 10.217h-14.913v3.606h14.913v-3.606zm-24.608 0h-14.913v3.606h14.913v-3.606zm-24.606 0h-14.913v3.606h14.913v-3.606zm-24.606 0h-14.913v3.606h14.913v-3.606zm-24.608 0h-14.913v3.606h14.913v-3.606zm73.82 10.217h-14.913v3.606h14.913v-3.606zm-24.606 0h-14.913v3.606h14.913v-3.606zm-24.606 0h-14.913v3.606h14.913v-3.606zm-24.608 0h-14.913v3.606h14.913v-3.606zm98.428 10.215h-14.913v3.605h14.913v-3.605zm-24.608 0h-14.913v3.605h14.913v-3.605zm-24.606 0h-14.913v3.605h14.913v-3.605zm-49.214 0h-14.913v3.605h14.913v-3.605zm98.428 10.217h-14.913v3.605h14.913v-3.605zm-24.608 0h-14.913v3.605h14.913v-3.605zm-24.606 0h-14.913v3.605h14.913v-3.605zm-24.606 0h-14.913v3.605h14.913v-3.605zm73.82 10.217h-14.913v3.605h14.913v-3.605zm-24.608 0h-14.913v3.605h14.913v-3.605zm-24.606 0h-14.913v3.605h14.913v-3.605zm-24.606 0h-14.913v3.605h14.913v-3.605zm49.212 10.217h-14.913v3.605h14.913v-3.605zm-24.606 0h-14.913v3.605h14.913v-3.605zm-24.606 0h-14.913v3.605h14.913v-3.605zm73.82 10.217h-14.913v3.605h14.913v-3.605zm0 112.382h-14.913v3.606h14.913v-3.606zm-24.608-112.382h-14.913v3.605h14.913v-3.605zm0 112.382h-14.913v3.606h14.913v-3.606zm-24.606-112.382h-14.913v3.605h14.913v-3.605zm0 112.382h-14.913v3.606h14.913v-3.606zm-24.606-112.382h-14.913v3.605h14.913v-3.605zm-24.608 0h-14.913v3.605h14.913v-3.605zm0 112.382h-14.913v3.606h14.913v-3.606zm98.428-102.165h-14.913v3.605h14.913v-3.605zm0 112.379h-14.913v3.606h14.913v-3.606zm-24.608-112.379h-14.913v3.605h14.913v-3.605zm0 112.379h-14.913v3.606h14.913v-3.606zm-73.82-112.379h-14.913v3.605h14.913v-3.605zm0 112.379h-14.913v3.606h14.913v-3.606zm98.428-102.165h-14.913v3.606h14.913v-3.606zm0 112.383h-14.913v3.605h14.913v-3.605zm-24.608-112.383h-14.913v3.606h14.913v-3.606zm0 112.383h-14.913v3.605h14.913v-3.605zm-49.212-112.383h-14.913v3.606h14.913v-3.606zm0 112.383h-14.913v3.605h14.913v-3.605zm-24.608-112.383h-14.913v3.606h14.913v-3.606zm0 112.383h-14.913v3.605h14.913v-3.605zm98.428-102.166h-14.913v3.606h14.913v-3.606zm0 112.383h-14.913v3.605h14.913v-3.605zm-24.608-112.383h-14.913v3.606h14.913v-3.606zm0 112.383h-14.913v3.605h14.913v-3.605zm-24.606-112.383h-14.913v3.606h14.913v-3.606zm0 112.383h-14.913v3.605h14.913v-3.605zm-24.606-112.383h-14.913v3.606h14.913v-3.606zm0 112.383h-14.913v3.605h14.913v-3.605zm-24.608-112.383h-14.913v3.606h14.913v-3.606zm0 112.383h-14.913v3.605h14.913v-3.605zm98.428-102.166h-14.913v3.606h14.913v-3.606zm0 112.383h-14.913v3.605h14.913v-3.605zm-49.214-112.383h-14.913v3.606h14.913v-3.606zm0 112.383h-14.913v3.605h14.913v-3.605zm-24.606-112.383h-14.913v3.606h14.913v-3.606zm0 112.383h-14.913v3.605h14.913v-3.605zm-24.608-112.383h-14.913v3.606h14.913v-3.606zm0 112.383h-14.913v3.605h14.913v-3.605zm73.82-102.166h-14.913v3.606h14.913v-3.606zm0 112.383h-14.913v3.605h14.913v-3.605zm-24.606-112.383h-14.913v3.606h14.913v-3.606zm0 112.383h-14.913v3.605h14.913v-3.605zm-24.606-112.383h-14.913v3.606h14.913v-3.606zm0 112.383h-14.913v3.605h14.913v-3.605zm-24.608-112.383h-14.913v3.606h14.913v-3.606zm0 112.383h-14.913v3.605h14.913v-3.605zm98.428-102.166h-14.913v3.606h14.913v-3.606zm0 112.38h-14.913v3.605h14.913v-3.605zm-24.608-112.38h-14.913v3.606h14.913v-3.606zm0 112.38h-14.913v3.605h14.913v-3.605zm-24.606-112.38h-14.913v3.606h14.913v-3.606zm0 112.38h-14.913v3.605h14.913v-3.605zm-24.606-112.38h-14.913v3.606h14.913v-3.606zm0 112.38h-14.913v3.605h14.913v-3.605zm73.82-102.165h-14.913v3.605h14.913v-3.605zm0 112.382h-14.913v3.606h14.913v-3.606zm-24.608-112.382h-14.913v3.605h14.913v-3.605zm0 112.382h-14.913v3.606h14.913v-3.606zm-24.606-112.382h-14.913v3.605h14.913v-3.605zm0 112.382h-14.913v3.606h14.913v-3.606zm-24.606-112.382h-14.913v3.605h14.913v-3.605zm0 112.382h-14.913v3.606h14.913v-3.606zm-24.608-112.382h-14.913v3.605h14.913v-3.605zm0 112.382h-14.913v3.606h14.913v-3.606zm98.428-102.165h-14.913v3.605h14.913v-3.605zm0 112.382h-14.913v3.606h14.913v-3.606zm-24.608-112.382h-14.913v3.605h14.913v-3.605zm0 112.382h-14.913v3.606h14.913v-3.606zm-24.606-112.382h-14.913v3.605h14.913v-3.605zm0 112.382h-14.913v3.606h14.913v-3.606zm-24.606-112.382h-14.913v3.605h14.913v-3.605zm0 112.382h-14.913v3.606h14.913v-3.606zm-24.608-112.382h-14.913v3.605h14.913v-3.605zm0 112.382h-14.913v3.606h14.913v-3.606zm73.82-102.165h-14.913v3.606h14.913v-3.606zm0 112.382h-14.913v3.606h14.913v-3.606zm-24.606-112.382h-14.913v3.606h14.913v-3.606zm0 112.382h-14.913v3.606h14.913v-3.606zm-24.606-112.382h-14.913v3.606h14.913v-3.606zm0 112.382h-14.913v3.606h14.913v-3.606zm-24.608-112.382h-14.913v3.606h14.913v-3.606zm0 112.382h-14.913v3.606h14.913v-3.606zm98.428-102.165h-14.913v3.606h14.913v-3.606zm0 112.383h-14.913v3.605h14.913v-3.605zm-24.608-112.383h-14.913v3.606h14.913v-3.606zm0 112.383h-14.913v3.605h14.913v-3.605zm-24.606-112.383h-14.913v3.606h14.913v-3.606zm-24.606 0h-14.913v3.606h14.913v-3.606zm0 112.383h-14.913v3.605h14.913v-3.605zm-24.608-112.383h-14.913v3.606h14.913v-3.606zm73.82 122.597h-14.913v3.605h14.913v-3.605zm-73.82 0h-14.913v3.605h14.913v-3.605zm24.608 23.515h-14.913v3.605h14.913v-3.605zm0-9.262h-14.913v3.606h14.913v-3.606zm24.606 27.699h-14.913v3.605h14.913v-3.605zm49.214-440.396h-14.913v3.605h14.913v-3.605z" fill="#FE6BB4"/><path fill-rule="evenodd" clip-rule="evenodd" d="M426.903 289.587a570.931 570.931 0 00-4.522-7.051v3.212c1.51 2.308 3.015 4.618 4.522 6.96v-3.121zm0-8.906c-5.73-9.152-11.46-18.277-17.192-27.374a29655.586 29655.586 0 00-17.199-27.375v3.629c5.735 9.069 11.468 18.125 17.199 27.169l17.192 27.126v-3.175zm-7.467-2.719c-1.504-2.35-3.012-4.66-4.522-7.01v3.297c1.51 2.31 3.018 4.66 4.522 6.96v-3.247zm-14.931-23.17c-1.505-2.393-3.013-4.7-4.523-7.05v3.546c1.51 2.308 3.018 4.618 4.523 6.96v-3.456zm-7.457-11.628c-1.507-2.307-3.017-4.657-4.527-7.007v3.627c1.51 2.35 3.02 4.66 4.527 6.959v-3.579zm29.855 55.286c-1.507-2.308-3.012-4.618-4.522-6.885v3.212c1.51 2.267 3.015 4.492 4.522 6.802v-3.129zm-7.467-11.336a3340.393 3340.393 0 00-4.522-6.802v3.298c1.51 2.267 3.018 4.491 4.522 6.761v-3.257zm-7.465-11.296a1896.011 1896.011 0 01-4.522-6.844v3.42c1.51 2.267 3.018 4.535 4.522 6.805v-3.381zm-7.466-11.256a454.532 454.532 0 00-4.523-6.884v3.544a835.552 835.552 0 014.523 6.761v-3.421zm-7.457-11.338c-1.507-2.268-3.017-4.535-4.527-6.842v3.627c1.51 2.267 3.02 4.534 4.527 6.761v-3.546zm29.855 54.091a570.767 570.767 0 00-4.522-6.692v3.175a795.572 795.572 0 014.522 6.595v-3.078zm-14.932-22.016a9612.24 9612.24 0 01-4.522-6.692v3.381a975.807 975.807 0 004.522 6.595v-3.284zm-7.466-11.007c-1.505-2.267-3.013-4.454-4.523-6.692v3.504a749.664 749.664 0 014.523 6.596v-3.408zm-7.457-11.009l-4.527-6.692v3.587c1.51 2.227 3.02 4.411 4.527 6.598v-3.493zm29.855 52.892c-1.507-2.184-3.012-4.369-4.522-6.513v3.175a5031.56 5031.56 0 014.522 6.424v-3.086zm-7.467-10.758a4192.967 4192.967 0 00-4.522-6.424v3.263c1.51 2.141 3.018 4.282 4.522 6.392v-3.231zm-7.465-10.677a439.096 439.096 0 01-4.522-6.513v3.381a467.312 467.312 0 004.522 6.424v-3.292zm-7.466-10.686a394.126 394.126 0 00-4.523-6.512v3.461a646.043 646.043 0 014.523 6.472v-3.421zm22.398 40.989a458.377 458.377 0 00-4.522-6.309v3.134c1.51 2.101 3.015 4.163 4.522 6.266v-3.091zm-7.467-10.431a3324.156 3324.156 0 00-4.522-6.309v3.3a695.323 695.323 0 014.522 6.223v-3.214zm-7.465-10.432a434.81 434.81 0 01-4.522-6.306v3.381c1.51 2.101 3.015 4.205 4.522 6.266v-3.341zm-7.466-10.388c-1.505-2.141-3.013-4.205-4.523-6.309v3.464c1.51 2.104 3.018 4.165 4.523 6.266v-3.421zm-7.457-10.431l-4.527-6.306v3.586c1.51 2.102 3.02 4.163 4.527 6.224v-3.504zm22.388 40.362c-1.504-2.021-3.012-4.082-4.522-6.103v3.298c1.51 2.022 3.018 4.043 4.522 6.063v-3.258zm-7.465-10.102c-1.507-2.061-3.012-4.082-4.522-6.156v3.423c1.51 2.018 3.018 4.038 4.522 6.06v-3.327zm-7.466-10.099c-1.505-2.104-3.013-4.122-4.523-6.157v3.504c1.51 2.021 3.018 4.039 4.523 6.103v-3.45zm14.931 29.353a3889.572 3889.572 0 00-4.522-5.937v3.341c1.51 1.937 3.018 3.916 4.522 5.853v-3.257zm-7.465-9.813l-4.522-5.937v3.381c1.51 2.021 3.015 3.959 4.522 5.937v-3.381zm-7.466-9.81a345.973 345.973 0 00-4.523-5.937v3.506c1.51 1.938 3.018 3.916 4.523 5.889v-3.458zm-7.457-9.853c-1.506-1.981-3.016-3.96-4.527-5.937v3.627c1.51 1.978 3.02 3.916 4.527 5.889v-3.579zm29.855 48.192c-1.507-1.936-3.012-3.874-4.522-5.771v3.174a654.72 654.72 0 014.522 5.731v-3.134zm-7.467-9.564c-1.504-1.896-3.012-3.833-4.522-5.731v3.257l4.522 5.688v-3.214zm-14.931-19.005c-1.505-1.978-3.013-3.876-4.523-5.814v3.517c1.51 1.898 3.018 3.793 4.523 5.731v-3.434zm-7.457-9.564c-1.507-1.938-3.017-3.836-4.527-5.774v3.587l4.527 5.691v-3.504zm22.388 37.763a2896.236 2896.236 0 00-4.522-5.565v3.255c1.51 1.855 3.018 3.67 4.522 5.525v-3.215zm-7.465-9.235a509.957 509.957 0 01-4.522-5.621v3.381c1.51 1.855 3.015 3.71 4.522 5.525v-3.285zm-7.466-9.234c-1.505-1.898-3.013-3.748-4.523-5.621v3.503c1.51 1.815 3.018 3.67 4.523 5.525v-3.407zm-7.457-9.235c-1.507-1.855-3.017-3.71-4.527-5.621v3.587c1.51 1.855 3.02 3.71 4.527 5.525v-3.491zm29.855 45.802c-1.507-1.813-3.012-3.627-4.522-5.399v3.174a610.607 610.607 0 014.522 5.354v-3.129zm-7.467-8.946c-1.504-1.815-3.012-3.587-4.522-5.402v3.301a3552.61 3552.61 0 014.522 5.316v-3.215zm-14.931-17.851c-1.505-1.855-3.013-3.627-4.523-5.442v3.504a619.907 619.907 0 014.523 5.353v-3.415zm-7.457-8.989c-1.507-1.772-3.017-3.586-4.527-5.398v3.586c1.51 1.812 3.02 3.587 4.527 5.354v-3.542z" fill="#D55695"/><path fill-rule="evenodd" clip-rule="evenodd" d="M426.903 378.141c-1.507-1.732-3.012-3.504-4.522-5.236v3.212c1.51 1.73 3.015 3.421 4.522 5.193v-3.169z" fill="#FFD16B"/><path fill-rule="evenodd" clip-rule="evenodd" d="M419.436 369.485a2708.623 2708.623 0 00-4.522-5.196v3.298c1.51 1.732 3.018 3.423 4.522 5.155v-3.257zm-7.465-8.609c-1.507-1.732-3.012-3.504-4.522-5.278v3.404c1.51 1.772 3.015 3.464 4.522 5.193v-3.319zm-7.466-8.667a533.137 533.137 0 00-4.523-5.236v3.507c1.51 1.729 3.018 3.46 4.523 5.193v-3.464zm22.398 34.837a289.688 289.688 0 00-4.522-5.069v3.174c1.51 1.689 3.015 3.338 4.522 5.03v-3.135zm-7.467-8.37l-4.522-5.069v3.329c1.51 1.649 3.018 3.298 4.522 4.947v-3.207zm-7.465-8.367c-1.507-1.692-3.012-3.341-4.522-5.086v3.424c1.51 1.689 3.015 3.338 4.522 5.029v-3.367zm-7.466-8.327c-1.505-1.732-3.013-3.381-4.523-5.086v3.504c1.51 1.691 3.018 3.34 4.523 5.029v-3.447zm-7.457-8.371l-4.527-5.069v3.627c1.51 1.691 3.02 3.34 4.527 4.989v-3.547zm22.388 34.22a465.247 465.247 0 00-4.522-4.867v3.298c1.51 1.606 3.018 3.212 4.522 4.818v-3.249zm-7.465-8.041c-1.507-1.649-3.012-3.255-4.522-4.907v3.424l4.522 4.818v-3.335zm-7.466-8.079a486.919 486.919 0 00-4.523-4.866v3.504l4.523 4.818v-3.456zm-7.457-8.081c-1.507-1.606-3.017-3.212-4.527-4.866v3.63a9995.54 9995.54 0 014.527 4.818v-3.582zm29.855 41.145a469.612 469.612 0 00-4.522-4.741v3.175c1.51 1.565 3.015 3.091 4.522 4.657v-3.091zm-7.467-7.793a3905.77 3905.77 0 00-4.522-4.7v3.298c1.51 1.526 3.018 3.091 4.522 4.617v-3.215zm-7.465-7.751a5011.907 5011.907 0 00-4.522-4.698v3.378a524.451 524.451 0 004.522 4.617v-3.297zm-14.923-15.541l-4.527-4.701v3.587c1.51 1.566 3.02 3.092 4.527 4.658v-3.544zm29.855 39.947c-1.507-1.523-3.012-3.049-4.522-4.534v3.166l4.522 4.454v-3.086zm-7.467-7.503c-1.504-1.483-3.012-3.009-4.522-4.494v3.257l4.522 4.455v-3.218zm-7.465-7.463c-1.507-1.482-3.012-3.008-4.522-4.534v3.381a489.529 489.529 0 004.522 4.494v-3.341z" fill="#D55695"/><path fill-rule="evenodd" clip-rule="evenodd" d="M404.505 391.211c-1.505-1.525-3.013-3.011-4.523-4.537v3.507c1.51 1.483 3.018 2.967 4.523 4.451v-3.421z" fill="#FFD16B"/><path fill-rule="evenodd" clip-rule="evenodd" d="M426.903 422.502a408.407 408.407 0 00-4.522-4.371v3.175c1.51 1.443 3.015 2.845 4.522 4.283v-3.087zm-7.467-7.216l-4.522-4.328v3.297c1.51 1.403 3.018 2.846 4.522 4.248v-3.217zm-7.465-7.131a457.286 457.286 0 01-4.522-4.371v3.381c1.51 1.442 3.015 2.885 4.522 4.282v-3.292zm-7.466-7.173a409.201 409.201 0 00-4.523-4.372v3.504c1.51 1.403 3.018 2.846 4.523 4.283v-3.415zm14.931 23.458c-1.504-1.402-3.012-2.762-4.522-4.165v3.298c1.51 1.403 3.018 2.762 4.522 4.122v-3.255zm-7.465-6.884c-1.507-1.363-3.012-2.763-4.522-4.165v3.429l4.522 4.082v-3.346zm-7.466-6.893c-1.505-1.4-3.013-2.76-4.523-4.162v3.544l4.523 4.082v-3.464zm22.398 29.525c-1.507-1.36-3.012-2.677-4.522-4v3.213c1.51 1.317 3.015 2.596 4.522 3.916v-3.129zm0 97.459a211.41 211.41 0 00-4.522-2.018v3.212c1.51.618 3.015 1.277 4.522 1.938v-3.132zm-7.467-104.055l-4.522-3.959v3.298c1.51 1.32 3.018 2.599 4.522 3.919v-3.258zm0 100.717a200.474 200.474 0 00-4.522-2.021v3.298l4.522 1.981v-3.258z" fill="#D55695"/><path fill-rule="evenodd" clip-rule="evenodd" d="M411.971 426.991l-4.522-3.959v3.381c1.51 1.36 3.015 2.639 4.522 3.959v-3.381zm0 103.978a201.921 201.921 0 00-4.522-2.019v3.381c1.51.699 3.015 1.317 4.522 1.978v-3.34z" fill="#FFD16B"/><path fill-rule="evenodd" clip-rule="evenodd" d="M404.505 420.441c-1.505-1.362-3.013-2.676-4.523-3.999v3.504l4.523 3.956v-3.461zm-7.457-6.598c-1.507-1.317-3.017-2.636-4.527-3.999v3.63c1.51 1.319 3.02 2.636 4.527 3.916v-3.547zm0 110.407c-1.507-.661-3.017-1.319-4.527-2.021v3.627l4.527 1.981v-3.587zm29.855-75.197a325.82 325.82 0 00-4.522-3.793v3.174a378.23 378.23 0 014.522 3.748v-3.129zm0 97.459l-4.522-1.855v3.175c1.51.618 3.015 1.194 4.522 1.812v-3.132zm-7.467-103.768a409.977 409.977 0 01-4.522-3.793v3.298l4.522 3.71v-3.215zm0 100.717l-4.522-1.855v3.298c1.51.578 3.018 1.196 4.522 1.772v-3.215zm-22.388-119.559l-4.527-3.833v3.587c1.51 1.277 3.02 2.516 4.527 3.747v-3.501zm0 110.407l-4.527-1.855v3.587c1.51.618 3.02 1.194 4.527 1.812v-3.544zm29.855-76.394a323.361 323.361 0 00-4.522-3.627v3.175c1.51 1.194 3.015 2.35 4.522 3.587v-3.135zm0 97.46c-1.507-.535-3.012-1.114-4.522-1.649v3.175c1.51.535 3.015 1.03 4.522 1.606v-3.132zm-7.467-103.49l-4.522-3.587v3.258c1.51 1.196 3.018 2.39 4.522 3.546v-3.217zm0 100.728c-1.504-.536-3.012-1.114-4.522-1.649v3.257l4.522 1.606v-3.214zm-14.931-112.672a319.277 319.277 0 00-4.523-3.629v3.463l4.523 3.587v-3.421zm0 107.19c-1.505-.579-3.013-1.114-4.523-1.692v3.504l4.523 1.606v-3.418zm-7.457-113.21c-1.507-1.196-3.017-2.39-4.527-3.627v3.587l4.527 3.587v-3.547zm0 110.447c-1.507-.578-3.017-1.113-4.527-1.691v3.586l4.527 1.607v-3.502zm29.855-77.59l-4.522-3.461v3.175c1.51 1.153 3.015 2.267 4.522 3.42v-3.134zm0 97.462l-4.522-1.485v3.174c1.51.496 3.015.948 4.522 1.443v-3.132zm-7.467-103.15l-4.522-3.464v3.298a298.264 298.264 0 014.522 3.381v-3.215zm0 100.675l-4.522-1.483v3.297c1.51.455 3.018.948 4.522 1.403v-3.217zm-7.465-106.366l-4.522-3.461v3.381c1.51 1.114 3.015 2.267 4.522 3.381v-3.301zm0 103.935l-4.522-1.486v3.381c1.51.455 3.015.948 4.522 1.403v-3.298zm-7.466-109.623a151.663 151.663 0 00-4.523-3.463v3.463c1.51 1.114 3.018 2.267 4.523 3.381v-3.381zm0 107.15l-4.523-1.486v3.504c1.51.455 3.018.95 4.523 1.403v-3.421zm-7.457-112.88l-4.527-3.464v3.587c1.51 1.156 3.02 2.267 4.527 3.38v-3.503zm0 110.447c-1.507-.496-3.017-.991-4.527-1.526v3.587c1.51.495 3.02.947 4.527 1.442v-3.503z" fill="#D55695"/><path fill-rule="evenodd" clip-rule="evenodd" d="M426.903 475.601c-1.507-1.071-3.012-2.185-4.522-3.255v3.212c1.51 1.07 3.015 2.104 4.522 3.212v-3.169z" fill="#FFD16B"/><path fill-rule="evenodd" clip-rule="evenodd" d="M426.903 573.063c-1.507-.412-3.012-.867-4.522-1.28v3.175c1.51.412 3.015.867 4.522 1.279v-3.174zM411.971 464.8c-1.507-1.071-3.012-2.184-4.522-3.298v3.421a153.897 153.897 0 004.522 3.212V464.8zm0 103.932c-1.507-.412-3.012-.864-4.522-1.317v3.421c1.51.452 3.015.864 4.522 1.277v-3.381zm-7.466-109.331c-1.505-1.114-3.013-2.187-4.523-3.3v3.546c1.51 1.071 3.018 2.142 4.523 3.212v-3.458zm0 107.19c-1.505-.455-3.013-.868-4.523-1.32v3.504c1.51.412 3.018.864 4.523 1.277v-3.461zm-7.457-112.592c-1.507-1.113-3.017-2.184-4.527-3.297v3.627l4.527 3.212v-3.542zm0 110.405a183.286 183.286 0 01-4.527-1.32v3.632c1.51.453 3.02.865 4.527 1.277v-3.589zm22.388-85.051l-4.522-3.091v3.338c1.51.99 3.018 2.021 4.522 3.011v-3.258zm0 100.717l-4.522-1.113v3.298c1.51.372 3.018.701 4.522 1.07v-3.255zm-7.465-105.829c-1.507-1.031-3.012-2.021-4.522-3.092v3.421c1.51 1.031 3.015 2.021 4.522 3.051v-3.38zm0 103.985c-1.507-.372-3.012-.784-4.522-1.154v3.421c1.51.372 3.015.702 4.522 1.071v-3.338zm-7.466-109.055a276.165 276.165 0 00-4.523-3.134v3.546a258.17 258.17 0 014.523 3.052v-3.464zm0 107.147l-4.523-1.114v3.507c1.51.369 3.018.741 4.523 1.07v-3.463zm-7.457-112.3a1891.662 1891.662 0 00-4.527-3.094v3.63c1.51 1.03 3.02 2.018 4.527 3.048v-3.584zm0 110.445a182.08 182.08 0 01-4.527-1.154v3.627c1.51.372 3.02.744 4.527 1.071v-3.544zm29.855-81.089c-1.507-.99-3.012-1.981-4.522-2.928v3.174l4.522 2.846v-3.092zm0 97.457l-4.522-.991v3.175c1.51.329 3.015.618 4.522.908v-3.092zm-7.467-102.275a240.682 240.682 0 00-4.522-2.928v3.257c1.51.948 3.018 1.896 4.522 2.846v-3.175zm0 100.666c-1.504-.289-3.012-.618-4.522-.947v3.297l4.522.868v-3.218zm-7.465-105.484c-1.507-.991-3.012-1.938-4.522-2.928v3.38l4.522 2.846v-3.298zm0 103.918c-1.507-.329-3.012-.618-4.522-.947v3.381c1.51.286 3.015.575 4.522.907v-3.341zm-7.466-108.755c-1.505-.99-3.013-1.938-4.523-2.928v3.504l4.523 2.845v-3.421zm0 107.189a169.005 169.005 0 00-4.523-.95v3.464c1.51.289 3.018.618 4.523.907v-3.421zm22.398-83.856a256.043 256.043 0 00-4.522-2.762v3.174c1.51.908 3.015 1.772 4.522 2.677v-3.089zm0 97.46a163.712 163.712 0 00-4.522-.782v3.175c1.51.246 3.015.452 4.522.698v-3.091zM419.436 497.7l-4.522-2.72v3.258c1.51.907 3.018 1.772 4.522 2.676V497.7zm0 100.717c-1.504-.289-3.012-.536-4.522-.785v3.258c1.51.246 3.018.495 4.522.702v-3.175zm-7.465-105.252l-4.522-2.722v3.381c1.51.907 3.015 1.772 4.522 2.676v-3.335zm0 103.932l-4.522-.741v3.38c1.51.207 3.015.453 4.522.699v-3.338z" fill="#D55695"/><path fill-rule="evenodd" clip-rule="evenodd" d="M404.505 488.671a249.013 249.013 0 00-4.523-2.762v3.503c1.51.868 3.018 1.772 4.523 2.677v-3.418z" fill="#FFD16B"/><path fill-rule="evenodd" clip-rule="evenodd" d="M404.504 595.818l-4.512-.728v3.463c1.51.246 3.018.495 4.522.702l-.01-3.437zm-7.456-111.681c-1.507-.908-3.017-1.815-4.527-2.763v3.587c1.51.908 3.02 1.812 4.527 2.677v-3.501zm0 110.417a168.105 168.105 0 01-4.527-.784v3.587l4.527.744v-3.547zm29.855-83.457c-1.507-.865-3.012-1.729-4.522-2.554v3.132c1.51.867 3.015 1.692 4.522 2.516v-3.094zm0 97.462l-4.522-.618v3.174c1.51.163 3.015.37 4.522.535v-3.091zm-7.467-101.708c-1.504-.864-3.012-1.689-4.522-2.556v3.298c1.51.824 3.018 1.65 4.522 2.476v-3.218zm0 100.718l-4.522-.619v3.298c1.51.166 3.018.329 4.522.535v-3.214zm-7.465-104.923l-4.522-2.596v3.381c1.51.864 3.015 1.689 4.522 2.513v-3.298zm0 103.932l-4.522-.618v3.38c1.51.206 3.015.372 4.522.536v-3.298zm-7.466-108.177c-1.505-.867-3.013-1.692-4.523-2.556v3.463c1.51.865 3.018 1.689 4.523 2.514v-3.421z" fill="#D55695"/><path fill-rule="evenodd" clip-rule="evenodd" d="M404.505 605.591l-4.523-.619v3.501c1.51.164 3.018.37 4.523.536v-3.418z" fill="#FFD16B"/><path fill-rule="evenodd" clip-rule="evenodd" d="M397.048 494.153a256.683 256.683 0 01-4.527-2.556v3.586c1.51.868 3.02 1.692 4.527 2.517v-3.547zm0 110.447l-4.527-.618v3.586c1.51.207 3.02.372 4.527.536V604.6zm22.388-88.637l-4.522-2.35v3.297c1.51.785 3.018 1.526 4.522 2.31v-3.257zm0 100.717c-1.504-.123-3.012-.289-4.522-.412v3.298l4.522.372v-3.258zm-7.465-104.633a256.987 256.987 0 01-4.522-2.393v3.423c1.51.782 3.015 1.566 4.522 2.308v-3.338zm0 103.921a161.528 161.528 0 01-4.522-.412v3.421l4.522.372v-3.381zm-7.466-107.837c-1.505-.827-3.013-1.606-4.523-2.393v3.504l4.523 2.35v-3.461zm0 107.146c-1.505-.123-3.013-.246-4.523-.412v3.547c1.51.123 3.018.206 4.523.329v-3.464zm-7.457-111.105c-1.507-.784-3.017-1.566-4.527-2.39v3.637l4.527 2.351v-3.598zm0 110.458c-1.507-.166-3.017-.289-4.527-.455v3.629l4.527.37v-3.544zm29.855-85.845l-4.522-2.228v3.213a227.51 227.51 0 004.522 2.141v-3.126zm0 97.459l-4.522-.246v3.212c1.51.04 3.015.123 4.522.166v-3.132zm-7.467-101.087a1585.37 1585.37 0 00-4.522-2.227v3.338l4.522 2.104v-3.215zm0 100.675l-4.522-.247v3.338c1.51.043 3.018.123 4.522.166v-3.257zm-7.465-104.352c-1.507-.702-3.012-1.443-4.522-2.184v3.42c1.51.702 3.015 1.443 4.522 2.142v-3.378zm-7.466-3.622a220.171 220.171 0 00-4.523-2.184v3.504c1.51.701 3.018 1.442 4.523 2.141v-3.461zm-.001 107.19l-4.512-.247v3.547c1.51.04 3.018.08 4.522.163l-.01-3.463zm-7.456-110.817l-4.527-2.227v3.63c1.51.741 3.02 1.442 4.527 2.141v-3.544zm22.388 120.795c-1.504-.043-3.012-.043-4.522-.083v3.258h4.522v-3.175zm-22.388-.321c-1.507 0-3.017-.04-4.527-.08v3.587h4.527v-3.507zm15.99 26.015l-4.522-.246v3.544c1.51.043 3.014.083 4.522.166v-3.464z" fill="#D55695"/><path fill-rule="evenodd" clip-rule="evenodd" d="M571.577 667.235v-32.233c-.486.093-.976.161-1.47.204v32.029h1.47z" fill="#FFD16B"/><path d="M259.212 101.287h-11.66v4.334h11.66v-4.334zm0-12.283h-88.619v4.333h88.619v-4.333zm0-9.187h-88.619v4.334h88.619v-4.334zm-19.24 21.47h-11.66v4.334h11.66v-4.334zm-38.48 0h-11.66v4.334h11.66v-4.334zm-19.239 0h-11.66v4.334h11.66v-4.334zm76.959 12.281h-11.66v4.334h11.66v-4.334zm-19.24 0h-11.66v4.334h11.66v-4.334zm-19.24 0h-11.66v4.334h11.66v-4.334zm-19.24 0h-11.66v4.334h11.66v-4.334zm-19.239 0h-11.66v4.334h11.66v-4.334zm76.959 12.281h-11.66v4.334h11.66v-4.334zm-38.48 0h-11.66v4.334h11.66v-4.334zm-19.24 0h-11.66v4.334h11.66v-4.334zm-19.239 0h-11.66v4.334h11.66v-4.334zm76.959 12.281h-11.66v4.333h11.66v-4.333zm-19.24 0h-11.66v4.333h11.66v-4.333zm-19.24 0h-11.66v4.333h11.66v-4.333zm-19.24 0h-11.66v4.333h11.66v-4.333zm57.72 12.28h-11.66v4.334h11.66v-4.334zm-19.24 0h-11.66v4.334h11.66v-4.334zm-19.24 0h-11.66v4.334h11.66v-4.334zm-19.24 0h-11.66v4.334h11.66v-4.334zm-19.239 0h-11.66v4.334h11.66v-4.334zm57.719 12.281h-11.66v4.334h11.66v-4.334zm-19.24 0h-11.66v4.334h11.66v-4.334zm-19.24 0h-11.66v4.334h11.66v-4.334zm38.48 12.284h-11.66v4.333h11.66v-4.333zm-19.24 0h-11.66v4.333h11.66v-4.333zm-19.24 0h-11.66v4.333h11.66v-4.333zm-19.239 0h-11.66v4.333h11.66v-4.333zm76.959 12.281h-11.66v4.333h11.66v-4.333zm-19.24 0h-11.66v4.333h11.66v-4.333zm-38.48 0h-11.66v4.333h11.66v-4.333zm-19.239 0h-11.66v4.333h11.66v-4.333zm57.719 12.28h-11.66v4.334h11.66v-4.334zm-19.24 0h-11.66v4.334h11.66v-4.334zm-19.24 0h-11.66v4.334h11.66v-4.334zm-19.239 0h-11.66v4.334h11.66v-4.334zm76.959 12.281h-11.66v4.334h11.66v-4.334zm-19.24 0h-11.66v4.334h11.66v-4.334zm-38.48 0h-11.66v4.334h11.66v-4.334zm-19.239 0h-11.66v4.334h11.66v-4.334zm76.959 12.281h-11.66v4.334h11.66v-4.334zm-19.24 0h-11.66v4.334h11.66v-4.334zm-19.24 0h-11.66v4.334h11.66v-4.334zm-19.24 0h-11.66v4.334h11.66v-4.334zm57.72 12.284h-11.66v4.333h11.66v-4.333zm-19.24 0h-11.66v4.333h11.66v-4.333zm-19.24 0h-11.66v4.333h11.66v-4.333zm-19.24 0h-11.66v4.333h11.66v-4.333zm-19.239 0h-11.66v4.333h11.66v-4.333zm57.719 12.28h-11.66v4.334h11.66v-4.334zm-19.24 0h-11.66v4.334h11.66v-4.334zm-19.24 0h-11.66v4.334h11.66v-4.334zm-19.239 0h-11.66v4.334h11.66v-4.334zm76.959 12.281h-11.66v4.334h11.66v-4.334zm-19.24 0h-11.66v4.334h11.66v-4.334zm-19.24 0h-11.66v4.334h11.66v-4.334zm-38.479 0h-11.66v4.334h11.66v-4.334zm76.959 12.281h-11.66v4.334h11.66v-4.334zm-19.24 0h-11.66v4.334h11.66v-4.334zm-19.24 0h-11.66v4.334h11.66v-4.334zm-19.24 0h-11.66v4.334h11.66v-4.334zm57.72 12.281h-11.66v4.333h11.66v-4.333zm-19.24 0h-11.66v4.333h11.66v-4.333zm-19.24 0h-11.66v4.333h11.66v-4.333zm-19.24 0h-11.66v4.333h11.66v-4.333zm38.48 12.283h-11.66v4.334h11.66v-4.334zm-19.24 0h-11.66v4.334h11.66v-4.334zm-19.24 0h-11.66v4.334h11.66v-4.334zm57.72 12.281h-11.66v4.334h11.66v-4.334zm0 135.095h-11.66v4.333h11.66v-4.333zm-19.24-135.095h-11.66v4.334h11.66v-4.334zm-19.24 0h-11.66v4.334h11.66v-4.334zm0 135.095h-11.66v4.333h11.66v-4.333zm-19.24-135.095h-11.66v4.334h11.66v-4.334zm-19.239 0h-11.66v4.334h11.66v-4.334zm76.959 12.281h-11.66v4.334h11.66v-4.334zm-19.24 0h-11.66v4.334h11.66v-4.334zm-57.719 0h-11.66v4.334h11.66v-4.334zm0 135.094h-11.66v4.334h11.66v-4.334zm76.959-122.813h-11.66v4.333h11.66v-4.333zm0 135.094h-11.66v4.334h11.66v-4.334zm-19.24-135.094h-11.66v4.333h11.66v-4.333zm-38.48 0h-11.66v4.333h11.66v-4.333zm-19.239 0h-11.66v4.333h11.66v-4.333zm76.959 12.281h-11.66v4.333h11.66v-4.333zm-19.24 0h-11.66v4.333h11.66v-4.333zm0 135.094h-11.66v4.334h11.66v-4.334zm-19.24-135.094h-11.66v4.333h11.66v-4.333zm0 135.094h-11.66v4.334h11.66v-4.334zm-19.24-135.094h-11.66v4.333h11.66v-4.333zm-19.239 0h-11.66v4.333h11.66v-4.333zm76.959 12.283h-11.66v4.334h11.66v-4.334zm-38.48 0h-11.66v4.334h11.66v-4.334zm0 135.094h-11.66v4.334h11.66v-4.334zm-19.24-135.094h-11.66v4.334h11.66v-4.334zm-19.239 0h-11.66v4.334h11.66v-4.334zm57.719 12.281h-11.66v4.334h11.66v-4.334zm-19.24 0h-11.66v4.334h11.66v-4.334zm-19.24 0h-11.66v4.334h11.66v-4.334zm-19.239 0h-11.66v4.334h11.66v-4.334zm76.959 12.281h-11.66v4.333h11.66v-4.333zm-19.24 0h-11.66v4.333h11.66v-4.333zm-19.24 0h-11.66v4.333h11.66v-4.333zm-19.24 0h-11.66v4.333h11.66v-4.333zm57.72 12.281h-11.66v4.333h11.66v-4.333zm-19.24 0h-11.66v4.333h11.66v-4.333zm-19.24 0h-11.66v4.333h11.66v-4.333zm-19.24 0h-11.66v4.333h11.66v-4.333zm-19.239 0h-11.66v4.333h11.66v-4.333zm76.959 12.28h-11.66v4.334h11.66v-4.334zm-19.24 0h-11.66v4.334h11.66v-4.334zm-19.24 0h-11.66v4.334h11.66v-4.334zm-19.24 0h-11.66v4.334h11.66v-4.334zm-19.239 0h-11.66v4.334h11.66v-4.334zm57.719 12.281h-11.66v4.334h11.66v-4.334zm-19.24 0h-11.66v4.334h11.66v-4.334zm19.24 12.284h-11.66v4.333h11.66v-4.333zm-38.48 0h-11.66v4.333h11.66v-4.333zm19.24 113.549h-11.66v4.334h11.66v-4.334zm-19.24-41.345h-11.66v4.334h11.66v-4.334z" fill="#4BBC24"/><path d="M100.404 594.562h-8.471v3.327h8.471v-3.327zm-13.976 8.322h-8.471v3.328h8.471v-3.328zm0-26.759h-8.471v3.327h8.471v-3.327zm-27.954 9.219h-8.471v3.327h8.471v-3.327z" fill="#7E44FE"/><path d="M547.545 372.306h-7.631v6.151h7.631v-6.151zm0 9.379h-7.631v6.151h7.631v-6.151zm0 9.379h-7.631v6.151h7.631v-6.151zm0 9.379h-7.631v6.152h7.631v-6.152zm0 9.38h-7.631v6.151h7.631v-6.151zm0 9.379h-7.631v6.151h7.631v-6.151zm0 9.379h-7.631v6.151h7.631v-6.151zm0 18.759h-7.631v6.151h7.631v-6.151zm0 18.758h-7.631v6.151h7.631v-6.151zm0 9.38h-7.631v6.151h7.631v-6.151zm0 9.379h-7.631v6.151h7.631v-6.151zm0 9.379h-7.631v6.151h7.631v-6.151zm0 18.759h-7.631v6.151h7.631v-6.151zm0 9.379h-7.631v6.151h7.631v-6.151zm0 9.379h-7.631v6.151h7.631v-6.151zm0 9.379h-7.631v6.151h7.631v-6.151zm0 9.379h-7.631v6.152h7.631v-6.152zm0 9.38h-7.631v6.151h7.631v-6.151zm0 9.379h-7.631v6.151h7.631v-6.151zm0 18.758h-7.631v6.152h7.631v-6.152zm0 19.436h-7.631v6.151h7.631v-6.151zm0 38.872h-7.631v6.151h7.631v-6.151zm-11.636-302.168h-7.631v6.151h7.631v-6.151zm0 9.379h-7.631v6.151h7.631v-6.151zm0 9.38h-7.631v6.151h7.631v-6.151zm0 9.379h-7.631v6.151h7.631v-6.151zm0 9.379h-7.631v6.151h7.631v-6.151zm0 9.379h-7.631v6.151h7.631v-6.151zm0 9.379h-7.631v6.152h7.631v-6.152zm0 9.38h-7.631v6.151h7.631v-6.151zm0 9.379h-7.631v6.151h7.631v-6.151zm0 9.379h-7.631v6.151h7.631v-6.151zm0 9.38h-7.631v6.151h7.631v-6.151zm0 9.379h-7.631v6.151h7.631v-6.151zm0 9.379h-7.631v6.151h7.631v-6.151zm0 9.379h-7.631v6.151h7.631v-6.151zm0 9.38h-7.631v6.151h7.631v-6.151zm0 18.758h-7.631v6.151h7.631v-6.151zm0 9.379h-7.631v6.151h7.631v-6.151zm0 9.38h-7.631v6.151h7.631v-6.151zm0 9.379h-7.631v6.151h7.631v-6.151zm0 9.379h-7.631v6.151h7.631v-6.151zm0 9.379h-7.631v6.151h7.631v-6.151zm0 9.379h-7.631v6.152h7.631v-6.152zm0 9.38h-7.631v6.151h7.631v-6.151zm0 9.379h-7.631v6.151h7.631v-6.151zm0 9.379h-7.631v6.151h7.631v-6.151zm0 9.379h-7.631v6.152h7.631v-6.152zm0 58.308h-7.631v6.151h7.631v-6.151zm0-48.928h-7.631v6.151h7.631v-6.151zm-11.64-253.24h-7.63v6.151h7.63v-6.151zm0 9.379h-7.63v6.151h7.63v-6.151zm0 9.38h-7.63v6.151h7.63v-6.151zm0 9.379h-7.63v6.151h7.63v-6.151zm0 9.379h-7.63v6.151h7.63v-6.151zm0 9.379h-7.63v6.151h7.63v-6.151zm0 9.379h-7.63v6.152h7.63v-6.152zm0 9.38h-7.63v6.151h7.63v-6.151zm0 9.379h-7.63v6.151h7.63v-6.151zm0 9.379h-7.63v6.151h7.63v-6.151zm0 9.38h-7.63v6.151h7.63v-6.151zm0 9.379h-7.63v6.151h7.63v-6.151zm0 9.379h-7.63v6.151h7.63v-6.151zm0 9.379h-7.63v6.151h7.63v-6.151zm0 9.38h-7.63v6.151h7.63v-6.151zm0 9.379h-7.63v6.151h7.63v-6.151zm0 18.758h-7.63v6.151h7.63v-6.151zm0 9.38h-7.63v6.151h7.63v-6.151zm0 9.379h-7.63v6.151h7.63v-6.151zm0 9.379h-7.63v6.151h7.63v-6.151zm0 18.758h-7.63v6.152h7.63v-6.152zm0 9.38h-7.63v6.151h7.63v-6.151zm0 9.379h-7.63v6.151h7.63v-6.151zm0 9.379h-7.63v6.151h7.63v-6.151zm0 9.379h-7.63v6.152h7.63v-6.152zm0 19.436h-7.63v6.151h7.63v-6.151zm0 19.436h-7.63v6.151h7.63V626.9zm0 28.774h-7.63v6.152h7.63v-6.152zm-11.636-311.506h-7.63v6.151h7.63v-6.151zm0 9.379h-7.63v6.151h7.63v-6.151zm0 18.759h-7.63v6.151h7.63v-6.151zm0 9.379h-7.63v6.151h7.63v-6.151zm0 9.379h-7.63v6.151h7.63v-6.151zm0 18.759h-7.63v6.151h7.63v-6.151zm0 9.379h-7.63v6.151h7.63v-6.151zm0 9.379h-7.63v6.151h7.63v-6.151zm0 9.38h-7.63v6.151h7.63v-6.151zm0 9.379h-7.63v6.151h7.63v-6.151zm0 9.379h-7.63v6.151h7.63v-6.151zm0 9.379h-7.63v6.151h7.63v-6.151zm0 9.38h-7.63v6.151h7.63v-6.151zm0 9.379h-7.63v6.151h7.63v-6.151zm0 9.379h-7.63v6.151h7.63v-6.151zm0 9.379h-7.63v6.151h7.63v-6.151zm0 9.38h-7.63v6.151h7.63v-6.151zm0 9.379h-7.63v6.151h7.63v-6.151zm0 9.379h-7.63v6.151h7.63v-6.151zm0 9.379h-7.63v6.151h7.63v-6.151zm0 9.379h-7.63v6.152h7.63v-6.152zm0 9.38h-7.63v6.151h7.63v-6.151zm0 9.379h-7.63v6.151h7.63v-6.151zm0 9.379h-7.63v6.151h7.63v-6.151zm0 9.379h-7.63v6.152h7.63v-6.152zm0 19.436h-7.63v6.151h7.63v-6.151zm0 19.436h-7.63v6.151h7.63V626.9zm0 19.436h-7.63v6.151h7.63v-6.151zm0 19.433h-7.63v6.151h7.63v-6.151zm0-68.361h-7.63v6.151h7.63v-6.151zm-11.638-253.24h-7.631v6.151h7.631v-6.151zm0 9.379h-7.631v6.151h7.631v-6.151zm0 9.38h-7.631v6.151h7.631v-6.151zm0 9.379h-7.631v6.151h7.631v-6.151zm0 9.379h-7.631v6.151h7.631v-6.151zm0 9.379h-7.631v6.151h7.631v-6.151zm0 9.379h-7.631v6.152h7.631v-6.152zm0 9.38h-7.631v6.151h7.631v-6.151zm0 9.379h-7.631v6.151h7.631v-6.151zm0 9.379h-7.631v6.151h7.631v-6.151zm0 9.38h-7.631v6.151h7.631v-6.151zm0 9.379h-7.631v6.151h7.631v-6.151zm0 9.379h-7.631v6.151h7.631v-6.151zm0 9.379h-7.631v6.151h7.631v-6.151zm0 9.38h-7.631v6.151h7.631v-6.151zm0 9.379h-7.631v6.151h7.631v-6.151zm0 9.379h-7.631v6.151h7.631v-6.151zm0 9.379h-7.631v6.151h7.631v-6.151zm0 9.38h-7.631v6.151h7.631v-6.151zm0 9.379h-7.631v6.151h7.631v-6.151zm0 9.379h-7.631v6.151h7.631v-6.151zm0 9.379h-7.631v6.151h7.631v-6.151zm0 9.379h-7.631v6.152h7.631v-6.152zm0 9.38h-7.631v6.151h7.631v-6.151zm0 9.379h-7.631v6.151h7.631v-6.151zm0 9.379h-7.631v6.151h7.631v-6.151zm0 9.379h-7.631v6.152h7.631v-6.152zm0 19.436h-7.631v6.151h7.631v-6.151zm0 9.66h-7.631v6.152h7.631v-6.152zm0-19.716h-7.631v6.151h7.631v-6.151zm-11.636-243.861h-7.63v6.151h7.63v-6.151zm0 9.38h-7.63v6.151h7.63v-6.151zm0 9.379h-7.63v6.151h7.63v-6.151zm0 9.379h-7.63v6.151h7.63v-6.151zm0 9.379h-7.63v6.151h7.63v-6.151zm0 9.379h-7.63v6.152h7.63v-6.152zm0 9.38h-7.63v6.151h7.63v-6.151zm0 9.379h-7.63v6.151h7.63v-6.151zm0 9.379h-7.63v6.151h7.63v-6.151zm0 9.38h-7.63v6.151h7.63v-6.151zm0 9.379h-7.63v6.151h7.63v-6.151zm0 9.379h-7.63v6.151h7.63v-6.151zm0 9.379h-7.63v6.151h7.63v-6.151zm0 9.38h-7.63v6.151h7.63v-6.151zm0 18.758h-7.63v6.151h7.63v-6.151zm0 9.379h-7.63v6.151h7.63v-6.151zm0 9.38h-7.63v6.151h7.63v-6.151zm0 9.379h-7.63v6.151h7.63v-6.151zm0 9.379h-7.63v6.151h7.63v-6.151zm0 18.758h-7.63v6.152h7.63v-6.152zm0 9.38h-7.63v6.151h7.63v-6.151zm0 9.379h-7.63v6.151h7.63v-6.151zm0 9.379h-7.63v6.151h7.63v-6.151zm0 9.379h-7.63v6.152h7.63v-6.152zm0 19.436h-7.63v6.151h7.63v-6.151zm0 38.872h-7.63v6.151h7.63v-6.151zm0-48.928h-7.63v6.151h7.63v-6.151zm-11.636-243.861h-7.63v6.151h7.63v-6.151zm0 9.38h-7.63v6.151h7.63v-6.151zm0 9.379h-7.63v6.151h7.63v-6.151zm0 9.379h-7.63v6.151h7.63v-6.151zm0 9.379h-7.63v6.151h7.63v-6.151zm0 9.379h-7.63v6.152h7.63v-6.152zm0 18.759h-7.63v6.151h7.63v-6.151zm0 9.379h-7.63v6.151h7.63v-6.151zm0 9.38h-7.63v6.151h7.63v-6.151zm0 9.379h-7.63v6.151h7.63v-6.151zm0 9.379h-7.63v6.151h7.63v-6.151zm0 18.759h-7.63v6.151h7.63v-6.151zm0 9.379h-7.63v6.151h7.63v-6.151zm0 9.379h-7.63v6.151h7.63v-6.151zm0 9.379h-7.63v6.151h7.63v-6.151zm0 9.38h-7.63v6.151h7.63v-6.151zm0 9.379h-7.63v6.151h7.63v-6.151zm0 9.379h-7.63v6.151h7.63v-6.151zm0 9.379h-7.63v6.151h7.63v-6.151zm0 9.379h-7.63v6.152h7.63v-6.152zm0 9.38h-7.63v6.151h7.63v-6.151zm0 9.379h-7.63v6.151h7.63v-6.151zm0 18.758h-7.63v6.152h7.63v-6.152zm0 19.436h-7.63v6.151h7.63v-6.151zm0 19.436h-7.63v6.151h7.63V626.9zm0 19.436h-7.63v6.151h7.63v-6.151zm0 29.869h-7.63v6.151h7.63v-6.151zm23.272 16.416h-7.631v6.152h7.631v-6.152zm-23.272-95.213h-7.63v6.151h7.63v-6.151zm-11.638-234.481h-7.631v6.151h7.631v-6.151zm0 9.379h-7.631v6.151h7.631v-6.151zm0 9.379h-7.631v6.151h7.631v-6.151zm0 9.379h-7.631v6.151h7.631v-6.151zm0 9.379h-7.631v6.152h7.631v-6.152zm0 9.38h-7.631v6.151h7.631v-6.151zm0 9.379h-7.631v6.151h7.631v-6.151zm0 9.379h-7.631v6.151h7.631v-6.151zm0 9.38h-7.631v6.151h7.631v-6.151zm0 9.379h-7.631v6.151h7.631v-6.151zm0 9.379h-7.631v6.151h7.631v-6.151zm0 9.379h-7.631v6.151h7.631v-6.151zm0 9.38h-7.631v6.151h7.631v-6.151zm0 9.379h-7.631v6.151h7.631v-6.151zm0 9.379h-7.631v6.151h7.631v-6.151zm0 9.379h-7.631v6.151h7.631v-6.151zm0 9.38h-7.631v6.151h7.631v-6.151zm0 9.379h-7.631v6.151h7.631v-6.151zm0 9.379h-7.631v6.151h7.631v-6.151zm0 9.379h-7.631v6.151h7.631v-6.151zm0 9.379h-7.631v6.152h7.631v-6.152zm0 9.38h-7.631v6.151h7.631v-6.151zm0 9.379h-7.631v6.151h7.631v-6.151zm0 9.379h-7.631v6.151h7.631v-6.151zm0 9.379h-7.631v6.152h7.631v-6.152zm0 19.436h-7.631v6.151h7.631v-6.151zm0-10.056h-7.631v6.151h7.631v-6.151zm-11.637-234.481h-7.631v6.151h7.631v-6.151zm0 9.379h-7.631v6.151h7.631v-6.151zm0 9.379h-7.631v6.151h7.631v-6.151zm0 9.379h-7.631v6.151h7.631v-6.151zm0 9.379h-7.631v6.152h7.631v-6.152zm0 9.38h-7.631v6.151h7.631v-6.151zm0 9.379h-7.631v6.151h7.631v-6.151zm0 9.379h-7.631v6.151h7.631v-6.151zm0 9.38h-7.631v6.151h7.631v-6.151zm0 9.379h-7.631v6.151h7.631v-6.151zm0 9.379h-7.631v6.151h7.631v-6.151zm0 9.379h-7.631v6.151h7.631v-6.151zm0 9.38h-7.631v6.151h7.631v-6.151zm0 9.379h-7.631v6.151h7.631v-6.151zm0 9.379h-7.631v6.151h7.631v-6.151zm0 9.379h-7.631v6.151h7.631v-6.151zm0 9.38h-7.631v6.151h7.631v-6.151zm0 18.758h-7.631v6.151h7.631v-6.151zm0 9.379h-7.631v6.151h7.631v-6.151zm0 9.379h-7.631v6.152h7.631v-6.152zm0 9.38h-7.631v6.151h7.631v-6.151zm0 9.379h-7.631v6.151h7.631v-6.151zm0 9.379h-7.631v6.151h7.631v-6.151zm0 9.379h-7.631v6.152h7.631v-6.152zm0 19.436h-7.631v6.151h7.631v-6.151zm0 19.436h-7.631v6.151h7.631V626.9zm0-10.056h-7.631v6.15h7.631v-6.15z" fill="#F55151"/></g></svg>