<svg width="713" height="547" fill="none" xmlns="http://www.w3.org/2000/svg"><path d="M533.444 57.82h58.416c2.553 0 4.788 2.234 4.788 4.788v470.357c0 2.714-2.235 4.789-4.788 4.789H29.41c-2.554 0-4.789-2.075-4.789-4.789V62.607c0-2.553 2.235-4.788 4.788-4.788h69.588m98.476.001h144.762" stroke="#fff" stroke-miterlimit="10" stroke-linecap="round" stroke-linejoin="round"/><path d="M121.981 177.843H68.832v-1.277c.32-21.706 10.374-41.657 26.495-56.181.478-.319.798-.798 1.276-1.277l2.873-2.873c4.629-4.947 8.938-11.012 11.811-18.354.319-.639.479-1.277.798-1.916 1.915-5.426 3.033-11.65 3.033-18.514l1.277 19.632v.16l5.586 80.6z" fill="#FFAD28" stroke="#262626" stroke-miterlimit="10" stroke-linecap="round" stroke-linejoin="round"/><path d="M186.621 77.611c0 19.791 9.417 33.518 19.791 42.775 16.28 14.683 26.495 35.113 26.495 56.979v.479h-53.149" fill="#FFAD28"/><path d="M186.621 77.611c0 19.791 9.417 33.518 19.791 42.775 16.28 14.683 26.495 35.113 26.495 56.979v.479h-53.149" stroke="#262626" stroke-miterlimit="10" stroke-linecap="round" stroke-linejoin="round"/><path opacity=".5" d="M121.982 177.844h-17.876c-2.394-9.416-4.469-18.993-5.905-28.569-1.437-9.896-2.075-20.11-1.596-30.165l2.872-2.873c4.629-4.948 8.938-11.013 11.811-18.355l5.108-.798v.16l5.586 80.6zm57.776 0h17.876c2.394-9.416 4.469-18.993 5.905-28.569 1.437-9.896 2.075-20.11 1.596-30.165l-2.873-2.873c-4.628-4.948-8.938-11.013-11.811-18.355l-5.107-.798v.16l-5.586 80.6z" fill="#D0D2D3"/><path d="M168.426 203.699c0 33.198-7.821 85.549-17.557 85.549-9.736 0-17.557-52.83-17.557-85.549" fill="#FFAD28"/><path d="M159.489 203.699c0 16.12-3.83 41.657-8.618 41.657s-8.619-25.696-8.619-41.657" fill="#FFAD28"/><path d="M170.98 205.136h-40.22l-3.99-18.993h48.2l-3.99 18.993z" fill="#262626" stroke="#262626" stroke-miterlimit="10" stroke-linecap="round" stroke-linejoin="round"/><path d="M178.801 42.498h-55.862C135.069 15.684 150.392 1.477 150.87 1c0 0 15.642 14.205 27.931 41.498z" fill="#FFAD28" stroke="#262626" stroke-miterlimit="10" stroke-linecap="round" stroke-linejoin="round"/><path d="M178.003 193.804h-54.266c-25.856-67.832-15.642-118.906-.798-151.306h55.862c14.843 32.4 25.058 83.474-.798 151.306z" fill="#fff" stroke="#262626" stroke-miterlimit="10" stroke-linecap="round" stroke-linejoin="round"/><path d="M150.87 103.787c12.693 0 22.983-10.29 22.983-22.984 0-12.693-10.29-22.983-22.983-22.983-12.693 0-22.983 10.29-22.983 22.983 0 12.694 10.29 22.984 22.983 22.984z" fill="#fff" stroke="#262626" stroke-miterlimit="10" stroke-linecap="round" stroke-linejoin="round"/><path d="M150.87 96.923c8.903 0 16.12-7.217 16.12-16.12 0-8.903-7.217-16.12-16.12-16.12-8.903 0-16.12 7.217-16.12 16.12 0 8.903 7.217 16.12 16.12 16.12z" fill="#262626" stroke="#262626" stroke-miterlimit="10" stroke-linecap="round" stroke-linejoin="round"/><path opacity=".5" d="M152.147 193.804h-28.41c-25.856-67.833-15.642-118.907-.798-151.306C135.069 15.684 150.391 1.477 150.87 1c-.16.479-5.427 16.759-9.736 41.498-7.023 39.582-11.651 100.87 11.013 151.306z" fill="#D0D2D3"/><path d="M129.163 209.765c-.798 21.068-2.394 41.976-4.629 62.884a794.955 794.955 0 01-9.097 61.129c-3.671 19.472-7.981 38.784-13.248 57.778-4.947 18.195-10.693 36.39-17.237 54.106a507.536 507.536 0 01-20.909 48.999l-2.872 5.746c-.48.957.957 1.755 1.436.798 7.98-15.642 15.003-31.762 21.228-48.201 6.703-17.557 12.608-35.592 17.716-53.628a728.221 728.221 0 0013.886-57.937 785.043 785.043 0 009.576-60.65 832.145 832.145 0 005.267-63.044c.159-2.713.159-5.267.319-7.98.16-1.118-1.436-1.118-1.436 0zm41.657 1.116a1241.252 1241.252 0 005.267 59.373c2.234 19.313 4.788 38.625 7.98 57.778a1128.981 1128.981 0 0010.534 56.34c3.831 18.036 8.14 36.071 13.088 53.947 4.628 17.238 9.736 34.315 15.481 51.234.639 2.075 1.437 3.99 2.075 6.065.319.957 1.916.478 1.596-.479-5.745-16.759-10.853-33.517-15.641-50.595-4.948-17.716-9.257-35.433-13.247-53.468-4.15-18.514-7.661-37.029-10.853-55.702-3.193-19.313-6.065-38.785-8.3-58.257-2.394-19.631-4.15-39.263-5.586-59.054-.16-2.394-.319-4.947-.479-7.341-.479-.798-2.075-.798-1.915.159zm7.023-2.713c2.075 16.918 6.225 33.677 13.088 49.159 1.756 3.83 3.671 7.661 5.746 11.332.479.957 1.915.159 1.436-.798-8.14-13.727-13.087-29.208-16.28-44.69-.957-4.948-1.915-9.896-2.553-15.003 0-1.117-1.596-1.117-1.437 0zm-53.629-.32a145.374 145.374 0 01-6.065 18.355c-.319.957 1.118 1.436 1.596.479a145.374 145.374 0 006.065-18.355c.32-.958-1.276-1.436-1.596-.479z" fill="#fff"/><path d="M150.871 499.926c0 18.993-11.81 35.113-28.409 41.657-5.108 1.915-10.534 3.032-16.28 3.032-11.651 0-22.185-4.468-30.166-11.651-8.938-8.14-14.524-19.95-14.524-33.038 0-23.143 17.716-42.296 40.221-44.53 1.436-.16 3.032-.16 4.469-.16a45.422 45.422 0 0116.28 3.033c16.599 6.384 28.409 22.664 28.409 41.657zm139.081-103.609c13.089-13.089 13.089-34.311 0-47.4-13.09-13.089-34.311-13.089-47.4 0-13.09 13.089-13.09 34.311 0 47.4 13.089 13.089 34.31 13.089 47.4 0z" fill="#fff" stroke="#262626" stroke-miterlimit="10" stroke-linecap="round" stroke-linejoin="round"/><path opacity=".5" d="M274.405 405.122c-2.554.638-5.267.957-8.14.957-18.514 0-33.517-15.003-33.517-33.517 0-18.514 15.003-33.517 33.517-33.517 2.714 0 5.427.319 8.14.958-14.524 3.67-25.377 16.758-25.377 32.4 0 15.96 10.693 29.048 25.377 32.719z" fill="#D0D2D3"/><path d="M24.622 477.423c13.045 0 23.621-10.576 23.621-23.622S37.667 430.18 24.622 430.18C11.576 430.18 1 440.755 1 453.801s10.576 23.622 23.622 23.622z" fill="#fff" stroke="#262626" stroke-miterlimit="10" stroke-linecap="round" stroke-linejoin="round"/><path opacity=".5" d="M33.24 475.827c-2.713 1.117-5.586 1.596-8.618 1.596A23.568 23.568 0 011 453.801a23.568 23.568 0 0123.622-23.621c3.032 0 5.905.638 8.618 1.596-8.778 3.511-15.003 11.97-15.003 22.025 0 10.055 6.225 18.515 15.003 22.026z" fill="#D0D2D3"/><path d="M188.696 518.122c0 9.098-4.628 17.078-11.651 21.866-4.309 2.873-9.417 4.629-14.843 4.629a26.43 26.43 0 01-26.495-26.495 26.43 26.43 0 0126.495-26.494c1.915 0 3.671.16 5.426.638 11.971 2.554 21.068 13.088 21.068 25.856z" fill="#fff" stroke="#262626" stroke-miterlimit="10" stroke-linecap="round" stroke-linejoin="round"/><path opacity=".5" d="M171.139 543.021c-2.872.958-5.905 1.596-8.937 1.596-14.525 0-26.495-11.811-26.495-26.495a26.43 26.43 0 0126.495-26.494c1.915 0 3.671.16 5.426.638 1.277.32 2.394.639 3.511.958-10.214 3.671-17.397 13.407-17.397 24.898 0 11.492 7.183 21.228 17.397 24.899z" fill="#D0D2D3"/><path d="M211.999 432.733c8.021 0 14.524-6.503 14.524-14.524 0-8.022-6.503-14.524-14.524-14.524-8.022 0-14.524 6.502-14.524 14.524 0 8.021 6.502 14.524 14.524 14.524z" fill="#fff" stroke="#262626" stroke-miterlimit="10" stroke-linecap="round" stroke-linejoin="round"/><path opacity=".5" d="M218.543 430.977c-1.916.958-4.31 1.596-6.544 1.596-7.981 0-14.524-6.384-14.524-14.364 0-7.981 6.543-14.524 14.524-14.524 2.394 0 4.628.638 6.544 1.596-4.629 2.394-7.821 7.182-7.821 12.928 0 5.745 3.192 10.374 7.821 12.768z" fill="#D0D2D3"/><path d="M100.085 361.61c1.844-7.716-2.917-15.466-10.633-17.309-7.716-1.844-15.465 2.916-17.309 10.632-1.844 7.716 2.917 15.466 10.633 17.31 7.716 1.843 15.465-2.917 17.309-10.633z" fill="#fff" stroke="#262626" stroke-miterlimit="10" stroke-linecap="round" stroke-linejoin="round"/><path opacity=".5" d="M93.254 370.647c-2.075 1.277-4.629 1.915-7.183 1.915a14.305 14.305 0 01-14.364-14.364c0-7.821 6.384-14.365 14.365-14.365 2.553 0 5.107.638 7.182 1.915-4.31 2.394-7.183 7.023-7.183 12.45 0 5.426 2.873 10.055 7.183 12.449z" fill="#D0D2D3"/><path d="M70.59 213.596c0 8.938-12.61 8.938-12.61 17.876 0 8.937 12.61 8.937 12.61 17.875s-12.61 8.938-12.61 17.876 12.61 8.938 12.61 17.876-12.61 8.938-12.61 17.876m192.166-105.98v49.159m24.579-24.58h-49.159m36.551-11.97l-23.941 24.1m23.941 0l-23.941-24.1" stroke="#fff" stroke-miterlimit="10" stroke-linecap="round" stroke-linejoin="round"/><path d="M701.987 234.821L630.963 510.78c-.958 3.511-3.991 5.905-7.662 5.905h-10.853c3.671 0 6.704-2.394 7.661-5.905l71.025-275.959c1.277-4.947-2.554-9.895-7.661-9.895h10.693c5.267 0 9.098 4.948 7.821 9.895z" fill="#fff" stroke="#262626" stroke-miterlimit="10" stroke-linecap="round" stroke-linejoin="round"/><path d="M691.293 234.821L620.268 510.78c-.957 3.511-3.99 5.905-7.661 5.905H238.172c-5.107 0-8.938-4.948-7.661-9.896l41.019-159.126 30.006-116.832c.957-3.511 4.149-5.905 7.661-5.905h374.275c5.267 0 9.098 4.948 7.821 9.895z" fill="#fff" stroke="#262626" stroke-miterlimit="10" stroke-linecap="round" stroke-linejoin="round"/><path d="M681.4 234.503l-70.227 272.606H240.409l40.38-157.052 29.687-115.554H681.4z" fill="#262626" stroke="#262626" stroke-miterlimit="10" stroke-linecap="round" stroke-linejoin="round"/><path d="M521.635 75.376h-166.15a5.382 5.382 0 01-5.426-5.426V6.427A5.382 5.382 0 01355.485 1h166.15a5.382 5.382 0 015.426 5.427V69.95a5.382 5.382 0 01-5.426 5.426zM388.045 20.63h50.435m-50.435 17.558h101.03m-101.03 17.556h101.03" stroke="#fff" stroke-miterlimit="10" stroke-linecap="round" stroke-linejoin="round"/><path d="M641.976 511.259c5.267 4.788 12.449 7.342 19.472 7.182 3.671-.159 7.182-.798 10.374-2.234s7.023-3.671 7.98-7.342c.798-3.352-1.277-6.544-4.788-6.544-3.352 0-5.746 2.554-6.065 5.746-.319 3.671 2.235 7.023 5.427 8.778 3.192 1.756 6.863 2.394 10.374 2.235 7.182-.16 15.003-3.352 18.035-10.374.479-.958-.957-1.756-1.436-.799-2.234 5.267-7.501 8.3-12.928 9.258-2.873.478-5.746.478-8.619-.16-3.192-.638-6.703-2.075-8.299-4.948-1.437-2.553-1.437-6.544 1.755-7.82 1.118-.479 2.554-.479 3.671 0 1.437.798 1.916 2.553 1.437 4.149-.798 3.192-4.469 5.267-7.342 6.385-2.873 1.276-5.905 1.915-8.938 2.074-6.863.32-13.886-1.915-18.993-6.703-.798-.798-1.915.319-1.117 1.117z" fill="#fff"/><path d="M592.819 494.66H265.308c-4.15 0-6.544-3.352-5.586-7.501l60.331-232.705c1.117-4.15 5.267-7.502 9.416-7.502h327.352c4.149 0 6.544 3.352 5.586 7.502l-60.331 232.705c-.958 4.149-5.267 7.501-9.257 7.501z" fill="#fff" stroke="#262626" stroke-miterlimit="10" stroke-linecap="round" stroke-linejoin="round"/><path d="M657.14 274.724H314.786l5.427-20.749c.957-3.831 4.947-7.023 8.938-7.023h328.308c3.831 0 6.225 3.192 5.267 7.023l-5.586 20.749z" fill="#D0D2D3" stroke="#262626" stroke-miterlimit="10" stroke-linecap="round" stroke-linejoin="round"/><path d="M340.271 263.31c1.787-1.571 2.246-3.972 1.024-5.362-1.222-1.391-3.662-1.245-5.449.327-1.788 1.571-2.247 3.971-1.025 5.362s3.662 1.244 5.45-.327zm16.491-2.473c-.479 2.075-2.714 3.831-4.789 3.831-2.074 0-3.351-1.756-2.872-3.831.478-2.075 2.713-3.83 4.788-3.83 2.234 0 3.511 1.755 2.873 3.83zm13.229 2.557c1.788-1.571 2.247-3.972 1.025-5.362-1.222-1.391-3.662-1.245-5.45.327-1.788 1.571-2.246 3.971-1.024 5.362 1.221 1.39 3.661 1.244 5.449-.327z" fill="#262626" stroke="#262626" stroke-miterlimit="10" stroke-linecap="round" stroke-linejoin="round"/><path d="M283.662 468.166c-.638 2.553.958 4.628 3.512 4.628h294.951c2.554 0 5.267-2.075 6.065-4.628l43.732-169.023c.638-2.553-.958-4.628-3.512-4.628H333.459c-2.553 0-5.267 2.075-6.065 4.628l-43.732 169.023z" fill="#fff"/><path d="M283.662 468.166c-.638 2.553.958 4.628 3.512 4.628h294.951c2.554 0 5.267-2.075 6.065-4.628l43.732-169.023c.638-2.553-.958-4.628-3.512-4.628H333.459c-2.553 0-5.267 2.075-6.065 4.628l-43.732 169.023z" stroke="#262626" stroke-miterlimit="10" stroke-linecap="round" stroke-linejoin="round"/><path d="M312.869 422.199c-.638 2.554.958 4.628 3.512 4.628H438c2.554 0 5.267-2.074 6.065-4.628l27.612-106.457c.638-2.554-.958-4.629-3.511-4.629h-121.62c-2.554 0-5.267 2.075-6.065 4.629l-27.612 106.457z" fill="#D0D2D3"/><path d="M312.869 422.199c-.638 2.554.958 4.628 3.512 4.628H438c2.554 0 5.267-2.074 6.065-4.628l27.612-106.457c.638-2.554-.958-4.629-3.511-4.629h-121.62c-2.554 0-5.267 2.075-6.065 4.629l-27.612 106.457z" stroke="#262626" stroke-miterlimit="10" stroke-linecap="round" stroke-linejoin="round"/><path d="M453.8 452.845c-.638 2.553.958 4.628 3.671 4.628h111.724c2.554 0 5.267-2.075 5.906-4.628l14.045-54.586c.638-2.553-.958-4.628-3.671-4.628H473.751c-2.554 0-5.267 2.075-5.905 4.628L453.8 452.845z" fill="#D0D2D3"/><path d="M453.8 452.845c-.638 2.553.958 4.628 3.671 4.628h111.724c2.554 0 5.267-2.075 5.906-4.628l14.045-54.586c.638-2.553-.958-4.628-3.671-4.628H473.751c-2.554 0-5.267 2.075-5.905 4.628L453.8 452.845zm21.866-84.273h32.081m-28.89-12.29h15.323m-21.865 24.42h32.081m-200.464 75.494h131.834m-128.642-12.29h65.438m147.795-75.335h31.922m-28.891-12.29h15.481m-21.865 24.421h32.081m15.482-12.131h32.081m-28.888-12.29h15.322m-21.866 24.421h32.081" stroke="#262626" stroke-miterlimit="10" stroke-linecap="round" stroke-linejoin="round"/><path d="M559.939 338.565c-.639 2.554-3.352 4.629-6.065 4.629H531.21c-2.554 0-4.31-2.075-3.512-4.629l5.906-22.823c.638-2.554 3.351-4.629 6.065-4.629h22.664c2.553 0 4.309 2.075 3.511 4.629l-5.905 22.823z" fill="#FFAD28"/><path d="M559.939 338.565c-.639 2.554-3.352 4.629-6.065 4.629H531.21c-2.554 0-4.31-2.075-3.512-4.629l5.906-22.823c.638-2.554 3.351-4.629 6.065-4.629h22.664c2.553 0 4.309 2.075 3.511 4.629l-5.905 22.823z" stroke="#262626" stroke-miterlimit="10" stroke-linecap="round" stroke-linejoin="round"/><path d="M515.568 338.565c-.638 2.554-3.351 4.629-6.065 4.629h-22.664c-2.553 0-4.309-2.075-3.511-4.629l5.906-22.823c.638-2.554 3.351-4.629 6.065-4.629h22.664c2.553 0 4.309 2.075 3.511 4.629l-5.906 22.823z" fill="#FFAD28"/><path d="M515.568 338.565c-.638 2.554-3.351 4.629-6.065 4.629h-22.664c-2.553 0-4.309-2.075-3.511-4.629l5.906-22.823c.638-2.554 3.351-4.629 6.065-4.629h22.664c2.553 0 4.309 2.075 3.511 4.629l-5.906 22.823z" stroke="#262626" stroke-miterlimit="10" stroke-linecap="round" stroke-linejoin="round"/><path d="M604.311 338.565c-.638 2.554-3.352 4.629-6.065 4.629h-22.504c-2.714 0-4.31-2.075-3.512-4.629l5.906-22.823c.638-2.554 3.351-4.629 6.065-4.629h22.664c2.553 0 4.309 2.075 3.511 4.629l-6.065 22.823z" fill="#FFAD28"/><path d="M604.311 338.565c-.638 2.554-3.352 4.629-6.065 4.629h-22.504c-2.714 0-4.31-2.075-3.512-4.629l5.906-22.823c.638-2.554 3.351-4.629 6.065-4.629h22.664c2.553 0 4.309 2.075 3.511 4.629l-6.065 22.823z" stroke="#262626" stroke-miterlimit="10" stroke-linecap="round" stroke-linejoin="round"/><path d="M259.241 128.844c23.622 0 23.622 33.198 47.403 33.198 23.622 0 23.622-33.198 47.403-33.198 23.622 0 23.622 33.198 47.403 33.198s23.781-33.198 47.403-33.198c23.781 0 23.781 33.198 47.403 33.198" stroke="#fff" stroke-miterlimit="10" stroke-linecap="round" stroke-linejoin="round"/><path d="M689.058 91.178H538.071V199.71h150.987V91.178z" fill="#FFAD28" stroke="#262626" stroke-miterlimit="10" stroke-linecap="round" stroke-linejoin="round"/><path d="M538.071 91.178l75.494 60.011 73.738-58.734" fill="#fff"/><path d="M689.058 91.178H538.071V199.71h150.987V91.178zM538.071 199.709l60.97-60.012m90.019 60.012l-60.171-59.054" stroke="#262626" stroke-miterlimit="10" stroke-linecap="round" stroke-linejoin="round"/><path d="M538.071 91.178l75.494 60.011 73.738-58.734" stroke="#262626" stroke-miterlimit="10" stroke-linecap="round" stroke-linejoin="round"/><path d="M684.432 85.113c1.117-3.67 3.192-6.703 6.065-9.257-.479 0-.798-.16-1.277-.16 2.235 3.192 1.117 7.502 3.033 11.013.798 1.436 2.074 2.554 3.67 2.713 1.756.32 3.512-.319 5.108-1.117.958-.479 4.788-2.873 5.586-1.277.479.798-.798 1.915-1.436 2.394-.639.639-1.437 1.277-1.916 2.075-.638 1.437 0 2.873 1.277 3.671.639.479 1.437.479 2.394.639 1.118.16 2.554 0 3.352.957.958 1.118-.638 1.756-1.596 2.235-1.277.638-2.554 1.117-3.99 1.755-2.554 1.118-4.948 2.235-7.502 3.352-.957.479-.159 1.756.798 1.437 2.394-1.118 4.789-2.075 7.183-3.193 1.117-.478 2.234-.957 3.351-1.596.958-.478 2.075-.798 2.873-1.596 1.277-1.276.639-3.192-.798-4.15-.798-.478-1.755-.638-2.713-.638-.958-.16-2.235 0-3.033-.798-.957-.957.16-1.915.798-2.554.798-.638 1.437-1.276 1.916-2.075.798-1.596.319-3.51-1.596-3.83-3.671-.638-7.502 4.788-11.173 2.394-1.755-1.117-2.234-3.511-2.553-5.586-.32-2.394-.479-4.948-1.916-6.863-.319-.479-.798-.479-1.277-.16-3.032 2.714-5.267 6.065-6.543 9.896.159.957 1.596 1.436 1.915.319zm-510.42 431.254c0-32.559 26.335-58.894 58.894-58.894 32.56 0 58.895 26.335 58.895 58.894" fill="#fff"/><path d="M174.012 516.367c0-32.559 26.335-58.894 58.894-58.894 32.56 0 58.895 26.335 58.895 58.894" stroke="#262626" stroke-miterlimit="10" stroke-linecap="round" stroke-linejoin="round"/><path opacity=".5" d="M248.069 459.388c-25.696 6.544-44.69 30.006-44.69 57.777h-29.846c0-32.879 26.654-59.692 59.693-59.692 5.107 0 10.055.638 14.843 1.915zm-139.653 73.576c3.99 3.671 8.778 6.704 13.885 8.619-5.107 1.915-10.534 3.032-16.279 3.032-11.652 0-22.186-4.468-30.166-11.651-8.938-8.14-14.524-19.95-14.524-33.038 0-23.143 17.716-42.296 40.221-44.53 1.436-.16 3.032-.16 4.469-.16a45.416 45.416 0 0116.279 3.033c-16.599 6.544-28.41 22.664-28.41 41.657 0 13.088 5.587 24.739 14.525 33.038z" fill="#D0D2D3"/><path d="M88.942 517.005c0 15.163-12.29 27.612-27.611 27.612-12.61 0-23.303-8.459-26.495-20.11-.638-2.394-1.117-4.788-1.117-7.502 0-12.449 8.3-22.983 19.472-26.335 2.553-.798 5.267-1.276 7.98-1.276 15.482.159 27.771 12.449 27.771 27.611z" fill="#fff" stroke="#262626" stroke-miterlimit="10" stroke-linecap="round" stroke-linejoin="round"/><path opacity=".5" d="M72.024 542.542c-3.352 1.437-6.863 2.075-10.694 2.075-12.608 0-23.302-8.459-26.494-20.11-.638-2.394-1.117-4.788-1.117-7.502 0-12.449 8.3-22.983 19.472-26.335 2.553-.798 5.267-1.276 7.98-1.276 3.83 0 7.342.798 10.694 2.234-9.896 4.15-16.919 14.045-16.919 25.377 0 2.554.32 5.108.958 7.502 2.554 8.14 8.459 14.684 16.12 18.035z" fill="#D0D2D3"/><path d="M311.112 545.735H16.64A14.305 14.305 0 012.275 531.37c0-7.98 6.385-14.364 14.365-14.364h294.472a14.304 14.304 0 00-14.364 14.364c0 7.981 6.544 14.365 14.364 14.365z" fill="#D0D2D3" stroke="#262626" stroke-miterlimit="10" stroke-linecap="round" stroke-linejoin="round"/><path d="M185.503 522.113c0 2.873-2.234 5.108-5.107 5.108h-73.259c-2.873 0-5.108-2.235-5.108-5.108 0-2.873 2.235-5.107 5.108-5.107h73.259c2.873 0 5.107 2.394 5.107 5.107z" fill="#262626" stroke="#262626" stroke-miterlimit="10" stroke-linecap="round" stroke-linejoin="round"/><path d="M619.95 531.37a14.305 14.305 0 01-14.365 14.365H311.113a14.305 14.305 0 01-14.365-14.365c0-7.98 6.384-14.364 14.365-14.364h294.472c7.98 0 14.365 6.544 14.365 14.364z" fill="#fff" stroke="#262626" stroke-miterlimit="10" stroke-linecap="round" stroke-linejoin="round"/><path d="M612.448 531.371c0 3.511-2.872 6.225-6.384 6.225-.638 0-1.277-.16-1.755-.32 2.553-.798 4.469-3.192 4.469-6.065s-1.916-5.267-4.469-6.065c.638-.159 1.117-.319 1.755-.319 3.512.319 6.384 3.192 6.384 6.544z" fill="#262626" stroke="#262626" stroke-miterlimit="10" stroke-linecap="round" stroke-linejoin="round"/><path d="M608.778 531.371c0 2.873-1.916 5.267-4.469 6.065-2.554-.798-4.469-3.192-4.469-6.065s1.915-5.267 4.469-6.065c2.553.798 4.469 3.351 4.469 6.065z" fill="#D0D2D3" stroke="#262626" stroke-miterlimit="10" stroke-linecap="round" stroke-linejoin="round"/><path d="M592.498 531.371c0 3.511-2.873 6.225-6.384 6.225-.638 0-1.277-.16-1.756-.32 2.554-.798 4.469-3.192 4.469-6.065s-1.915-5.267-4.469-6.065c.639-.159 1.118-.319 1.756-.319 3.511.319 6.384 3.192 6.384 6.544z" fill="#262626" stroke="#262626" stroke-miterlimit="10" stroke-linecap="round" stroke-linejoin="round"/><path d="M588.827 531.371c0 2.873-1.916 5.267-4.469 6.065-2.554-.798-4.469-3.192-4.469-6.065s1.915-5.267 4.469-6.065c2.553.798 4.469 3.351 4.469 6.065z" fill="#D0D2D3" stroke="#262626" stroke-miterlimit="10" stroke-linecap="round" stroke-linejoin="round"/><path d="M569.036 531.371c0 2.074-1.756 3.83-3.831 3.83h-5.267c2.075 0 3.831-1.756 3.831-3.83 0-2.075-1.756-3.831-3.831-3.831h5.267c2.075 0 3.831 1.756 3.831 3.831z" fill="#262626" stroke="#262626" stroke-miterlimit="10" stroke-linecap="round" stroke-linejoin="round"/><path d="M563.769 531.371c0 2.074-1.756 3.83-3.831 3.83h-26.814c-2.074 0-3.83-1.756-3.83-3.83 0-2.075 1.756-3.831 3.83-3.831h26.814c2.075 0 3.831 1.756 3.831 3.831z" fill="#D0D2D3" stroke="#262626" stroke-miterlimit="10" stroke-linecap="round" stroke-linejoin="round"/><path d="M502.32 531.371c0 2.872-2.394 5.266-5.267 5.266h-7.182c2.873 0 5.267-2.394 5.267-5.266 0-2.873-2.394-5.267-5.267-5.267h7.182c3.033.159 5.267 2.394 5.267 5.267z" fill="#262626" stroke="#262626" stroke-miterlimit="10" stroke-linecap="round" stroke-linejoin="round"/><path d="M495.297 531.371c0 2.872-2.394 5.266-5.267 5.266H330.584c-2.873 0-5.267-2.394-5.267-5.266 0-2.873 2.394-5.267 5.267-5.267H490.03c2.873.159 5.267 2.394 5.267 5.267z" fill="#D0D2D3" stroke="#262626" stroke-miterlimit="10" stroke-linecap="round" stroke-linejoin="round"/><path d="M702.946 545.733h-99.913" stroke="#262626" stroke-miterlimit="10" stroke-linecap="round" stroke-linejoin="round"/></svg>