<svg width="39" height="41" fill="none" xmlns="http://www.w3.org/2000/svg"><path d="M0 0h38.21l-.433 4.652L.563 4.565 0 0zm7.096 24.752l12.484 9.866.486 2.848-.486 2.712L3.461 27.413l3.635-2.661z" fill="#7E44FE"/><path d="M6.881 22.393l.238 2.424-1.417 1.69-2.24.906-1.06-8.395 4.48 3.375zm24.859 2.489l-12.159 9.736-.238 2.748.238 2.813 15.881-12.874-.958-4.203-2.763 1.78zm-18.8-4.825h15.6l-1.537 4.046H11.836l1.103-4.046zM.55 4.418l4.577-.329.844 10.667-3.916 1.86L.55 4.419z" fill="#7E44FE"/><path d="M2.055 16.617l3.873-1.969 7.335 5.452-1.43 4.003-9.778-7.486z" fill="#7E44FE"/><path d="M2.055 16.617l3.873-1.969 7.335 5.452-1.43 4.003-9.778-7.486zM33.839 4.14l3.98.036-1.081 11.056-3.678-3.072.779-8.02zM11.77 9.563h15.708v4.068H11.77z" fill="#7E44FE"/><path d="M27.481 9.563l8.954 7.4-3.44 2.423-8.17-6.534 2.656-3.289z" fill="#7E44FE"/><path d="M36.435 16.963l-.974 10.342-3.721-2.424.575-8.135 4.12.217zM6.664 13.782l5.106-4.219 2.748 2.662-4.63 3.829-3.224-2.272zm19.082 6.253l2.986-2.444 2.553 2.401-4.284 4.111-1.255-4.068z" fill="#7E44FE"/></svg>