<svg width="93" height="43" fill="none" xmlns="http://www.w3.org/2000/svg"><path d="M0 2h38.21l-.433 4.652L.563 6.565 0 2zm7.096 24.752l12.484 9.866.486 2.848-.486 2.713L3.46 29.413l3.636-2.661z" fill="#7E44FE"/><path d="M6.88 24.394l.238 2.423-1.417 1.69-2.24.906-1.06-8.395 4.48 3.376zm24.86 2.488l-12.16 9.736-.237 2.748.238 2.813 15.88-12.874-.958-4.203-2.763 1.78zm-18.8-4.825h15.6l-1.537 4.046H11.836l1.103-4.046zM.55 6.418l4.578-.329.843 10.667-3.916 1.86L.551 6.419z" fill="#7E44FE"/><path d="M2.055 18.617l3.873-1.97 7.334 5.453-1.43 4.003-9.777-7.486z" fill="#7E44FE"/><path d="M2.055 18.617l3.873-1.97 7.334 5.453-1.43 4.003-9.777-7.486zM33.839 6.14l3.98.036-1.081 11.056-3.678-3.072.779-8.02zM11.77 11.563h15.708v4.068H11.77z" fill="#7E44FE"/><path d="M27.48 11.563l8.955 7.4-3.44 2.423-8.171-6.534 2.656-3.289z" fill="#7E44FE"/><path d="M36.435 18.963l-.973 10.342-3.722-2.423.575-8.136 4.12.217zM6.664 15.782l5.106-4.219 2.748 2.662-4.63 3.829-3.224-2.272zm19.082 6.253l2.986-2.445 2.553 2.402-4.284 4.111-1.255-4.068zm22.924-4.059h-4.269l.027-2.813h4.243c1.06 0 1.952-.212 2.68-.637.727-.433 1.275-1.062 1.643-1.887.377-.825.565-1.823.565-2.993v-.853c0-.898-.107-1.687-.323-2.368-.207-.681-.517-1.254-.93-1.719a3.869 3.869 0 00-1.521-1.046c-.601-.24-1.293-.36-2.074-.36h-4.39V.475h4.39c1.31 0 2.51.2 3.596.601 1.095.393 2.042.958 2.841 1.695a7.501 7.501 0 011.845 2.644c.44 1.018.66 2.152.66 3.402v.83c0 1.241-.22 2.375-.66 3.4a7.5 7.5 0 01-1.845 2.645c-.79.73-1.737 1.294-2.841 1.695-1.096.392-2.308.589-3.636.589zM46.69.475v17.5h-4.04V.476h4.04zm21.162 9.82h-5.037L62.79 7.82h4.228c.746 0 1.356-.084 1.832-.252.475-.177.83-.429 1.064-.758.242-.336.364-.745.364-1.226 0-.544-.118-.985-.351-1.322-.225-.336-.579-.58-1.064-.733-.475-.152-1.09-.228-1.845-.228h-2.8v14.676h-4.041V.475h6.841c1.14 0 2.16.096 3.057.288.907.193 1.675.485 2.303.878a4.07 4.07 0 011.441 1.49c.333.593.498 1.299.498 2.116 0 .721-.183 1.386-.551 1.995-.36.61-.93 1.106-1.711 1.49-.772.385-1.782.598-3.03.638l-1.172.925zm-.175 7.68h-5.966l1.576-2.812h4.39c.71 0 1.288-.1 1.737-.3.45-.209.782-.49.997-.842.215-.352.323-.757.323-1.214 0-.513-.099-.957-.296-1.334-.189-.377-.494-.665-.916-.865-.422-.209-.978-.313-1.67-.313H63.96l.027-2.476h4.848l.93.974c1.194-.016 2.154.172 2.881.565.737.384 1.271.885 1.603 1.502a4.03 4.03 0 01.513 1.983c0 1.122-.275 2.068-.823 2.837-.547.761-1.35 1.334-2.41 1.719-1.05.384-2.334.577-3.852.577zM80.704.476l3.69 6.106 3.69-6.106h4.62l-5.697 8.678 5.845 8.823h-4.66l-3.798-6.226-3.797 6.226h-4.688l5.859-8.823-5.71-8.678h4.646zM45.782 28.724h-2.22l.013-1.451h2.207c.55 0 1.016-.11 1.394-.329.378-.223.663-.547.855-.973.195-.426.293-.94.293-1.544v-.44c0-.463-.055-.87-.168-1.221a2.319 2.319 0 00-.483-.887 2.008 2.008 0 00-.792-.54 2.91 2.91 0 00-1.078-.185h-2.284v-1.457h2.284c.681 0 1.305.103 1.87.31a4.29 4.29 0 011.478.874c.415.38.736.835.96 1.364.229.525.343 1.11.343 1.755v.427c0 .64-.114 1.226-.343 1.755a3.878 3.878 0 01-.96 1.364c-.41.376-.904.667-1.478.874-.57.202-1.2.304-1.891.304zm-1.03-9.027v9.027H42.65v-9.027h2.102zm9.248 0v9.027h-2.094v-9.027H54zm9.837 4.309v3.577c-.158.17-.404.353-.735.552-.332.194-.76.361-1.282.502-.523.14-1.156.21-1.899.21a5.406 5.406 0 01-1.8-.285 3.94 3.94 0 01-1.4-.849 3.75 3.75 0 01-.897-1.364c-.21-.541-.315-1.16-.315-1.854v-.564c0-.694.1-1.312.301-1.853a3.76 3.76 0 01.875-1.37c.378-.372.83-.655 1.352-.85a4.972 4.972 0 011.745-.291c.887 0 1.616.128 2.185.384.57.252 1.004.604 1.303 1.054.304.447.49.959.56 1.538h-2.038a2.136 2.136 0 00-.294-.8 1.454 1.454 0 00-.624-.533c-.266-.128-.611-.193-1.036-.193-.35 0-.663.065-.939.193-.271.124-.5.308-.686.551a2.59 2.59 0 00-.428.906 4.78 4.78 0 00-.147 1.252v.576c0 .472.052.89.154 1.253.103.36.255.663.455.911.206.244.458.428.757.552a2.71 2.71 0 001.044.186c.331 0 .607-.025.826-.074.225-.05.404-.11.54-.18a1.74 1.74 0 00.322-.211v-1.6h-1.92v-1.326h4.021zm3.715-4.309v9.027h-2.094v-9.027h2.094zm6.103 0v9.027h-2.094v-9.027h2.094zm3.138 0v1.457h-8.321v-1.457h8.321zm4.374 1.544l-2.774 7.483h-2.235l3.79-9.027h1.422l-.203 1.544zm2.304 7.483l-2.78-7.483-.225-1.544h1.436l3.811 9.027h-2.242zm-.126-3.36v1.456H77.96v-1.457h5.386zM93 27.272v1.45h-5.134v-1.45H93zm-4.455-7.576v9.027h-2.102v-9.027h2.102zM47.118 35.347v.974h-3.544v-.974h3.544zm-3.096-5.086v6.06H42.65v-6.06h1.372zm2.635 2.468v.95h-3.083v-.95h3.083zm.456-2.468v.978h-3.539v-.978h3.54zm4.29 4.05h1.368c-.028.408-.15.77-.37 1.086a2.15 2.15 0 01-.91.741c-.387.178-.854.267-1.4.267-.427 0-.81-.067-1.148-.2a2.446 2.446 0 01-.869-.583 2.536 2.536 0 01-.544-.916 3.622 3.622 0 01-.187-1.203v-.42c0-.444.063-.845.192-1.203.13-.36.317-.667.558-.92a2.48 2.48 0 01.873-.583 3.019 3.019 0 011.135-.204c.554 0 1.022.092 1.403.275.385.183.682.436.892.758.214.322.341.688.385 1.099h-1.373a1.489 1.489 0 00-.16-.62.867.867 0 00-.416-.388c-.183-.088-.427-.133-.731-.133-.23 0-.43.039-.6.117-.17.077-.313.195-.43.354a1.668 1.668 0 00-.26.599 3.773 3.773 0 00-.083.84v.43c0 .313.026.59.078.828.052.236.132.435.238.6.11.16.25.282.42.365.174.081.384.121.627.121.287 0 .523-.041.71-.125a.915.915 0 00.424-.37c.1-.164.16-.368.178-.612zm7.364-1.161v.287c0 .46-.069.874-.206 1.24a2.667 2.667 0 01-.581.937c-.25.255-.548.45-.896.587a3.105 3.105 0 01-1.148.204c-.418 0-.8-.068-1.148-.204a2.582 2.582 0 01-.896-.587 2.7 2.7 0 01-.59-.937 3.529 3.529 0 01-.206-1.24v-.287c0-.464.069-.877.206-1.24a2.68 2.68 0 01.58-.937c.254-.258.553-.456.897-.591.347-.136.73-.204 1.148-.204.42 0 .803.068 1.147.204.349.135.647.332.897.59.253.259.449.57.585.937.14.364.211.777.211 1.24zm-1.386.287v-.296c0-.322-.032-.605-.096-.849a1.767 1.767 0 00-.283-.616 1.198 1.198 0 00-.458-.375 1.415 1.415 0 00-.617-.128c-.232 0-.438.042-.618.128a1.2 1.2 0 00-.452.375 1.788 1.788 0 00-.279.616 3.355 3.355 0 00-.097.85v.295c0 .319.033.602.097.849.063.244.158.451.283.62.125.167.278.293.457.379.18.086.386.13.618.13.232 0 .437-.044.617-.13a1.19 1.19 0 00.453-.379c.122-.169.215-.376.28-.62a3.45 3.45 0 00.095-.85zm5.465 1.299a.73.73 0 00-.055-.292.552.552 0 00-.192-.241 1.734 1.734 0 00-.398-.22 5.909 5.909 0 00-.663-.226 8.997 8.997 0 01-.86-.3 3.643 3.643 0 01-.713-.386 1.798 1.798 0 01-.484-.52 1.326 1.326 0 01-.174-.688c0-.252.06-.481.183-.686a1.63 1.63 0 01.512-.533c.22-.15.479-.265.777-.346.302-.08.633-.12.992-.12.492 0 .92.08 1.285.241.367.161.65.382.852.662.204.28.305.6.305.961h-1.362a.868.868 0 00-.123-.466.807.807 0 00-.367-.32 1.413 1.413 0 00-.612-.117c-.238 0-.436.034-.595.1a.784.784 0 00-.357.262.61.61 0 00-.118.367c0 .102.027.195.082.278a.897.897 0 00.256.234c.112.072.252.14.416.203a6.4 6.4 0 00.572.188c.362.1.681.212.955.337.278.125.51.265.696.42.186.156.326.332.42.53.095.196.142.42.142.67 0 .263-.056.499-.17.707a1.492 1.492 0 01-.489.529 2.4 2.4 0 01-.763.328 4.041 4.041 0 01-.993.113 4.15 4.15 0 01-.973-.117 3.115 3.115 0 01-.874-.362 1.904 1.904 0 01-.622-.616 1.642 1.642 0 01-.233-.887h1.377c0 .189.031.349.096.48a.81.81 0 00.27.315c.118.08.258.14.42.175.165.036.344.054.54.054.237 0 .433-.03.585-.091a.715.715 0 00.343-.254.626.626 0 00.114-.366zm2.845-4.475l1.39 2.764 1.39-2.764h1.496l-2.19 3.854v2.206h-1.39v-2.206l-2.195-3.854h1.499zm7.903 4.475a.745.745 0 00-.055-.292.555.555 0 00-.192-.241 1.727 1.727 0 00-.398-.22 5.966 5.966 0 00-.663-.226 8.92 8.92 0 01-.86-.3 3.597 3.597 0 01-.713-.386 1.81 1.81 0 01-.485-.52 1.333 1.333 0 01-.174-.688c0-.252.061-.481.183-.686.122-.209.293-.386.512-.533.22-.15.479-.265.778-.346.301-.08.632-.12.992-.12.49 0 .92.08 1.285.241.366.161.65.382.85.662.205.28.307.6.307.961h-1.363a.869.869 0 00-.123-.466.805.805 0 00-.366-.32 1.417 1.417 0 00-.613-.117c-.238 0-.436.034-.594.1a.782.782 0 00-.357.262.604.604 0 00-.118.367.5.5 0 00.081.278.89.89 0 00.257.234c.112.072.251.14.416.203.165.064.355.127.571.188.363.1.682.212.956.337.278.125.51.265.695.42.186.156.326.332.42.53.095.196.143.42.143.67 0 .263-.057.499-.17.707a1.499 1.499 0 01-.489.529 2.416 2.416 0 01-.763.328 4.05 4.05 0 01-.993.113c-.33 0-.654-.04-.974-.117a3.102 3.102 0 01-.873-.362 1.906 1.906 0 01-.623-.616 1.65 1.65 0 01-.232-.887h1.376c0 .189.032.349.096.48a.81.81 0 00.27.315c.119.08.26.14.42.175.165.036.345.054.54.054.238 0 .433-.03.585-.091a.712.712 0 00.343-.254.62.62 0 00.115-.366zM78.5 30.26v6.06h-1.367v-6.06H78.5zm2.049 0v.978h-5.433v-.978h5.433zm4.875 5.086v.974H81.88v-.974h3.544zm-3.096-5.086v6.06h-1.372v-6.06h1.372zm2.634 2.468v.95H81.88v-.95h3.082zm.458-2.468v.978h-3.54v-.978h3.54zm1.056 0h1.162l1.71 4.45 1.71-4.45h1.162l-2.405 6.06h-.933l-2.406-6.06zm-.627 0h1.158l.21 4.337v1.724H85.85V30.26zm5.84 0h1.162v6.06H91.48v-1.723l.21-4.337z" fill="#7E44FE"/></svg>