<svg width="133" height="60" fill="none" xmlns="http://www.w3.org/2000/svg"><path d="M0 0h54.508l-.617 6.636L.802 6.513 0 0zm10.123 35.31l17.81 14.074.692 4.063-.693 3.87-22.994-18.21 5.185-3.797z" fill="#7E44FE"/><path d="M9.816 31.946l.34 3.457-2.023 2.412-3.194 1.291-1.512-11.975 6.389 4.815zm35.464 3.549l-17.347 13.89-.34 3.92.34 4.012 22.655-18.365-1.367-5.996-3.941 2.54zm-26.821-6.883h22.254l-2.192 5.772H16.885l1.574-5.772zM.785 6.303l6.53-.47L8.517 21.05 2.93 23.705.785 6.303z" fill="#7E44FE"/><path d="M2.932 23.705l5.525-2.809 10.463 7.778-2.04 5.71-13.948-10.68z" fill="#7E44FE"/><path d="M2.932 23.705l5.525-2.809 10.463 7.778-2.04 5.71-13.948-10.68zm45.341-17.8l5.68.052-1.544 15.772-5.247-4.383 1.111-11.44zm-31.482 7.737h22.408v5.803H16.791z" fill="#7E44FE"/><path d="M39.203 13.642l12.774 10.556-4.908 3.457-11.656-9.321 3.79-4.692z" fill="#7E44FE"/><path d="M51.977 24.198l-1.39 14.754-5.308-3.457.82-11.605 5.878.308zM9.508 19.661l7.284-6.019 3.92 3.797-6.605 5.463-4.6-3.24zm27.22 8.92l4.26-3.487 3.642 3.426-6.111 5.864-1.79-5.803zm32.702.659h-6.09l.038-4.637h6.052c1.511 0 2.785-.35 3.822-1.05 1.039-.714 1.82-1.752 2.345-3.113.538-1.36.806-3.006.806-4.935v-1.407c0-1.48-.153-2.781-.46-3.904-.295-1.123-.737-2.068-1.326-2.834a5.574 5.574 0 00-2.17-1.725c-.859-.396-1.845-.594-2.96-.594h-6.263V.383h6.263c1.87 0 3.58.33 5.13.991A11.55 11.55 0 0178.67 4.17c1.141 1.215 2.019 2.669 2.633 4.36.627 1.678.941 3.548.941 5.609v1.367c0 2.048-.314 3.918-.941 5.61-.614 1.69-1.492 3.144-2.632 4.36a11.663 11.663 0 01-4.054 2.794c-1.563.648-3.292.971-5.187.971zM66.606.383V29.24h-5.764V.383h5.764zm30.188 16.193h-7.186l-.038-4.083h6.033c1.063 0 1.934-.139 2.613-.416.678-.291 1.184-.707 1.518-1.249.344-.555.518-1.229.518-2.022 0-.898-.167-1.625-.5-2.18-.32-.555-.826-.958-1.518-1.209-.678-.25-1.555-.376-2.631-.376h-3.996v24.2h-5.765V.382h9.76c1.627 0 3.08.159 4.361.476 1.294.317 2.389.8 3.286 1.447a6.392 6.392 0 012.056 2.457c.474.978.71 2.14.71 3.488 0 1.19-.262 2.286-.787 3.29-.513 1.005-1.326 1.824-2.441 2.458-1.101.634-2.541.984-4.322 1.05l-1.671 1.527zm-.25 12.664h-8.511l2.248-4.637h6.263c1.012 0 1.838-.166 2.478-.496.64-.343 1.115-.806 1.422-1.387.307-.582.461-1.249.461-2.002 0-.846-.141-1.579-.422-2.2a2.913 2.913 0 00-1.307-1.427c-.602-.344-1.396-.515-2.382-.515H91.24l.039-4.083h6.916l1.325 1.605c1.704-.026 3.075.284 4.112.932 1.051.634 1.813 1.46 2.286 2.477a7.478 7.478 0 01.731 3.27c0 1.85-.391 3.41-1.173 4.678-.78 1.255-1.927 2.2-3.439 2.834-1.498.634-3.33.951-5.494.951zM115.127.383l5.264 10.069 5.265-10.07h6.59l-8.127 14.31 8.338 14.547h-6.648l-5.418-10.266-5.417 10.266h-6.687l8.358-14.547-8.146-14.31h6.628zM65.309 46.962H62.14l.02-2.392h3.148c.785 0 1.449-.18 1.989-.541.54-.369.945-.904 1.219-1.605.279-.702.419-1.55.419-2.546v-.726c0-.763-.08-1.434-.24-2.014-.153-.579-.383-1.066-.69-1.461a2.89 2.89 0 00-1.128-.89c-.446-.204-.96-.306-1.54-.306H62.08v-2.403h3.258c.972 0 1.862.17 2.667.511a6.01 6.01 0 012.11 1.442 6.478 6.478 0 011.368 2.249c.327.865.49 1.83.49 2.893v.705c0 1.056-.163 2.02-.49 2.893a6.476 6.476 0 01-1.368 2.249c-.587.62-1.29 1.1-2.11 1.441-.812.334-1.711.501-2.697.501zm-1.47-14.884v14.884h-2.997V32.078h2.998zm13.194 0v14.884h-2.988V32.078h2.988zm14.033 7.105v5.898c-.226.28-.576.583-1.05.91-.472.32-1.082.596-1.827.828-.747.232-1.65.348-2.71.348-.938 0-1.794-.157-2.567-.47a5.545 5.545 0 01-1.998-1.4c-.554-.614-.98-1.364-1.28-2.25-.3-.893-.449-1.911-.449-3.056v-.93c0-1.145.143-2.164.43-3.057.293-.893.709-1.646 1.248-2.26a5.35 5.35 0 011.93-1.4c.745-.32 1.574-.48 2.488-.48 1.265 0 2.305.21 3.117.634.813.415 1.432.995 1.859 1.737.433.736.699 1.581.8 2.535h-2.91a3.88 3.88 0 00-.418-1.318 2.192 2.192 0 00-.89-.88c-.379-.21-.872-.316-1.479-.316-.5 0-.945.105-1.339.317a2.664 2.664 0 00-.979.91c-.267.402-.47.899-.61 1.492s-.21 1.281-.21 2.065v.95c0 .777.074 1.466.22 2.066.147.593.363 1.093.65 1.502a2.84 2.84 0 001.08.91c.426.204.922.307 1.488.307.473 0 .866-.041 1.18-.123.32-.082.575-.18.768-.296.2-.123.354-.239.46-.348v-2.637H85.33v-2.188h5.736zm5.3-7.105v14.884h-2.989V32.078h2.988zm8.706 0v14.884h-2.988V32.078h2.988zm4.477 0v2.403H97.677v-2.403h11.872zm6.238 2.546l-3.957 12.338h-3.187l5.406-14.884h2.028l-.29 2.546zm3.288 12.338l-3.967-12.338-.32-2.546h2.049l5.436 14.884h-3.198zm-.18-5.54v2.402h-7.684v-2.402h7.684zm13.773 3.148v2.392h-7.324V44.57h7.324zm-6.355-12.492v14.884h-2.999V32.078h2.999zM67.215 57.884v1.606H62.16v-1.606h5.056zM62.8 49.497v9.993h-1.957v-9.993H62.8zm3.758 4.07v1.565H62.16v-1.565h4.398zm.652-4.07v1.613h-5.05v-1.613h5.05zm6.12 6.678h1.95c-.039.673-.215 1.27-.528 1.792a3.21 3.21 0 01-1.299 1.221c-.551.293-1.217.44-1.996.44-.609 0-1.154-.11-1.637-.33a3.507 3.507 0 01-1.24-.96 4.359 4.359 0 01-.776-1.51c-.178-.59-.267-1.252-.267-1.984v-.693c0-.733.09-1.394.274-1.984a4.43 4.43 0 01.796-1.517 3.552 3.552 0 011.246-.96 3.797 3.797 0 011.618-.337c.79 0 1.459.15 2.002.453.548.302.973.718 1.272 1.25.305.53.487 1.134.549 1.811h-1.958c-.021-.403-.098-.743-.228-1.023a1.329 1.329 0 00-.594-.638c-.26-.146-.609-.22-1.043-.22-.326 0-.612.065-.855.193a1.622 1.622 0 00-.614.583c-.165.26-.288.59-.371.988a7.151 7.151 0 00-.118 1.387v.707c0 .517.037.972.111 1.366.075.389.188.718.34.988.156.265.356.467.6.604.248.133.546.2.893.2.41 0 .747-.07 1.012-.207a1.38 1.38 0 00.606-.61c.144-.27.229-.607.255-1.01zm10.504-1.915v.474c0 .76-.098 1.441-.294 2.045a4.554 4.554 0 01-.829 1.545 3.603 3.603 0 01-1.278.967 3.903 3.903 0 01-1.637.337 3.927 3.927 0 01-1.638-.337 3.684 3.684 0 01-1.28-.967 4.593 4.593 0 01-.84-1.545c-.196-.604-.294-1.285-.294-2.045v-.474c0-.764.098-1.445.293-2.045a4.572 4.572 0 01.829-1.544c.36-.426.788-.75 1.279-.975a3.927 3.927 0 011.638-.336c.6 0 1.145.112 1.636.336.497.224.923.55 1.28.975.36.425.64.94.834 1.544.2.6.3 1.281.3 2.045zm-1.977.474v-.487c0-.531-.045-.998-.137-1.4a3.142 3.142 0 00-.404-1.016 1.788 1.788 0 00-.653-.618 1.79 1.79 0 00-.88-.213c-.331 0-.625.071-.882.213a1.794 1.794 0 00-.645.618 3.188 3.188 0 00-.398 1.016 6.385 6.385 0 00-.138 1.4v.487c0 .526.047.993.138 1.4.09.403.225.744.404 1.023.178.274.396.483.652.625.258.141.55.212.882.212.33 0 .623-.07.88-.212.256-.142.472-.35.646-.625.174-.28.306-.62.398-1.023a6.42 6.42 0 00.137-1.4zm7.796 2.142a1.37 1.37 0 00-.078-.481.904.904 0 00-.274-.398 2.408 2.408 0 00-.568-.364 7.711 7.711 0 00-.946-.37c-.43-.147-.84-.312-1.226-.495a5.023 5.023 0 01-1.018-.638 2.844 2.844 0 01-.69-.858c-.167-.325-.249-.702-.249-1.133 0-.416.087-.793.261-1.132a2.56 2.56 0 01.73-.878 3.41 3.41 0 011.11-.57 4.79 4.79 0 011.415-.2c.7 0 1.311.133 1.833.399.523.265.927.63 1.214 1.091.291.462.437.99.437 1.586H89.66c0-.293-.058-.55-.176-.769a1.224 1.224 0 00-.522-.529c-.231-.128-.522-.192-.874-.192-.34 0-.622.055-.848.165-.227.105-.397.25-.51.432-.112.179-.169.38-.169.604 0 .17.039.323.117.46.083.137.205.266.366.385.16.119.358.23.593.336.235.105.507.208.816.309.517.165.972.35 1.363.556.397.206.726.437.992.693.266.256.466.547.6.872.135.325.202.693.202 1.105 0 .434-.08.823-.241 1.167-.16.343-.394.633-.698.871a3.204 3.204 0 01-1.09.542 5.024 5.024 0 01-1.416.186c-.468 0-.932-.064-1.389-.192a4.137 4.137 0 01-1.246-.597 2.96 2.96 0 01-.887-1.016c-.222-.412-.333-.9-.333-1.462h1.964c0 .31.046.574.137.79.092.214.22.388.385.52.17.133.37.23.6.289.235.06.491.09.77.09.339 0 .618-.051.834-.152.222-.1.386-.24.49-.419.108-.178.163-.38.163-.603zm4.058-7.379l1.984 4.557 1.983-4.557h2.134l-3.126 6.356v3.637h-1.983v-3.637l-3.13-6.356h2.138zm11.274 7.379a1.39 1.39 0 00-.078-.481.901.901 0 00-.275-.398 2.388 2.388 0 00-.566-.364 7.87 7.87 0 00-.946-.37c-.431-.147-.84-.312-1.227-.495a4.973 4.973 0 01-1.018-.638 2.874 2.874 0 01-.692-.858 2.482 2.482 0 01-.247-1.133c0-.416.087-.793.26-1.132.175-.343.418-.636.731-.878a3.397 3.397 0 011.11-.57c.43-.133.902-.2 1.416-.2.699 0 1.311.133 1.832.399.522.265.927.63 1.214 1.091.292.462.437.99.437 1.586h-1.945c0-.293-.058-.55-.175-.769a1.227 1.227 0 00-.522-.529c-.231-.128-.523-.192-.875-.192-.339 0-.622.055-.848.165-.226.105-.395.25-.508.432-.114.179-.17.38-.17.604 0 .17.039.323.117.46.083.137.205.266.366.385s.359.23.594.336a8.5 8.5 0 00.814.309c.519.165.973.35 1.364.556.396.206.727.437.992.693.265.256.465.547.6.872.135.325.202.693.202 1.105 0 .434-.08.823-.241 1.167a2.365 2.365 0 01-.698.871 3.225 3.225 0 01-1.089.542 5.042 5.042 0 01-1.416.186c-.47 0-.933-.064-1.39-.192a4.122 4.122 0 01-1.246-.597 2.962 2.962 0 01-.888-1.016c-.22-.412-.331-.9-.331-1.462h1.963c0 .31.045.574.137.79.091.214.219.388.384.52.17.133.371.23.601.289.234.06.492.09.77.09.339 0 .617-.051.835-.152.222-.1.384-.24.489-.419.109-.178.163-.38.163-.603zm7.001-7.379v9.993h-1.951v-9.993h1.951zm2.922 0v1.613h-7.75v-1.613h7.75zm6.955 8.387v1.606h-5.056v-1.606h5.056zm-4.416-8.387v9.993h-1.958v-9.993h1.958zm3.757 4.07v1.565h-4.397v-1.565h4.397zm.653-4.07v1.613h-5.05v-1.613h5.05zm1.507 0h1.657l2.44 7.337 2.44-7.337h1.657l-3.431 9.993h-1.331l-3.432-9.993zm-.894 0h1.651l.3 7.152v2.841h-1.951v-9.993zm8.331 0h1.657v9.993H130.5v-2.84l.3-7.152z" fill="#7E44FE"/></svg>